<?xml version="1.0" encoding="utf-8"?>
<!-- Generator: Adobe Illustrator 16.0.0, SVG Export Plug-In . SVG Version: 6.00 Build 0)  -->
<!DOCTYPE svg PUBLIC "-//W3C//DTD SVG 1.1//EN" "http://www.w3.org/Graphics/SVG/1.1/DTD/svg11.dtd">
<svg version="1.1" id="图层_1" xmlns="http://www.w3.org/2000/svg" xmlns:xlink="http://www.w3.org/1999/xlink" x="0px" y="0px"
	 width="203.452px" height="143.228px" viewBox="0 0 203.452 143.228" enable-background="new 0 0 203.452 143.228"
	 xml:space="preserve">
<linearGradient id="SVGID_1_" gradientUnits="userSpaceOnUse" x1="6.5107" y1="24.6992" x2="6.5107" y2="142.5117">
	<stop  offset="0" style="stop-color:#7A7A7A"/>
	<stop  offset="1" style="stop-color:#DEDEDE"/>
</linearGradient>
<rect y="24.699" fill="url(#SVGID_1_)" width="13.021" height="117.813"/>
<polygon fill="#666666" points="13.021,101.012 36.938,101.012 36.938,119.512 13.021,142.512 "/>
<linearGradient id="SVGID_2_" gradientUnits="userSpaceOnUse" x1="49.1504" y1="122.6265" x2="36.7383" y2="101.1281">
	<stop  offset="0" style="stop-color:#545454"/>
	<stop  offset="1" style="stop-color:#6B6B6B"/>
</linearGradient>
<path fill="url(#SVGID_2_)" d="M36.938,101.012h10.146c0,0,0.188,7.208,7.75,18.333l-17.896,0.167"/>
<path fill="#D6D6D6" d="M158.896,138.963h5.27c0,0,8.391,6.416,17.998,0h6.816v4.084h-30.084V138.963z"/>
<linearGradient id="SVGID_3_" gradientUnits="userSpaceOnUse" x1="164.1655" y1="137.4902" x2="158.896" y2="137.4902">
	<stop  offset="0" style="stop-color:#616161"/>
	<stop  offset="1" style="stop-color:#D1D1D1"/>
</linearGradient>
<path fill="url(#SVGID_3_)" d="M158.896,138.963h5.27c0,0-0.85-0.785-3.152-2.945L158.896,138.963z"/>
<polygon fill="#8E8E8E" points="188.98,138.963 202.947,125.004 195.23,125.004 181.312,138.963 "/>
<polygon fill="#666666" points="188.98,138.963 188.98,143.047 190.083,143.047 202.947,130.141 202.947,125.004 "/>
<linearGradient id="SVGID_4_" gradientUnits="userSpaceOnUse" x1="193.5347" y1="131.7671" x2="175.7134" y2="100.8997">
	<stop  offset="0" style="stop-color:#424242"/>
	<stop  offset="1" style="stop-color:#D1D1D1"/>
</linearGradient>
<path fill="url(#SVGID_4_)" d="M184.423,137.027c0,0,13.641-14.377,15.432-16.355c1.791-1.98,7.916-11-1.584-19.834
	s-19.166-2.666-23.166,1.166c-4,3.834-14.092,14.305-14.092,14.305"/>
<linearGradient id="SVGID_5_" gradientUnits="userSpaceOnUse" x1="188.8101" y1="126.1641" x2="157.519" y2="126.1641">
	<stop  offset="0" style="stop-color:#5C5C5C"/>
	<stop  offset="1" style="stop-color:#D1D1D1"/>
</linearGradient>
<circle fill="url(#SVGID_5_)" cx="173.165" cy="126.162" r="15.646"/>
<linearGradient id="SVGID_6_" gradientUnits="userSpaceOnUse" x1="182.9058" y1="126.3398" x2="162.8433" y2="126.3398">
	<stop  offset="0" style="stop-color:#141414"/>
	<stop  offset="1" style="stop-color:#454545"/>
</linearGradient>
<circle fill="url(#SVGID_6_)" cx="172.875" cy="126.34" r="10.031"/>
<circle cx="173.164" cy="126.162" r="3.125"/>
<linearGradient id="SVGID_7_" gradientUnits="userSpaceOnUse" x1="151.2485" y1="122.6836" x2="69.1309" y2="-19.5484">
	<stop  offset="0" style="stop-color:#363636"/>
	<stop  offset="1" style="stop-color:#DEDEDE"/>
</linearGradient>
<path fill="url(#SVGID_7_)" d="M145.222,126.162c0,0,35.799-28.24,40.467-52.906c4.666-24.668-4.59-49.502-22.795-61.668
	C144.687-0.578,133.021,0.005,133.021,0.005L35.271,0l-22.25,24.699H107L145.222,126.162z"/>
<linearGradient id="SVGID_8_" gradientUnits="userSpaceOnUse" x1="145.8013" y1="38.186" x2="18.7237" y2="111.5543">
	<stop  offset="0" style="stop-color:#4A4A4A"/>
	<stop  offset="1" style="stop-color:#DEDEDE"/>
</linearGradient>
<path fill="url(#SVGID_8_)" d="M45.688,101.678c0,0,6.5,29.168,36.5,38.334s50.668-3.959,53.668-6.063s28.312-18.438,26.988-54.271
	c-1.322-35.832-37.822-52.334-43.322-53.666c-5.5-1.334-7.438-1.313-7.438-1.313H13.021v76.979H45.688z"/>
<circle fill="#8C8C8C" cx="102.99" cy="84.686" r="45.486"/>
<linearGradient id="SVGID_9_" gradientUnits="userSpaceOnUse" x1="71.772" y1="53.1128" x2="136.1" y2="117.4409">
	<stop  offset="0" style="stop-color:#B0B0B0"/>
	<stop  offset="0.1479" style="stop-color:#BDBDBD"/>
	<stop  offset="0.7164" style="stop-color:#EDEDED"/>
	<stop  offset="1" style="stop-color:#FFFFFF"/>
</linearGradient>
<circle fill="url(#SVGID_9_)" cx="103.935" cy="85.277" r="45.486"/>
<circle fill="#7A7A7A" cx="103.839" cy="85.998" r="35.75"/>
<linearGradient id="SVGID_10_" gradientUnits="userSpaceOnUse" x1="21.8301" y1="19.6143" x2="13.7183" y2="5.5642">
	<stop  offset="0" style="stop-color:#363636"/>
	<stop  offset="1" style="stop-color:#949494"/>
</linearGradient>
<polygon fill="url(#SVGID_10_)" points="13.021,24.699 35.271,0 23.355,0 0,24.699 "/>
<linearGradient id="SVGID_11_" gradientUnits="userSpaceOnUse" x1="110.0679" y1="62.8276" x2="61.1846" y2="-21.8407">
	<stop  offset="0" style="stop-color:#545454"/>
	<stop  offset="1" style="stop-color:#6B6B6B"/>
</linearGradient>
<path opacity="0.5" fill="url(#SVGID_11_)" d="M0,24.699h176.107c0,0-9.104-16.905-38.761-24.293c0,0-1.543-0.41-6.855-0.406
	S23.355,0,23.355,0L0,24.699z"/>
<path fill="#2D2D2D" d="M140.548,85.274c0,20.223-16.393,36.615-36.613,36.615c-20.22,0-36.612-16.393-36.612-36.615
	c0-20.219,16.392-36.611,36.612-36.611C124.156,48.663,140.548,65.055,140.548,85.274z"/>
</svg>
