<?xml version="1.0" encoding="utf-8"?>
<!-- Generator: Adobe Illustrator 16.0.0, SVG Export Plug-In . SVG Version: 6.00 Build 0)  -->
<!DOCTYPE svg PUBLIC "-//W3C//DTD SVG 1.1//EN" "http://www.w3.org/Graphics/SVG/1.1/DTD/svg11.dtd">
<svg version="1.1" id="图层_1" xmlns="http://www.w3.org/2000/svg" xmlns:xlink="http://www.w3.org/1999/xlink" x="0px" y="0px"
	 width="213.099px" height="142.706px" viewBox="0 0 213.099 142.706" enable-background="new 0 0 213.099 142.706"
	 xml:space="preserve">
<path fill="#444444" d="M135.413,118.298l17.623-16.924h-9.645C143.391,101.374,142.057,109.149,135.413,118.298z"/>
<linearGradient id="SVGID_1_" gradientUnits="userSpaceOnUse" x1="33.8979" y1="122.5186" x2="33.8979" y2="138.6572">
	<stop  offset="0" style="stop-color:#616161"/>
	<stop  offset="1" style="stop-color:#D1D1D1"/>
</linearGradient>
<path fill="url(#SVGID_1_)" d="M27.06,136.282l-2.82,2.375h6.859l12.458-12.596c0,0-2.822-2.125-3.307-3.459
	S27.06,136.282,27.06,136.282z"/>
<linearGradient id="SVGID_2_" gradientUnits="userSpaceOnUse" x1="21.4736" y1="96.3506" x2="21.4736" y2="136.2822">
	<stop  offset="0" style="stop-color:#616161"/>
	<stop  offset="1" style="stop-color:#D1D1D1"/>
</linearGradient>
<path fill="url(#SVGID_2_)" d="M2.697,116.797c0,0,18.365-22.319,24.053-20.319c0,0,4.875,17.75,13.5,26.125l-13.192,13.68"/>
<linearGradient id="SVGID_3_" gradientUnits="userSpaceOnUse" x1="0" y1="125.5811" x2="31.292" y2="125.5811">
	<stop  offset="0" style="stop-color:#5C5C5C"/>
	<stop  offset="1" style="stop-color:#D1D1D1"/>
</linearGradient>
<circle fill="url(#SVGID_3_)" cx="15.646" cy="125.581" r="15.646"/>
<linearGradient id="SVGID_4_" gradientUnits="userSpaceOnUse" x1="10.3408" y1="134.4482" x2="20.3738" y2="117.0706">
	<stop  offset="0" style="stop-color:#141414"/>
	<stop  offset="1" style="stop-color:#454545"/>
</linearGradient>
<circle fill="url(#SVGID_4_)" cx="15.356" cy="125.759" r="10.031"/>
<circle cx="15.646" cy="125.581" r="3.125"/>
<linearGradient id="SVGID_5_" gradientUnits="userSpaceOnUse" x1="31.0986" y1="139.1963" x2="1.0361" y2="139.1963">
	<stop  offset="0" style="stop-color:#FFFFFF"/>
	<stop  offset="1" style="stop-color:#C9C9C9"/>
</linearGradient>
<path fill="url(#SVGID_5_)" d="M1.036,138.657l2.754-2.867c0,0,5.051,5.536,11.242,5.424c6.191-0.111,9.208-2.557,9.208-2.557h6.858
	v3.945H1.036V138.657z"/>
<path fill="#666666" d="M31.099,138.647l12.458-12.598c0,0,1.979,2.511,2.698,2.979l-13.938,13.563h-1.219V138.647z"/>
<path fill="#CDCDCD" d="M3.79,135.79l-2.754,2.867l6.169-0.035C7.205,138.622,5.067,137.224,3.79,135.79z"/>
<linearGradient id="SVGID_6_" gradientUnits="userSpaceOnUse" x1="25.2915" y1="71.3408" x2="200.0571" y2="71.3408">
	<stop  offset="0" style="stop-color:#878787"/>
	<stop  offset="1" style="stop-color:#DEDEDE"/>
</linearGradient>
<path fill="url(#SVGID_6_)" d="M25.388,83.18c0,0-3.039,29,25.086,49s63.5,6.125,71.125,0s18.292-15.874,21.792-30.812h32.5V24.68
	l24.166-24.583h-96.501c0,0-14.998-0.667-30.166,11.833C58.224,24.43,26.719,47.263,25.388,83.18z"/>
<circle fill="#8C8C8C" cx="85.737" cy="83.452" r="45.487"/>
<linearGradient id="SVGID_7_" gradientUnits="userSpaceOnUse" x1="54.5186" y1="51.8784" x2="118.8473" y2="116.2072">
	<stop  offset="0" style="stop-color:#B0B0B0"/>
	<stop  offset="0.1479" style="stop-color:#BDBDBD"/>
	<stop  offset="0.7164" style="stop-color:#EDEDED"/>
	<stop  offset="1" style="stop-color:#FFFFFF"/>
</linearGradient>
<circle fill="url(#SVGID_7_)" cx="86.682" cy="84.043" r="45.487"/>
<circle fill="#7A7A7A" cx="86.585" cy="84.765" r="35.75"/>
<linearGradient id="SVGID_8_" gradientUnits="userSpaceOnUse" x1="182.2036" y1="24.7842" x2="182.2036" y2="142.7065">
	<stop  offset="0" style="stop-color:#616161"/>
	<stop  offset="1" style="stop-color:#ABABAB"/>
</linearGradient>
<rect x="175.788" y="24.784" fill="url(#SVGID_8_)" width="12.832" height="117.922"/>
<linearGradient id="SVGID_9_" gradientUnits="userSpaceOnUse" x1="194.2769" y1="0.0967" x2="194.2769" y2="24.7842">
	<stop  offset="0" style="stop-color:#616161"/>
	<stop  offset="1" style="stop-color:#ABABAB"/>
</linearGradient>
<polygon fill="url(#SVGID_9_)" points="175.788,24.784 200.057,0.097 212.766,0.097 188.975,24.784 "/>
<linearGradient id="SVGID_10_" gradientUnits="userSpaceOnUse" x1="167.3452" y1="130.3633" x2="235.1334" y2="12.9507">
	<stop  offset="0" style="stop-color:#696969"/>
	<stop  offset="1" style="stop-color:#696969"/>
</linearGradient>
<polygon fill="url(#SVGID_10_)" points="188.975,24.724 188.62,142.646 213.098,119.292 212.766,0.036 "/>
<linearGradient id="SVGID_11_" gradientUnits="userSpaceOnUse" x1="189.8462" y1="97.9111" x2="203.5269" y2="74.2155">
	<stop  offset="0" style="stop-color:#1C1C1C"/>
	<stop  offset="1" style="stop-color:#4A4A4A"/>
</linearGradient>
<polygon fill="url(#SVGID_11_)" points="190.975,78.563 190.975,98.563 211.057,78.563 "/>
<linearGradient id="SVGID_12_" gradientUnits="userSpaceOnUse" x1="190.9751" y1="42.5854" x2="211.0571" y2="42.5854">
	<stop  offset="0" style="stop-color:#0D0D0D"/>
	<stop  offset="1" style="stop-color:#4A4A4A"/>
</linearGradient>
<polygon fill="url(#SVGID_12_)" points="190.975,78.563 211.057,78.563 211.057,6.608 190.975,26.664 "/>
<path opacity="0.5" fill="#878787" d="M57.983,24.784h154.783V0.036H106.099c0,0-12.958-0.99-26.521,7.385
	C73.345,11.271,64.506,19.286,57.983,24.784z"/>
<path fill="#2D2D2D" d="M123.294,84.04c0,20.223-16.393,36.615-36.613,36.615c-20.22,0-36.612-16.393-36.612-36.615
	c0-20.219,16.392-36.611,36.612-36.611C106.902,47.429,123.294,63.821,123.294,84.04z"/>
</svg>
