<?xml version="1.0" encoding="utf-8"?>
<!-- Generator: Adobe Illustrator 16.0.0, SVG Export Plug-In . SVG Version: 6.00 Build 0)  -->
<!DOCTYPE svg PUBLIC "-//W3C//DTD SVG 1.1//EN" "http://www.w3.org/Graphics/SVG/1.1/DTD/svg11.dtd" [
		<!ENTITY ns_extend "http://ns.adobe.com/Extensibility/1.0/">
		<!ENTITY ns_ai "http://ns.adobe.com/AdobeIllustrator/10.0/">
		<!ENTITY ns_graphs "http://ns.adobe.com/Graphs/1.0/">
		<!ENTITY ns_vars "http://ns.adobe.com/Variables/1.0/">
		<!ENTITY ns_imrep "http://ns.adobe.com/ImageReplacement/1.0/">
		<!ENTITY ns_sfw "http://ns.adobe.com/SaveForWeb/1.0/">
		<!ENTITY ns_custom "http://ns.adobe.com/GenericCustomNamespace/1.0/">
		<!ENTITY ns_adobe_xpath "http://ns.adobe.com/XPath/1.0/">
		]>
<svg version="1.1" id="图层_1" xmlns:x="&ns_extend;" xmlns:i="&ns_ai;" xmlns:graph="&ns_graphs;"
	 xmlns="http://www.w3.org/2000/svg" xmlns:xlink="http://www.w3.org/1999/xlink" x="0px" y="0px" width="151.372px"
	 height="151.373px" viewBox="0 0 151.372 151.373" enable-background="new 0 0 151.372 151.373" xml:space="preserve">

	<g>
		<circle fill="#2D2D2D" cx="75.686" cy="75.685" r="75.686"/>

		<linearGradient id="SVGID_1_" gradientUnits="userSpaceOnUse" x1="99.4795" y1="63.8164" x2="143.0793" y2="88.9888">
			<stop  offset="0.0054" style="stop-color:#262626"/>
			<stop  offset="1" style="stop-color:#00E017"/>
		</linearGradient>
		<path fill="url(#SVGID_1_)" d="M141.317,60.732c0,0-29.954,14.556-47.385,12.693l-3.217,12.354c0,0,20.817,16.079,50.602,6.262
			V60.732z"/>

			<linearGradient id="SVGID_2_" gradientUnits="userSpaceOnUse" x1="141.2388" y1="-112.0591" x2="184.8394" y2="-86.8862" gradientTransform="matrix(0.4969 -0.8678 0.8678 0.4969 103.9575 226.6436)">
			<stop  offset="0.0054" style="stop-color:#262626"/>
			<stop  offset="1" style="stop-color:#00E017"/>
		</linearGradient>
		<path fill="url(#SVGID_2_)" d="M95.009,10.553c0,0-2.255,33.228-12.535,47.428l9.125,8.933c0,0,24.295-10.075,30.578-40.8
			L95.009,10.553z"/>

			<linearGradient id="SVGID_3_" gradientUnits="userSpaceOnUse" x1="338.4189" y1="-156.6797" x2="382.0204" y2="-131.5063" gradientTransform="matrix(-0.5052 -0.863 0.863 -0.5052 359.506 273.8204)">
			<stop  offset="0.0054" style="stop-color:#262626"/>
			<stop  offset="1" style="stop-color:#00E017"/>
		</linearGradient>


		<path fill="url(#SVGID_3_)" d="M29.522,26.368c0,0,27.696,18.5,34.891,34.485l12.292-3.467c0,0,3.355-26.088-20.162-46.833
			L29.522,26.368z"/>

			<linearGradient id="SVGID_4_" gradientUnits="userSpaceOnUse" x1="398.1543" y1="-207.0503" x2="441.7541" y2="-181.8779" gradientTransform="matrix(-1 0.0053 -0.0053 -1 449.3635 -121.0352)">
			<stop  offset="0.0054" style="stop-color:#262626"/>
			<stop  offset="1" style="stop-color:#00E017"/>
		</linearGradient>
		<path fill="url(#SVGID_4_)" d="M10.481,91.432c0,0,29.878-14.714,47.319-12.942l3.151-12.376c0,0-20.902-15.966-50.634-5.989
			L10.481,91.432z"/>

			<linearGradient id="SVGID_5_" gradientUnits="userSpaceOnUse" x1="450.6084" y1="-177.9194" x2="494.2065" y2="-152.748" gradientTransform="matrix(-0.4997 0.8662 -0.8662 -0.4997 145.0807 -376.5385)">
			<stop  offset="0.0054" style="stop-color:#262626"/>
			<stop  offset="1" style="stop-color:#00E017"/>
		</linearGradient>
		<path fill="url(#SVGID_5_)" d="M55.793,140.467c0,0,2.36-33.22,12.683-47.387l-9.097-8.963c0,0-24.327,9.998-30.705,40.705
			L55.793,140.467z"/>

			<linearGradient id="SVGID_6_" gradientUnits="userSpaceOnUse" x1="435.7412" y1="-117.8521" x2="479.3402" y2="-92.6802" gradientTransform="matrix(0.4956 0.8686 -0.8686 0.4956 -219.5557 -229.9371)">
			<stop  offset="0.0054" style="stop-color:#262626"/>
			<stop  offset="1" style="stop-color:#00E017"/>
		</linearGradient>


		<path fill="url(#SVGID_6_)" d="M122.178,124.953c0,0-27.486-18.808-34.505-34.87l-12.328,3.33c0,0-3.649,26.047,19.641,47.054
			L122.178,124.953z"/>
		<linearGradient id="SVGID_7_" gradientUnits="userSpaceOnUse" x1="64.8535" y1="93.4971" x2="85.4196" y2="57.8756">
			<stop  offset="0" style="stop-color:#A1A1A1"/>
			<stop  offset="1" style="stop-color:#E0E0E0"/>
		</linearGradient>
		<circle fill="url(#SVGID_7_)" cx="75.136" cy="75.687" r="20.563"/>
		<linearGradient id="SVGID_8_" gradientUnits="userSpaceOnUse" x1="66.0396" y1="91.4443" x2="84.235" y2="59.9289">
			<stop  offset="0" style="stop-color:#5E5E5E"/>
			<stop  offset="1" style="stop-color:#ABABAB"/>
		</linearGradient>
		<circle fill="url(#SVGID_8_)" cx="75.137" cy="75.687" r="18.193"/>
<animateTransform attributeName="transform" begin="0s" dur="2.5s" type="rotate" from="0 76 76" to="360 76 76" repeatCount="indefinite"/>

	</g>
<g>
			<g>
				<path fill="#C9C9C9" d="M6.49,76.236C6.492,38.328,37.224,7.591,75.138,7.591l0,0c37.911,0,68.646,30.737,68.646,68.645l0,0
					c0,37.912-30.734,68.646-68.646,68.65l0,0C37.224,144.883,6.492,114.148,6.49,76.236L6.49,76.236z M27.571,28.673
					C15.401,40.85,7.872,57.66,7.872,76.236l0,0c0,18.579,7.529,35.389,19.699,47.564l0,0
					c12.178,12.172,28.987,19.701,47.566,19.701l0,0c18.574,0,35.388-7.529,47.562-19.701l0,0
					c12.174-12.176,19.701-28.985,19.703-47.564l0,0c-0.002-18.576-7.529-35.387-19.703-47.563l0,0
					C110.525,16.499,93.712,8.972,75.138,8.972l0,0C56.559,8.972,39.749,16.499,27.571,28.673L27.571,28.673z"/>
			</g>
			<g>
				<path fill="#C9C9C9" d="M11.738,76.236C11.74,41.224,40.122,12.84,75.138,12.84l0,0c35.013,0,63.395,28.384,63.395,63.396l0,0
					c0,35.014-28.382,63.396-63.395,63.397l0,0C40.122,139.632,11.74,111.25,11.738,76.236L11.738,76.236z M31.286,32.384
					C20.062,43.609,13.121,59.111,13.121,76.236l0,0c0,17.125,6.94,32.628,18.165,43.854l0,0
					c11.224,11.227,26.723,18.162,43.852,18.162l0,0c17.128,0,32.627-6.936,43.851-18.162l0,0
					c11.225-11.226,18.165-26.729,18.165-43.854l0,0c0-17.125-6.94-32.627-18.165-43.853l0,0
					c-11.224-11.222-26.723-18.161-43.851-18.161l0,0C58.009,14.223,42.51,21.162,31.286,32.384L31.286,32.384z"/>
			</g>
			<g>
				<path fill="#C9C9C9" d="M16.988,76.236c0-32.114,26.034-58.146,58.149-58.146l0,0c32.114,0,58.146,26.032,58.146,58.146l0,0
					c0,32.115-26.032,58.15-58.146,58.15l0,0C43.022,134.387,16.988,108.352,16.988,76.236L16.988,76.236z M34.997,36.097
					c-10.274,10.274-16.628,24.462-16.628,40.14l0,0c0,15.681,6.354,29.865,16.628,40.139l0,0
					c10.272,10.277,24.462,16.626,40.141,16.628l0,0c15.678-0.002,29.865-6.351,40.14-16.628l0,0
					c10.274-10.273,16.628-24.458,16.628-40.139l0,0c0-15.678-6.354-29.865-16.628-40.14l0,0
					c-10.274-10.272-24.462-16.627-40.14-16.627l0,0C59.459,19.469,45.27,25.824,34.997,36.097L34.997,36.097z"/>
			</g>
			<g>
				<path fill="#C9C9C9" d="M22.235,76.234c0.004-29.216,23.686-52.897,52.902-52.897l0,0c29.214,0,52.897,23.682,52.899,52.897l0,0
					c-0.002,29.219-23.686,52.9-52.899,52.904l0,0C45.921,129.135,22.239,105.453,22.235,76.234L22.235,76.234z M38.708,39.808
					c-9.325,9.323-15.09,22.202-15.09,36.427l0,0c0,14.23,5.765,27.105,15.09,36.43l0,0c9.325,9.325,22.199,15.092,36.43,15.092l0,0
					c14.228,0,27.104-5.767,36.429-15.092l0,0c9.325-9.324,15.09-22.199,15.09-36.43l0,0c0-14.225-5.765-27.104-15.09-36.427l0,0
					c-9.324-9.325-22.201-15.091-36.429-15.091l0,0C60.907,24.717,48.033,30.482,38.708,39.808L38.708,39.808z"/>
			</g>
			<g>
				<path fill="#C9C9C9" d="M27.483,76.236c0.004-26.317,21.336-47.652,47.654-47.652l0,0c26.317,0,47.649,21.335,47.653,47.652l0,0
					c-0.004,26.32-21.336,47.652-47.653,47.652l0,0C48.819,123.889,27.487,102.557,27.483,76.236L27.483,76.236z M42.419,43.521
					c-8.376,8.375-13.553,19.937-13.553,32.716l0,0c0,12.778,5.177,24.344,13.553,32.717l0,0
					c8.375,8.378,19.938,13.555,32.719,13.555l0,0c12.781,0,24.343-5.177,32.718-13.555l0,0
					c8.374-8.373,13.553-19.938,13.553-32.717l0,0c0-12.779-5.179-24.341-13.553-32.716l0,0
					c-8.375-8.376-19.937-13.555-32.718-13.555l0,0C62.357,29.966,50.794,35.145,42.419,43.521L42.419,43.521z"/>
			</g>
			<g>
				<path fill="#C9C9C9" d="M32.734,76.236c0-23.417,18.985-42.402,42.403-42.402l0,0c23.419,0,42.4,18.985,42.4,42.402l0,0
					c0,23.42-18.981,42.402-42.4,42.402l0,0C51.72,118.639,32.734,99.656,32.734,76.236L32.734,76.236z M46.13,47.229
					c-7.424,7.426-12.015,17.68-12.015,29.008l0,0c0,11.332,4.591,21.582,12.015,29.008l0,0
					c7.428,7.424,17.676,12.016,29.008,12.016l0,0c11.331,0,21.58-4.592,29.008-12.016l0,0c7.421-7.426,12.013-17.676,12.013-29.008
					l0,0c0-11.328-4.592-21.582-12.013-29.008l0,0c-7.428-7.424-17.677-12.014-29.008-12.014l0,0
					C63.806,35.215,53.558,39.805,46.13,47.229L46.13,47.229z"/>
			</g>
			<g>
				<path fill="#C9C9C9" d="M37.98,76.236c0-20.521,16.636-37.156,37.157-37.156l0,0c20.517,0,37.152,16.636,37.154,37.156l0,0
					c-0.002,20.52-16.638,37.155-37.154,37.155l0,0C54.616,113.392,37.98,96.756,37.98,76.236L37.98,76.236z M49.843,50.939
					c-6.477,6.479-10.479,15.418-10.479,25.297l0,0c0,9.878,4.003,18.819,10.479,25.295l0,0
					c6.476,6.475,15.413,10.476,25.295,10.476l0,0c9.881,0,18.82-4.001,25.295-10.476l0,0c6.474-6.476,10.479-15.417,10.479-25.295
					l0,0c0-9.879-4.005-18.818-10.479-25.297l0,0c-6.475-6.472-15.414-10.477-25.295-10.477l0,0
					C65.256,40.463,56.318,44.468,49.843,50.939L49.843,50.939z"/>
			</g>
			<g>
				<path fill="#C9C9C9" d="M43.229,76.236c0-17.622,14.285-31.903,31.908-31.903l0,0c17.62,0,31.903,14.281,31.903,31.903l0,0
					c0,17.623-14.283,31.904-31.903,31.904l0,0C57.515,108.141,43.229,93.859,43.229,76.236L43.229,76.236z M53.554,54.652
					c-5.525,5.523-8.941,13.149-8.941,21.584l0,0c0,8.434,3.416,16.059,8.941,21.584l0,0c5.524,5.525,13.152,8.939,21.584,8.939l0,0
					c8.431,0,16.059-3.414,21.582-8.939l0,0c5.526-5.525,8.941-13.15,8.941-21.584l0,0c0-8.435-3.415-16.061-8.941-21.584l0,0
					c-5.523-5.523-13.151-8.941-21.582-8.941l0,0C66.706,45.711,59.078,49.129,53.554,54.652L53.554,54.652z"/>
			</g>
			<g>
				<path fill="#C9C9C9" d="M48.478,76.236c0-14.722,11.938-26.657,26.66-26.659l0,0c14.722,0.002,26.655,11.938,26.655,26.659l0,0
					c0,14.723-11.934,26.658-26.655,26.66l0,0C60.415,102.895,48.478,90.959,48.478,76.236L48.478,76.236z M57.263,58.365
					c-4.573,4.578-7.402,10.891-7.402,17.871l0,0c0,6.983,2.829,13.299,7.402,17.873l0,0c4.578,4.578,10.894,7.402,17.875,7.402l0,0
					c6.98,0,13.296-2.824,17.873-7.402l0,0c4.572-4.574,7.403-10.89,7.403-17.873l0,0c0-6.98-2.831-13.293-7.403-17.871l0,0
					c-4.577-4.576-10.893-7.403-17.873-7.403l0,0C68.156,50.962,61.841,53.789,57.263,58.365L57.263,58.365z"/>
			</g>
			<g>
				<path fill="#C9C9C9" d="M53.729,76.236c0.002-11.821,9.585-21.408,21.409-21.408l0,0c11.821,0,21.407,9.587,21.409,21.408l0,0
					c-0.002,11.824-9.588,21.412-21.409,21.412l0,0C63.313,97.648,53.73,88.061,53.729,76.236L53.729,76.236z M60.978,62.074
					c-3.628,3.63-5.869,8.633-5.869,14.162l0,0c0,5.533,2.241,10.533,5.869,14.16l0,0c3.623,3.628,8.625,5.869,14.16,5.869l0,0
					c5.532,0,10.534-2.241,14.162-5.869l0,0c3.623-3.627,5.864-8.627,5.864-14.16l0,0c0-5.529-2.241-10.532-5.864-14.162l0,0
					c-3.628-3.621-8.63-5.863-14.162-5.863l0,0C69.603,56.211,64.601,58.453,60.978,62.074L60.978,62.074z"/>
			</g>
			<g>
				<path fill="#C9C9C9" d="M58.977,76.236c0.002-8.925,7.237-16.162,16.161-16.162l0,0c8.923,0,16.158,7.237,16.158,16.162l0,0
					c0,8.926-7.235,16.159-16.158,16.161l0,0C66.214,92.396,58.979,85.162,58.977,76.236L58.977,76.236z"/>
			</g>
			<polygon fill="#D1D1D1" points="146.774,74.58 79.139,74.58 127.652,26.068 125.306,23.725 76.794,72.236 76.794,3.497
				73.479,3.497 73.479,72.236 25.652,24.408 23.308,26.752 71.135,74.58 3.498,74.58 3.498,77.892 71.137,77.892 23.308,125.723
				25.652,128.066 73.479,80.238 73.479,147.876 76.794,147.876 76.794,80.24 124.62,128.066 126.963,125.723 79.139,77.892
				146.774,77.892 			"/>
			<g>
				<path fill="#737373" d="M64.226,77.342c0-6.027,4.885-10.91,10.912-10.91l0,0c6.024,0,10.91,4.883,10.91,10.91l0,0
					c0,6.027-4.886,10.914-10.91,10.914l0,0C69.11,88.256,64.226,83.369,64.226,77.342L64.226,77.342z"/>
			</g>
			<g>
				<path fill="#C9C9C9" d="M64.226,76.236c0-6.024,4.885-10.91,10.912-10.91l0,0c6.024,0,10.91,4.886,10.91,10.91l0,0
					c0,6.025-4.886,10.912-10.91,10.914l0,0C69.11,87.148,64.226,82.262,64.226,76.236L64.226,76.236z"/>
			</g>
		</g>

</svg>
