<?xml version="1.0" encoding="utf-8"?>
<!-- Generator: Adobe Illustrator 16.0.0, SVG Export Plug-In . SVG Version: 6.00 Build 0)  -->
<!DOCTYPE svg PUBLIC "-//W3C//DTD SVG 1.1//EN" "http://www.w3.org/Graphics/SVG/1.1/DTD/svg11.dtd" [
		<!ENTITY ns_extend "http://ns.adobe.com/Extensibility/1.0/">
		<!ENTITY ns_ai "http://ns.adobe.com/AdobeIllustrator/10.0/">
		<!ENTITY ns_graphs "http://ns.adobe.com/Graphs/1.0/">
		<!ENTITY ns_vars "http://ns.adobe.com/Variables/1.0/">
		<!ENTITY ns_imrep "http://ns.adobe.com/ImageReplacement/1.0/">
		<!ENTITY ns_sfw "http://ns.adobe.com/SaveForWeb/1.0/">
		<!ENTITY ns_custom "http://ns.adobe.com/GenericCustomNamespace/1.0/">
		<!ENTITY ns_adobe_xpath "http://ns.adobe.com/XPath/1.0/">
		]>
<svg version="1.1" id="图层_1" xmlns:x="&ns_extend;" xmlns:i="&ns_ai;" xmlns:graph="&ns_graphs;"
	 xmlns="http://www.w3.org/2000/svg" xmlns:xlink="http://www.w3.org/1999/xlink" x="0px" y="0px" width="203.453px"
	 height="143.228px" viewBox="0 0 203.453 143.228" enable-background="new 0 0 203.453 143.228" xml:space="preserve">


	<g i:extraneous="self">
		<linearGradient id="SVGID_1_" gradientUnits="userSpaceOnUse" x1="6.5107" y1="24.6987" x2="6.5107" y2="142.5112">
			<stop  offset="0" style="stop-color:#7A7A7A"/>
			<stop  offset="1" style="stop-color:#DEDEDE"/>
		</linearGradient>
		<rect y="24.699" fill="url(#SVGID_1_)" width="13.021" height="117.813"/>
		<polygon fill="#666666" points="13.021,101.011 36.938,101.011 36.938,119.511 13.021,142.511 		"/>
		<linearGradient id="SVGID_2_" gradientUnits="userSpaceOnUse" x1="49.1504" y1="122.626" x2="36.7383" y2="101.1276">
			<stop  offset="0" style="stop-color:#545454"/>
			<stop  offset="1" style="stop-color:#6B6B6B"/>
		</linearGradient>
		<path fill="url(#SVGID_2_)" d="M36.938,101.011h10.146c0,0,0.188,7.208,7.75,18.333l-17.896,0.167"/>
		<path fill="#D6D6D6" d="M158.896,138.962h5.27c0,0,8.391,6.416,17.998,0h6.816v4.084h-30.084V138.962z"/>
		<linearGradient id="SVGID_3_" gradientUnits="userSpaceOnUse" x1="164.1655" y1="137.4897" x2="158.896" y2="137.4897">
			<stop  offset="0" style="stop-color:#616161"/>
			<stop  offset="1" style="stop-color:#D1D1D1"/>
		</linearGradient>
		<path fill="url(#SVGID_3_)" d="M158.896,138.962h5.27c0,0-0.85-0.785-3.152-2.945L158.896,138.962z"/>
		<polygon fill="#8E8E8E" points="188.98,138.962 202.947,125.003 195.23,125.003 181.312,138.962 		"/>
		<polygon fill="#666666" points="188.98,138.962 188.98,143.046 190.083,143.046 202.947,130.14 202.947,125.003 		"/>
		<linearGradient id="SVGID_4_" gradientUnits="userSpaceOnUse" x1="193.5347" y1="131.7666" x2="175.7134" y2="100.8992">
			<stop  offset="0" style="stop-color:#424242"/>
			<stop  offset="1" style="stop-color:#D1D1D1"/>
		</linearGradient>
		<path fill="url(#SVGID_4_)" d="M184.423,137.027c0,0,13.641-14.377,15.432-16.355c1.791-1.98,7.916-11-1.584-19.834
			s-19.166-2.666-23.166,1.166c-4,3.834-14.092,14.305-14.092,14.305"/>
		<linearGradient id="SVGID_5_" gradientUnits="userSpaceOnUse" x1="188.8101" y1="126.1636" x2="157.519" y2="126.1636">
			<stop  offset="0" style="stop-color:#5C5C5C"/>
			<stop  offset="1" style="stop-color:#D1D1D1"/>
		</linearGradient>
		<circle fill="url(#SVGID_5_)" cx="173.165" cy="126.162" r="15.646"/>
		<linearGradient id="SVGID_6_" gradientUnits="userSpaceOnUse" x1="182.9058" y1="126.3394" x2="162.8433" y2="126.3394">
			<stop  offset="0" style="stop-color:#141414"/>
			<stop  offset="1" style="stop-color:#454545"/>
		</linearGradient>
		<circle fill="url(#SVGID_6_)" cx="172.875" cy="126.339" r="10.031"/>
		<circle cx="173.164" cy="126.162" r="3.125"/>
		<linearGradient id="SVGID_7_" gradientUnits="userSpaceOnUse" x1="151.2485" y1="122.6831" x2="69.1309" y2="-19.5489">
			<stop  offset="0" style="stop-color:#363636"/>
			<stop  offset="1" style="stop-color:#DEDEDE"/>
		</linearGradient>
		<path fill="url(#SVGID_7_)" d="M145.222,126.162c0,0,35.799-28.24,40.467-52.906c4.666-24.668-4.59-49.502-22.795-61.668
			C144.687-0.579,133.021,0.004,133.021,0.004L35.271,0l-22.25,24.699H107L145.222,126.162z"/>
		<linearGradient id="SVGID_8_" gradientUnits="userSpaceOnUse" x1="145.8013" y1="38.1855" x2="18.7237" y2="111.5538">
			<stop  offset="0" style="stop-color:#4A4A4A"/>
			<stop  offset="1" style="stop-color:#DEDEDE"/>
		</linearGradient>
		<path fill="url(#SVGID_8_)" d="M45.688,101.677c0,0,6.5,29.168,36.5,38.334s50.668-3.959,53.668-6.063
			s28.312-18.438,26.988-54.271c-1.322-35.832-37.822-52.334-43.322-53.666c-5.5-1.334-7.438-1.313-7.438-1.313H13.021v76.979
			H45.688z"/>
		<circle fill="#8C8C8C" cx="102.99" cy="84.685" r="45.486"/>
		<linearGradient id="SVGID_9_" gradientUnits="userSpaceOnUse" x1="71.772" y1="53.1123" x2="136.1" y2="117.4404">
			<stop  offset="0" style="stop-color:#B0B0B0"/>
			<stop  offset="0.1479" style="stop-color:#BDBDBD"/>
			<stop  offset="0.7164" style="stop-color:#EDEDED"/>
			<stop  offset="1" style="stop-color:#FFFFFF"/>
		</linearGradient>
		<circle fill="url(#SVGID_9_)" cx="103.935" cy="85.277" r="45.486"/>
		<circle fill="#7A7A7A" cx="103.839" cy="85.998" r="35.75"/>
		<linearGradient id="SVGID_10_" gradientUnits="userSpaceOnUse" x1="21.8301" y1="19.6138" x2="13.7183" y2="5.5637">
			<stop  offset="0" style="stop-color:#363636"/>
			<stop  offset="1" style="stop-color:#949494"/>
		</linearGradient>
		<polygon fill="url(#SVGID_10_)" points="13.021,24.699 35.271,0 23.355,0 0,24.699 		"/>
		<linearGradient id="SVGID_11_" gradientUnits="userSpaceOnUse" x1="110.0679" y1="62.8271" x2="61.1846" y2="-21.8412">
			<stop  offset="0" style="stop-color:#545454"/>
			<stop  offset="1" style="stop-color:#6B6B6B"/>
		</linearGradient>
		<path opacity="0.5" fill="url(#SVGID_11_)" d="M0,24.699h176.107c0,0-9.104-16.905-38.761-24.293c0,0-1.543-0.41-6.855-0.406
			S23.355,0,23.355,0L0,24.699z"/>
		<path fill="#2D2D2D" d="M140.548,85.273c0,20.223-16.393,36.615-36.613,36.615c-20.22,0-36.612-16.393-36.612-36.615
			c0-20.219,16.392-36.611,36.612-36.611C124.156,48.663,140.548,65.054,140.548,85.273z"/>

	</g>
	<g>
			<linearGradient id="SVGID_12_" gradientUnits="userSpaceOnUse" x1="115.3804" y1="79.6177" x2="136.4728" y2="91.7954">
				<stop  offset="0.0054" style="stop-color:#262626"/>
				<stop  offset="1" style="stop-color:#00E017"/>
			</linearGradient>
			<path fill="url(#SVGID_12_)" d="M135.621,78.126c0,0-14.49,7.042-22.924,6.14l-1.554,5.978c0,0,10.069,7.777,24.478,3.028V78.126
				z"/>

				<linearGradient id="SVGID_13_" gradientUnits="userSpaceOnUse" x1="221.2935" y1="49.1519" x2="242.3859" y2="61.3296" gradientTransform="matrix(0.4969 -0.8678 0.8678 0.4969 -48.1582 239.7732)">
				<stop  offset="0.0054" style="stop-color:#262626"/>
				<stop  offset="1" style="stop-color:#00E017"/>
			</linearGradient>
			<path fill="url(#SVGID_13_)" d="M113.22,53.853c0,0-1.09,16.075-6.063,22.944l4.414,4.321c0,0,11.752-4.875,14.793-19.737
				L113.22,53.853z"/>

				<linearGradient id="SVGID_14_" gradientUnits="userSpaceOnUse" x1="324.8638" y1="132.0923" x2="345.9562" y2="144.27" gradientTransform="matrix(-0.5052 -0.863 0.863 -0.5052 143.1798 425.3078)">
				<stop  offset="0.0054" style="stop-color:#262626"/>
				<stop  offset="1" style="stop-color:#00E017"/>
			</linearGradient>
			<path fill="url(#SVGID_14_)" d="M81.541,61.503c0,0,13.396,8.95,16.877,16.683l5.947-1.678c0,0,1.623-12.62-9.754-22.655
				L81.541,61.503z"/>

				<linearGradient id="SVGID_15_" gradientUnits="userSpaceOnUse" x1="227.7163" y1="64.6538" x2="248.8071" y2="76.8306" gradientTransform="matrix(-1 0.0053 -0.0053 -1 320.6219 154.8255)">
				<stop  offset="0.0054" style="stop-color:#262626"/>
				<stop  offset="1" style="stop-color:#00E017"/>
			</linearGradient>
			<path fill="url(#SVGID_15_)" d="M72.33,92.978c0,0,14.454-7.118,22.891-6.26l1.524-5.988c0,0-10.11-7.724-24.493-2.897
				L72.33,92.978z"/>

				<linearGradient id="SVGID_16_" gradientUnits="userSpaceOnUse" x1="215.9927" y1="-50.4233" x2="237.0826" y2="-38.2471" gradientTransform="matrix(-0.4997 0.8662 -0.8662 -0.4997 167.3231 -113.8674)">
				<stop  offset="0.0054" style="stop-color:#262626"/>
				<stop  offset="1" style="stop-color:#00E017"/>
			</linearGradient>
			<path fill="url(#SVGID_16_)" d="M94.25,116.698c0,0,1.141-16.07,6.135-22.923l-4.4-4.336c0,0-11.769,4.836-14.854,19.691
				L94.25,116.698z"/>

				<linearGradient id="SVGID_17_" gradientUnits="userSpaceOnUse" x1="293.4243" y1="-117.6216" x2="314.5151" y2="-105.4448" gradientTransform="matrix(0.4956 0.8686 -0.8686 0.4956 -132.5512 -104.222)">
				<stop  offset="0.0054" style="stop-color:#262626"/>
				<stop  offset="1" style="stop-color:#00E017"/>
			</linearGradient>
			<path fill="url(#SVGID_17_)" d="M126.364,109.194c0,0-13.299-9.1-16.693-16.869l-5.964,1.61c0,0-1.765,12.601,9.502,22.763
				L126.364,109.194z"/>
			<linearGradient id="SVGID_18_" gradientUnits="userSpaceOnUse" x1="98.6313" y1="93.9766" x2="108.5798" y2="76.7453">
				<stop  offset="0" style="stop-color:#A1A1A1"/>
				<stop  offset="1" style="stop-color:#E0E0E0"/>
			</linearGradient>
			<circle fill="url(#SVGID_18_)" cx="103.606" cy="85.361" r="9.947"/>
			<linearGradient id="SVGID_19_" gradientUnits="userSpaceOnUse" x1="99.2065" y1="92.9844" x2="108.0089" y2="77.7382">
				<stop  offset="0" style="stop-color:#5E5E5E"/>
				<stop  offset="1" style="stop-color:#ABABAB"/>
			</linearGradient>
			<circle fill="url(#SVGID_19_)" cx="103.607" cy="85.361" r="8.801"/>

		<animateTransform attributeName="transform" begin="0s" dur="2.5s" type="rotate" from="0 103.607 85.361" to="360 103.607 85.361" repeatCount="indefinite"/>
		</g>
	<g>
			<g>
				<path fill="#C9C9C9" d="M70.729,85.541c0-18.337,14.867-33.206,33.207-33.206l0,0c18.339,0,33.206,14.869,33.206,33.206l0,0
					c0,18.34-14.867,33.207-33.206,33.209l0,0C85.596,118.748,70.729,103.881,70.729,85.541L70.729,85.541z M80.926,62.533
					c-5.887,5.891-9.529,14.022-9.529,23.008l0,0c0,8.987,3.642,17.12,9.529,23.01l0,0c5.891,5.888,14.023,9.529,23.01,9.529l0,0
					c8.984,0,17.119-3.642,23.007-9.529l0,0c5.891-5.89,9.532-14.022,9.532-23.01l0,0c0-8.986-3.642-17.117-9.532-23.008l0,0
					c-5.888-5.889-14.022-9.53-23.007-9.53l0,0C94.949,53.003,86.817,56.644,80.926,62.533L80.926,62.533z"/>
			</g>
			<g>
				<path fill="#C9C9C9" d="M73.268,85.541c0.001-16.937,13.731-30.667,30.668-30.667l0,0c16.938,0,30.668,13.73,30.668,30.667l0,0
					c0,16.937-13.729,30.666-30.668,30.668l0,0C86.999,116.207,73.269,102.478,73.268,85.541L73.268,85.541z M82.724,64.328
					c-5.43,5.431-8.788,12.929-8.788,21.213l0,0c0,8.283,3.358,15.783,8.788,21.215l0,0c5.43,5.43,12.927,8.785,21.212,8.785l0,0
					c8.285,0,15.785-3.355,21.214-8.785l0,0c5.429-5.432,8.786-12.932,8.786-21.215l0,0c0-8.284-3.357-15.782-8.786-21.213l0,0
					c-5.429-5.429-12.929-8.786-21.214-8.786l0,0C95.65,55.542,88.153,58.899,82.724,64.328L82.724,64.328z"/>
			</g>
			<g>
				<path fill="#C9C9C9" d="M75.807,85.541c0-15.535,12.594-28.127,28.129-28.127l0,0c15.535,0,28.128,12.592,28.128,28.127l0,0
					c0,15.536-12.593,28.131-28.128,28.131l0,0C88.401,113.672,75.807,101.077,75.807,85.541L75.807,85.541z M84.519,66.124
					c-4.971,4.97-8.044,11.833-8.044,19.417l0,0c0,7.587,3.073,14.446,8.044,19.418l0,0c4.969,4.97,11.833,8.042,19.417,8.042l0,0
					c7.584,0,14.446-3.072,19.417-8.042l0,0c4.97-4.972,8.043-11.831,8.043-19.418l0,0c0-7.583-3.073-14.447-8.043-19.417l0,0
					c-4.971-4.969-11.833-8.043-19.417-8.043l0,0C96.352,58.081,89.488,61.155,84.519,66.124L84.519,66.124z"/>
			</g>
			<g>
				<path fill="#C9C9C9" d="M78.345,85.541c0.001-14.134,11.458-25.589,25.591-25.589l0,0c14.133,0,25.589,11.456,25.589,25.589l0,0
					c0,14.134-11.456,25.59-25.589,25.591l0,0C89.803,111.131,78.347,99.675,78.345,85.541L78.345,85.541z M86.313,67.919
					c-4.511,4.51-7.299,10.739-7.299,17.622l0,0c0,6.883,2.788,13.11,7.299,17.623l0,0c4.511,4.51,10.74,7.299,17.623,7.299l0,0
					c6.883,0,13.112-2.789,17.623-7.299l0,0c4.512-4.513,7.298-10.74,7.298-17.623l0,0c0-6.883-2.786-13.112-7.298-17.622l0,0
					c-4.511-4.511-10.74-7.3-17.623-7.3l0,0C97.053,60.619,90.825,63.408,86.313,67.919L86.313,67.919z"/>
			</g>
			<g>
				<path fill="#C9C9C9" d="M80.884,85.541c0.002-12.729,10.321-23.052,23.052-23.052l0,0c12.732,0,23.049,10.322,23.052,23.052l0,0
					c-0.003,12.732-10.319,23.052-23.052,23.052l0,0C91.205,108.593,80.886,98.273,80.884,85.541L80.884,85.541z M88.108,69.715
					c-4.051,4.052-6.555,9.646-6.555,15.826l0,0c0,6.182,2.504,11.775,6.555,15.828l0,0c4.051,4.052,9.646,6.556,15.828,6.556l0,0
					c6.183,0,11.774-2.504,15.827-6.556l0,0c4.051-4.053,6.555-9.646,6.555-15.828l0,0c0-6.181-2.504-11.774-6.555-15.826l0,0
					c-4.053-4.051-9.645-6.557-15.827-6.557l0,0C97.754,63.158,92.16,65.664,88.108,69.715L88.108,69.715z"/>
			</g>
			<g>
				<path fill="#C9C9C9" d="M83.424,85.541c0-11.328,9.184-20.511,20.512-20.511l0,0c11.327,0,20.512,9.184,20.512,20.511l0,0
					c0,11.329-9.185,20.511-20.512,20.511l0,0C92.608,106.052,83.424,96.87,83.424,85.541L83.424,85.541z M89.904,71.51
					c-3.591,3.592-5.813,8.551-5.813,14.031l0,0c0,5.482,2.221,10.441,5.813,14.033l0,0c3.593,3.592,8.551,5.812,14.032,5.812l0,0
					c5.482,0,10.44-2.22,14.033-5.812l0,0c3.59-3.592,5.809-8.551,5.809-14.033l0,0c0-5.48-2.219-10.439-5.809-14.031l0,0
					c-3.593-3.592-8.551-5.813-14.033-5.813l0,0C98.455,65.697,93.498,67.918,89.904,71.51L89.904,71.51z"/>
			</g>
			<g>
				<path fill="#C9C9C9" d="M85.962,85.541c0-9.926,8.047-17.974,17.974-17.974l0,0c9.924,0,17.974,8.048,17.974,17.974l0,0
					c0,9.927-8.05,17.973-17.974,17.973l0,0C94.009,103.514,85.962,95.468,85.962,85.541L85.962,85.541z M91.7,73.305
					c-3.133,3.134-5.069,7.458-5.069,12.236l0,0c0,4.778,1.936,9.104,5.069,12.236l0,0c3.133,3.132,7.456,5.067,12.236,5.067l0,0
					c4.78,0,9.105-1.936,12.236-5.067l0,0c3.131-3.133,5.069-7.458,5.069-12.236l0,0c0-4.778-1.938-9.102-5.069-12.236l0,0
					c-3.131-3.131-7.456-5.069-12.236-5.069l0,0C99.156,68.236,94.833,70.174,91.7,73.305L91.7,73.305z"/>
			</g>
			<g>
				<path fill="#C9C9C9" d="M88.501,85.541c0-8.524,6.91-15.433,15.435-15.433l0,0c8.522,0,15.434,6.909,15.434,15.433l0,0
					c0,8.525-6.911,15.434-15.434,15.434l0,0C95.411,100.975,88.501,94.066,88.501,85.541L88.501,85.541z M93.495,75.102
					c-2.673,2.67-4.325,6.36-4.325,10.439l0,0c0,4.079,1.652,7.768,4.325,10.441l0,0c2.672,2.674,6.364,4.324,10.441,4.324l0,0
					c4.078,0,7.768-1.65,10.44-4.324l0,0c2.674-2.674,4.327-6.362,4.327-10.441l0,0c0-4.079-1.653-7.769-4.327-10.439l0,0
					c-2.673-2.674-6.362-4.325-10.44-4.325l0,0C99.859,70.776,96.167,72.428,93.495,75.102L93.495,75.102z"/>
			</g>
			<g>
				<path fill="#C9C9C9" d="M91.04,85.541c0-7.121,5.775-12.895,12.896-12.896l0,0c7.122,0.001,12.895,5.775,12.895,12.896l0,0
					c0,7.123-5.772,12.896-12.895,12.897l0,0C96.814,98.437,91.04,92.664,91.04,85.541L91.04,85.541z M95.29,76.896
					c-2.212,2.214-3.581,5.269-3.581,8.645l0,0c0,3.378,1.368,6.434,3.581,8.646l0,0c2.215,2.214,5.27,3.58,8.646,3.58l0,0
					c3.378,0,6.434-1.366,8.646-3.58l0,0c2.212-2.213,3.581-5.269,3.581-8.646l0,0c0-3.375-1.369-6.43-3.581-8.645l0,0
					c-2.213-2.215-5.269-3.582-8.646-3.582l0,0C100.56,73.315,97.504,74.682,95.29,76.896L95.29,76.896z"/>
			</g>
			<g>
				<path fill="#C9C9C9" d="M93.58,85.541c0-5.719,4.637-10.356,10.356-10.356l0,0c5.718,0,10.356,4.638,10.356,10.356l0,0
					c0,5.721-4.639,10.357-10.356,10.357l0,0C98.217,95.898,93.581,91.262,93.58,85.541L93.58,85.541z M97.086,78.691
					c-1.755,1.754-2.839,4.175-2.839,6.85l0,0c0,2.677,1.084,5.095,2.839,6.852l0,0c1.752,1.754,4.173,2.838,6.85,2.838l0,0
					c2.677,0,5.096-1.084,6.852-2.838l0,0c1.753-1.757,2.837-4.175,2.837-6.852l0,0c0-2.675-1.084-5.095-2.837-6.85l0,0
					c-1.756-1.753-4.175-2.838-6.852-2.838l0,0C101.259,75.853,98.839,76.938,97.086,78.691L97.086,78.691z"/>
			</g>
			<g>
				<path fill="#C9C9C9" d="M96.119,85.541c0.001-4.318,3.501-7.819,7.817-7.819l0,0c4.316,0,7.816,3.501,7.816,7.819l0,0
					c0,4.317-3.5,7.816-7.816,7.818l0,0C99.62,93.357,96.12,89.858,96.119,85.541L96.119,85.541z"/>
			</g>
			<polygon fill="#D1D1D1" points="138.588,84.739 105.872,84.739 129.34,61.273 128.205,60.139 104.739,83.605 104.739,50.354
				103.134,50.354 103.134,83.605 79.999,60.47 78.864,61.604 102,84.739 69.281,84.739 69.281,86.342 102.001,86.342
				78.864,109.479 79.999,110.613 103.134,87.477 103.134,120.196 104.739,120.196 104.739,87.478 127.873,110.613 129.005,109.479
				105.872,86.342 138.588,86.342 			"/>
			<g>
				<path fill="#737373" d="M98.658,86.076c0-2.916,2.363-5.279,5.278-5.279l0,0c2.916,0,5.278,2.363,5.278,5.279l0,0
					c0,2.915-2.362,5.278-5.278,5.278l0,0C101.021,91.354,98.658,88.991,98.658,86.076L98.658,86.076z"/>
			</g>
			<g>
				<path fill="#C9C9C9" d="M98.658,85.541c0-2.914,2.363-5.277,5.278-5.277l0,0c2.916,0,5.278,2.363,5.278,5.277l0,0
					c0,2.915-2.362,5.28-5.278,5.281l0,0C101.021,90.821,98.658,88.456,98.658,85.541L98.658,85.541z"/>
			</g>
		</g>


</svg>
