<?xml version="1.0" encoding="utf-8"?>
<!-- Generator: Adobe Illustrator 16.0.0, SVG Export Plug-In . SVG Version: 6.00 Build 0)  -->
<!DOCTYPE svg PUBLIC "-//W3C//DTD SVG 1.1//EN" "http://www.w3.org/Graphics/SVG/1.1/DTD/svg11.dtd" [
	<!ENTITY ns_extend "http://ns.adobe.com/Extensibility/1.0/">
	<!ENTITY ns_ai "http://ns.adobe.com/AdobeIllustrator/10.0/">
	<!ENTITY ns_graphs "http://ns.adobe.com/Graphs/1.0/">
	<!ENTITY ns_vars "http://ns.adobe.com/Variables/1.0/">
	<!ENTITY ns_imrep "http://ns.adobe.com/ImageReplacement/1.0/">
	<!ENTITY ns_sfw "http://ns.adobe.com/SaveForWeb/1.0/">
	<!ENTITY ns_custom "http://ns.adobe.com/GenericCustomNamespace/1.0/">
	<!ENTITY ns_adobe_xpath "http://ns.adobe.com/XPath/1.0/">
]>
<svg version="1.1" id="图层_1" xmlns:x="&ns_extend;" xmlns:i="&ns_ai;" xmlns:graph="&ns_graphs;"
	 xmlns="http://www.w3.org/2000/svg" xmlns:xlink="http://www.w3.org/1999/xlink" x="0px" y="0px" width="213.099px"
	 height="142.706px" viewBox="0 0 213.099 142.706" enable-background="new 0 0 213.099 142.706" xml:space="preserve">

	<g i:extraneous="self">
		<path fill="#444444" d="M135.413,118.298l17.623-16.924h-9.645C143.391,101.374,142.057,109.149,135.413,118.298z"/>
		<linearGradient id="SVGID_1_" gradientUnits="userSpaceOnUse" x1="33.8979" y1="122.5186" x2="33.8979" y2="138.6572">
			<stop  offset="0" style="stop-color:#616161"/>
			<stop  offset="1" style="stop-color:#D1D1D1"/>
		</linearGradient>
		<path fill="url(#SVGID_1_)" d="M27.06,136.282l-2.82,2.375h6.859l12.458-12.596c0,0-2.822-2.125-3.307-3.459
			S27.06,136.282,27.06,136.282z"/>
		<linearGradient id="SVGID_2_" gradientUnits="userSpaceOnUse" x1="21.4736" y1="96.3506" x2="21.4736" y2="136.2822">
			<stop  offset="0" style="stop-color:#616161"/>
			<stop  offset="1" style="stop-color:#D1D1D1"/>
		</linearGradient>
		<path fill="url(#SVGID_2_)" d="M2.697,116.797c0,0,18.365-22.319,24.053-20.319c0,0,4.875,17.75,13.5,26.125l-13.192,13.68"/>
		<linearGradient id="SVGID_3_" gradientUnits="userSpaceOnUse" x1="0" y1="125.5811" x2="31.292" y2="125.5811">
			<stop  offset="0" style="stop-color:#5C5C5C"/>
			<stop  offset="1" style="stop-color:#D1D1D1"/>
		</linearGradient>
		<circle fill="url(#SVGID_3_)" cx="15.646" cy="125.581" r="15.646"/>
		<linearGradient id="SVGID_4_" gradientUnits="userSpaceOnUse" x1="10.3408" y1="134.4482" x2="20.3738" y2="117.0706">
			<stop  offset="0" style="stop-color:#141414"/>
			<stop  offset="1" style="stop-color:#454545"/>
		</linearGradient>
		<circle fill="url(#SVGID_4_)" cx="15.356" cy="125.759" r="10.031"/>
		<circle cx="15.646" cy="125.581" r="3.125"/>
		<linearGradient id="SVGID_5_" gradientUnits="userSpaceOnUse" x1="31.0986" y1="139.1963" x2="1.0361" y2="139.1963">
			<stop  offset="0" style="stop-color:#FFFFFF"/>
			<stop  offset="1" style="stop-color:#C9C9C9"/>
		</linearGradient>
		<path fill="url(#SVGID_5_)" d="M1.036,138.657l2.754-2.867c0,0,5.051,5.536,11.242,5.424c6.191-0.111,9.208-2.557,9.208-2.557
			h6.858v3.945H1.036V138.657z"/>
		<path fill="#666666" d="M31.099,138.647l12.458-12.598c0,0,1.979,2.511,2.698,2.979l-13.938,13.563h-1.219V138.647z"/>
		<path fill="#CDCDCD" d="M3.79,135.79l-2.754,2.867l6.169-0.035C7.205,138.622,5.067,137.224,3.79,135.79z"/>
		<linearGradient id="SVGID_6_" gradientUnits="userSpaceOnUse" x1="25.2915" y1="71.3408" x2="200.0571" y2="71.3408">
			<stop  offset="0" style="stop-color:#878787"/>
			<stop  offset="1" style="stop-color:#DEDEDE"/>
		</linearGradient>
		<path fill="url(#SVGID_6_)" d="M25.388,83.18c0,0-3.039,29,25.086,49s63.5,6.125,71.125,0s18.292-15.874,21.792-30.812h32.5V24.68
			l24.166-24.583h-96.501c0,0-14.998-0.667-30.166,11.833C58.224,24.43,26.719,47.263,25.388,83.18z"/>
		<circle fill="#8C8C8C" cx="85.737" cy="83.452" r="45.487"/>
		<linearGradient id="SVGID_7_" gradientUnits="userSpaceOnUse" x1="54.5186" y1="51.8784" x2="118.8473" y2="116.2072">
			<stop  offset="0" style="stop-color:#B0B0B0"/>
			<stop  offset="0.1479" style="stop-color:#BDBDBD"/>
			<stop  offset="0.7164" style="stop-color:#EDEDED"/>
			<stop  offset="1" style="stop-color:#FFFFFF"/>
		</linearGradient>
		<circle fill="url(#SVGID_7_)" cx="86.682" cy="84.043" r="45.487"/>
		<circle fill="#7A7A7A" cx="86.585" cy="84.765" r="35.75"/>
		<linearGradient id="SVGID_8_" gradientUnits="userSpaceOnUse" x1="182.2036" y1="24.7842" x2="182.2036" y2="142.7065">
			<stop  offset="0" style="stop-color:#616161"/>
			<stop  offset="1" style="stop-color:#ABABAB"/>
		</linearGradient>
		<rect x="175.788" y="24.784" fill="url(#SVGID_8_)" width="12.832" height="117.922"/>
		<linearGradient id="SVGID_9_" gradientUnits="userSpaceOnUse" x1="194.2769" y1="0.0967" x2="194.2769" y2="24.7842">
			<stop  offset="0" style="stop-color:#616161"/>
			<stop  offset="1" style="stop-color:#ABABAB"/>
		</linearGradient>
		<polygon fill="url(#SVGID_9_)" points="175.788,24.784 200.057,0.097 212.766,0.097 188.975,24.784 		"/>
		<linearGradient id="SVGID_10_" gradientUnits="userSpaceOnUse" x1="167.3452" y1="130.3633" x2="235.1334" y2="12.9507">
			<stop  offset="0" style="stop-color:#696969"/>
			<stop  offset="1" style="stop-color:#696969"/>
		</linearGradient>
		<polygon fill="url(#SVGID_10_)" points="188.975,24.724 188.62,142.646 213.098,119.292 212.766,0.036 		"/>
		<linearGradient id="SVGID_11_" gradientUnits="userSpaceOnUse" x1="189.8462" y1="97.9111" x2="203.5269" y2="74.2155">
			<stop  offset="0" style="stop-color:#1C1C1C"/>
			<stop  offset="1" style="stop-color:#4A4A4A"/>
		</linearGradient>
		<polygon fill="url(#SVGID_11_)" points="190.975,78.563 190.975,98.563 211.057,78.563 		"/>
		<linearGradient id="SVGID_12_" gradientUnits="userSpaceOnUse" x1="190.9751" y1="42.5854" x2="211.0571" y2="42.5854">
			<stop  offset="0" style="stop-color:#0D0D0D"/>
			<stop  offset="1" style="stop-color:#4A4A4A"/>
		</linearGradient>
		<polygon fill="url(#SVGID_12_)" points="190.975,78.563 211.057,78.563 211.057,6.608 190.975,26.664 		"/>
		<path opacity="0.5" fill="#878787" d="M57.983,24.784h154.783V0.036H106.099c0,0-12.958-0.99-26.521,7.385
			C73.345,11.271,64.506,19.286,57.983,24.784z"/>
		<path fill="#2D2D2D" d="M123.294,84.04c0,20.223-16.393,36.615-36.613,36.615c-20.22,0-36.612-16.393-36.612-36.615
			c0-20.219,16.392-36.611,36.612-36.611C106.902,47.429,123.294,63.821,123.294,84.04z"/>

	</g>
		<g>
			<linearGradient id="SVGID_13_" gradientUnits="userSpaceOnUse" x1="98.1265" y1="78.3843" x2="119.2189" y2="90.562">
				<stop  offset="0.0054" style="stop-color:#262626"/>
				<stop  offset="1" style="stop-color:#00E017"/>
			</linearGradient>
			<path fill="url(#SVGID_13_)" d="M118.367,76.893c0,0-14.49,7.042-22.924,6.14l-1.554,5.978c0,0,10.069,7.777,24.478,3.028V76.893
				z"/>

				<linearGradient id="SVGID_14_" gradientUnits="userSpaceOnUse" x1="118.5601" y1="43.7437" x2="139.6525" y2="55.9214" gradientTransform="matrix(0.4969 -0.8678 0.8678 0.4969 -9.6714 152.0754)">
				<stop  offset="0.0054" style="stop-color:#262626"/>
				<stop  offset="1" style="stop-color:#00E017"/>
			</linearGradient>
			<path fill="url(#SVGID_14_)" d="M95.966,52.62c0,0-1.09,16.075-6.063,22.944l4.414,4.321c0,0,11.752-4.875,14.793-19.737
				L95.966,52.62z"/>

				<linearGradient id="SVGID_15_" gradientUnits="userSpaceOnUse" x1="183.2739" y1="50.5269" x2="204.3664" y2="62.7046" gradientTransform="matrix(-0.5052 -0.863 0.863 -0.5052 124.7858 260.676)">
				<stop  offset="0.0054" style="stop-color:#262626"/>
				<stop  offset="1" style="stop-color:#00E017"/>
			</linearGradient>
			<path fill="url(#SVGID_15_)" d="M64.287,60.27c0,0,13.396,8.95,16.877,16.683l5.947-1.678c0,0,1.623-12.62-9.754-22.655
				L64.287,60.27z"/>

				<linearGradient id="SVGID_16_" gradientUnits="userSpaceOnUse" x1="132.5874" y1="-88.4038" x2="153.679" y2="-76.2266" gradientTransform="matrix(-1 0.0053 -0.0053 -1 207.4285 1.0385)">
				<stop  offset="0.0054" style="stop-color:#262626"/>
				<stop  offset="1" style="stop-color:#00E017"/>
			</linearGradient>
			<path fill="url(#SVGID_16_)" d="M55.076,91.744c0,0,14.454-7.118,22.891-6.26l1.524-5.988c0,0-10.11-7.724-24.493-2.897
				L55.076,91.744z"/>

				<linearGradient id="SVGID_17_" gradientUnits="userSpaceOnUse" x1="205.7085" y1="-199.25" x2="226.7984" y2="-187.0737" gradientTransform="matrix(-0.4997 0.8662 -0.8662 -0.4997 16.0165 -180.5615)">
				<stop  offset="0.0054" style="stop-color:#262626"/>
				<stop  offset="1" style="stop-color:#00E017"/>
			</linearGradient>
			<path fill="url(#SVGID_17_)" d="M76.996,115.465c0,0,1.141-16.07,6.135-22.923l-4.4-4.336c0,0-11.769,4.836-14.854,19.691
				L76.996,115.465z"/>

				<linearGradient id="SVGID_18_" gradientUnits="userSpaceOnUse" x1="322.27" y1="-191.0894" x2="343.3608" y2="-178.9126" gradientTransform="matrix(0.4956 0.8686 -0.8686 0.4956 -227.9152 -94.0999)">
				<stop  offset="0.0054" style="stop-color:#262626"/>
				<stop  offset="1" style="stop-color:#00E017"/>
			</linearGradient>
			<path fill="url(#SVGID_18_)" d="M109.11,107.961c0,0-13.299-9.1-16.693-16.869l-5.964,1.61c0,0-1.765,12.601,9.502,22.763
				L109.11,107.961z"/>
			<linearGradient id="SVGID_19_" gradientUnits="userSpaceOnUse" x1="81.3784" y1="92.7432" x2="91.3269" y2="75.5119">
				<stop  offset="0" style="stop-color:#A1A1A1"/>
				<stop  offset="1" style="stop-color:#E0E0E0"/>
			</linearGradient>
			<circle fill="url(#SVGID_19_)" cx="86.352" cy="84.128" r="9.947"/>
			<linearGradient id="SVGID_20_" gradientUnits="userSpaceOnUse" x1="81.9517" y1="91.75" x2="90.754" y2="76.5039">
				<stop  offset="0" style="stop-color:#5E5E5E"/>
				<stop  offset="1" style="stop-color:#ABABAB"/>
			</linearGradient>
			<circle fill="url(#SVGID_20_)" cx="86.353" cy="84.128" r="8.801"/>
			<animateTransform attributeName="transform" begin="0s" dur="2.5s" type="rotate" from="0 86.353 85.361" to="360 86.353 84.128" repeatCount="indefinite"/>

		</g>
		<g>
			<g>
				<path fill="#C9C9C9" d="M53.475,84.308c0-18.337,14.867-33.206,33.207-33.206l0,0c18.339,0,33.206,14.869,33.206,33.206l0,0
					c0,18.34-14.867,33.207-33.206,33.209l0,0C68.342,117.515,53.476,102.647,53.475,84.308L53.475,84.308z M63.672,61.299
					c-5.887,5.891-9.529,14.022-9.529,23.008l0,0c0,8.987,3.642,17.12,9.529,23.01l0,0c5.891,5.888,14.023,9.529,23.01,9.529l0,0
					c8.984,0,17.119-3.642,23.007-9.529l0,0c5.891-5.89,9.532-14.022,9.532-23.01l0,0c0-8.986-3.642-17.117-9.532-23.008l0,0
					c-5.888-5.889-14.022-9.53-23.007-9.53l0,0C77.695,51.77,69.563,55.41,63.672,61.299L63.672,61.299z"/>
			</g>
			<g>
				<path fill="#C9C9C9" d="M56.014,84.308C56.015,67.371,69.745,53.64,86.682,53.64l0,0c16.938,0,30.668,13.73,30.668,30.667l0,0
					c0,16.937-13.729,30.666-30.668,30.668l0,0C69.745,114.974,56.015,101.244,56.014,84.308L56.014,84.308z M65.47,63.095
					c-5.43,5.431-8.788,12.929-8.788,21.213l0,0c0,8.283,3.358,15.783,8.788,21.215l0,0c5.43,5.43,12.927,8.785,21.212,8.785l0,0
					c8.285,0,15.785-3.355,21.214-8.785l0,0c5.429-5.432,8.786-12.932,8.786-21.215l0,0c0-8.284-3.357-15.782-8.786-21.213l0,0
					c-5.429-5.429-12.929-8.786-21.214-8.786l0,0C78.396,54.309,70.899,57.666,65.47,63.095L65.47,63.095z"/>
			</g>
			<g>
				<path fill="#C9C9C9" d="M58.553,84.308c0-15.535,12.594-28.127,28.129-28.127l0,0c15.535,0,28.128,12.592,28.128,28.127l0,0
					c0,15.536-12.593,28.131-28.128,28.131l0,0C71.147,112.438,58.553,99.844,58.553,84.308L58.553,84.308z M67.265,64.891
					c-4.971,4.97-8.044,11.833-8.044,19.417l0,0c0,7.587,3.073,14.446,8.044,19.418l0,0c4.969,4.97,11.833,8.042,19.417,8.042l0,0
					c7.584,0,14.446-3.072,19.417-8.042l0,0c4.97-4.972,8.043-11.831,8.043-19.418l0,0c0-7.583-3.073-14.447-8.043-19.417l0,0
					c-4.971-4.969-11.833-8.043-19.417-8.043l0,0C79.098,56.848,72.234,59.921,67.265,64.891L67.265,64.891z"/>
			</g>
			<g>
				<path fill="#C9C9C9" d="M61.091,84.308c0.001-14.134,11.458-25.589,25.591-25.589l0,0c14.133,0,25.589,11.456,25.589,25.589l0,0
					c0,14.134-11.456,25.59-25.589,25.591l0,0C72.549,109.897,61.093,98.441,61.091,84.308L61.091,84.308z M69.06,66.686
					c-4.511,4.51-7.299,10.739-7.299,17.622l0,0c0,6.883,2.788,13.11,7.299,17.623l0,0c4.511,4.51,10.74,7.299,17.623,7.299l0,0
					c6.883,0,13.112-2.789,17.623-7.299l0,0c4.512-4.513,7.298-10.74,7.298-17.623l0,0c0-6.883-2.786-13.112-7.298-17.622l0,0
					c-4.511-4.511-10.74-7.3-17.623-7.3l0,0C79.799,59.386,73.571,62.174,69.06,66.686L69.06,66.686z"/>
			</g>
			<g>
				<path fill="#C9C9C9" d="M63.63,84.308c0.002-12.729,10.321-23.052,23.052-23.052l0,0c12.732,0,23.049,10.322,23.052,23.052l0,0
					c-0.003,12.732-10.319,23.052-23.052,23.052l0,0C73.951,107.359,63.632,97.04,63.63,84.308L63.63,84.308z M70.854,68.481
					c-4.051,4.052-6.555,9.646-6.555,15.826l0,0c0,6.182,2.504,11.775,6.555,15.828l0,0c4.051,4.052,9.646,6.556,15.828,6.556l0,0
					c6.183,0,11.774-2.504,15.827-6.556l0,0c4.051-4.053,6.555-9.646,6.555-15.828l0,0c0-6.181-2.504-11.774-6.555-15.826l0,0
					c-4.053-4.051-9.645-6.557-15.827-6.557l0,0C80.5,61.925,74.906,64.431,70.854,68.481L70.854,68.481z"/>
			</g>
			<g>
				<path fill="#C9C9C9" d="M66.17,84.308c0-11.328,9.184-20.511,20.512-20.511l0,0c11.327,0,20.512,9.184,20.512,20.511l0,0
					c0,11.329-9.185,20.511-20.512,20.511l0,0C75.354,104.818,66.17,95.637,66.17,84.308L66.17,84.308z M72.65,70.276
					c-3.591,3.592-5.813,8.551-5.813,14.031l0,0c0,5.482,2.221,10.441,5.813,14.033l0,0c3.593,3.592,8.551,5.812,14.032,5.812l0,0
					c5.482,0,10.44-2.22,14.033-5.812l0,0c3.59-3.592,5.809-8.551,5.809-14.033l0,0c0-5.48-2.219-10.439-5.809-14.031l0,0
					c-3.593-3.592-8.551-5.813-14.033-5.813l0,0C81.201,64.463,76.244,66.685,72.65,70.276L72.65,70.276z"/>
			</g>
			<g>
				<path fill="#C9C9C9" d="M68.708,84.308c0-9.926,8.047-17.974,17.974-17.974l0,0c9.924,0,17.974,8.048,17.974,17.974l0,0
					c0,9.927-8.05,17.973-17.974,17.973l0,0C76.755,102.28,68.708,94.234,68.708,84.308L68.708,84.308z M74.446,72.071
					c-3.133,3.134-5.069,7.458-5.069,12.236l0,0c0,4.778,1.936,9.104,5.069,12.236l0,0c3.133,3.132,7.456,5.067,12.236,5.067l0,0
					c4.78,0,9.105-1.936,12.236-5.067l0,0c3.131-3.133,5.069-7.458,5.069-12.236l0,0c0-4.778-1.938-9.102-5.069-12.236l0,0
					c-3.131-3.131-7.456-5.069-12.236-5.069l0,0C81.902,67.002,77.579,68.94,74.446,72.071L74.446,72.071z"/>
			</g>
			<g>
				<path fill="#C9C9C9" d="M71.248,84.308c0-8.524,6.91-15.433,15.435-15.433l0,0c8.522,0,15.434,6.909,15.434,15.433l0,0
					c0,8.525-6.911,15.434-15.434,15.434l0,0C78.157,99.741,71.248,92.833,71.248,84.308L71.248,84.308z M76.241,73.868
					c-2.673,2.67-4.325,6.36-4.325,10.439l0,0c0,4.079,1.652,7.768,4.325,10.441l0,0c2.672,2.674,6.364,4.324,10.441,4.324l0,0
					c4.078,0,7.768-1.65,10.44-4.324l0,0c2.674-2.674,4.327-6.362,4.327-10.441l0,0c0-4.079-1.653-7.769-4.327-10.439l0,0
					c-2.673-2.674-6.362-4.325-10.44-4.325l0,0C82.605,69.543,78.914,71.194,76.241,73.868L76.241,73.868z"/>
			</g>
			<g>
				<path fill="#C9C9C9" d="M73.786,84.308c0-7.121,5.775-12.895,12.896-12.896l0,0c7.122,0.001,12.895,5.775,12.895,12.896l0,0
					c0,7.123-5.772,12.896-12.895,12.897l0,0C79.561,97.203,73.786,91.431,73.786,84.308L73.786,84.308z M78.036,75.663
					c-2.212,2.214-3.581,5.269-3.581,8.645l0,0c0,3.378,1.368,6.434,3.581,8.646l0,0c2.215,2.214,5.27,3.58,8.646,3.58l0,0
					c3.378,0,6.434-1.366,8.646-3.58l0,0c2.212-2.213,3.581-5.269,3.581-8.646l0,0c0-3.375-1.369-6.43-3.581-8.645l0,0
					c-2.213-2.215-5.269-3.582-8.646-3.582l0,0C83.306,72.082,80.25,73.448,78.036,75.663L78.036,75.663z"/>
			</g>
			<g>
				<path fill="#C9C9C9" d="M76.326,84.308c0-5.719,4.637-10.356,10.356-10.356l0,0c5.718,0,10.356,4.638,10.356,10.356l0,0
					c0,5.721-4.639,10.357-10.356,10.357l0,0C80.963,94.665,76.327,90.028,76.326,84.308L76.326,84.308z M79.833,77.458
					c-1.755,1.754-2.839,4.175-2.839,6.85l0,0c0,2.677,1.084,5.095,2.839,6.852l0,0c1.752,1.754,4.173,2.838,6.85,2.838l0,0
					c2.677,0,5.096-1.084,6.852-2.838l0,0c1.753-1.757,2.837-4.175,2.837-6.852l0,0c0-2.675-1.084-5.095-2.837-6.85l0,0
					c-1.756-1.753-4.175-2.838-6.852-2.838l0,0C84.005,74.62,81.585,75.705,79.833,77.458L79.833,77.458z"/>
			</g>
			<g>
				<path fill="#C9C9C9" d="M78.865,84.308c0.001-4.318,3.501-7.819,7.817-7.819l0,0c4.316,0,7.816,3.501,7.816,7.819l0,0
					c0,4.317-3.5,7.816-7.816,7.818l0,0C82.366,92.124,78.866,88.625,78.865,84.308L78.865,84.308z"/>
			</g>
			<polygon fill="#D1D1D1" points="121.334,83.506 88.618,83.506 112.086,60.04 110.951,58.905 87.485,82.372 87.485,49.121
				85.88,49.121 85.88,82.372 62.745,59.236 61.61,60.37 84.746,83.506 52.027,83.506 52.027,85.108 84.748,85.108 61.61,108.245
				62.745,109.38 85.88,86.243 85.88,118.963 87.485,118.963 87.485,86.244 110.619,109.38 111.751,108.245 88.618,85.108
				121.334,85.108 			"/>
			<g>
				<path fill="#737373" d="M81.404,84.843c0-2.916,2.363-5.279,5.278-5.279l0,0c2.916,0,5.278,2.363,5.278,5.279l0,0
					c0,2.915-2.362,5.278-5.278,5.278l0,0C83.767,90.121,81.404,87.758,81.404,84.843L81.404,84.843z"/>
			</g>
			<g>
				<path fill="#C9C9C9" d="M81.404,84.308c0-2.914,2.363-5.277,5.278-5.277l0,0c2.916,0,5.278,2.363,5.278,5.277l0,0
					c0,2.915-2.362,5.28-5.278,5.281l0,0C83.767,89.588,81.404,87.223,81.404,84.308L81.404,84.308z"/>
			</g>
		</g>


</svg>
