<?xml version="1.0" encoding="utf-8"?>
<!-- Generator: Adobe Illustrator 16.0.0, SVG Export Plug-In . SVG Version: 6.00 Build 0)  -->
<!DOCTYPE svg PUBLIC "-//W3C//DTD SVG 1.1//EN" "http://www.w3.org/Graphics/SVG/1.1/DTD/svg11.dtd" [
		<!ENTITY ns_extend "http://ns.adobe.com/Extensibility/1.0/">
		<!ENTITY ns_ai "http://ns.adobe.com/AdobeIllustrator/10.0/">
		<!ENTITY ns_graphs "http://ns.adobe.com/Graphs/1.0/">
		<!ENTITY ns_vars "http://ns.adobe.com/Variables/1.0/">
		<!ENTITY ns_imrep "http://ns.adobe.com/ImageReplacement/1.0/">
		<!ENTITY ns_sfw "http://ns.adobe.com/SaveForWeb/1.0/">
		<!ENTITY ns_custom "http://ns.adobe.com/GenericCustomNamespace/1.0/">
		<!ENTITY ns_adobe_xpath "http://ns.adobe.com/XPath/1.0/">
		]>
<svg version="1.1" id="图层_1" xmlns:x="&ns_extend;" xmlns:i="&ns_ai;" xmlns:graph="&ns_graphs;"
	 xmlns="http://www.w3.org/2000/svg" xmlns:xlink="http://www.w3.org/1999/xlink" x="0px" y="0px" width="151.372px"
	 height="151.373px" viewBox="0 0 151.372 151.373" enable-background="new 0 0 151.372 151.373" xml:space="preserve">

	<g i:extraneous="self">
		<circle fill="#2D2D2D" cx="75.686" cy="75.685" r="75.686"/>
		<linearGradient id="SVGID_1_" gradientUnits="userSpaceOnUse" x1="99.3862" y1="63.9717" x2="143.0588" y2="89.186">
			<stop  offset="0.0054" style="stop-color:#262626"/>
			<stop  offset="1" style="stop-color:#F80D00"/>
		</linearGradient>
		<path fill="url(#SVGID_1_)" d="M141.293,60.882c0,0-30.001,14.581-47.463,12.714l-3.222,12.376c0,0,20.851,16.103,50.685,6.273
			V60.882z"/>

			<linearGradient id="SVGID_2_" gradientUnits="userSpaceOnUse" x1="141.0625" y1="-112.1055" x2="184.7325" y2="-86.8926" gradientTransform="matrix(0.4969 -0.8678 0.8678 0.4969 103.9575 226.6446)">
			<stop  offset="0.0054" style="stop-color:#262626"/>
			<stop  offset="1" style="stop-color:#F80D00"/>
		</linearGradient>
		<path fill="url(#SVGID_2_)" d="M94.911,10.623c0,0-2.261,33.281-12.555,47.505l9.138,8.947c0,0,24.335-10.092,30.629-40.867
			L94.911,10.623z"/>

			<linearGradient id="SVGID_3_" gradientUnits="userSpaceOnUse" x1="338.374" y1="-156.9014" x2="382.0457" y2="-131.6875" gradientTransform="matrix(-0.5052 -0.863 0.863 -0.5052 359.506 273.8204)">
			<stop  offset="0.0054" style="stop-color:#262626"/>
			<stop  offset="1" style="stop-color:#F80D00"/>
		</linearGradient>
		<path fill="url(#SVGID_3_)" d="M29.314,26.462c0,0,27.741,18.531,34.948,34.543l12.313-3.473c0,0,3.361-26.131-20.195-46.909
			L29.314,26.462z"/>

			<linearGradient id="SVGID_4_" gradientUnits="userSpaceOnUse" x1="398.3252" y1="-207.2446" x2="441.996" y2="-182.0313" gradientTransform="matrix(-1 0.0053 -0.0053 -1 449.3635 -121.0352)">
			<stop  offset="0.0054" style="stop-color:#262626"/>
			<stop  offset="1" style="stop-color:#F80D00"/>
		</linearGradient>
		<path fill="url(#SVGID_4_)" d="M10.244,91.634c0,0,29.926-14.74,47.396-12.965l3.158-12.396c0,0-20.938-15.991-50.719-5.999
			L10.244,91.634z"/>

			<linearGradient id="SVGID_5_" gradientUnits="userSpaceOnUse" x1="450.8643" y1="-177.9146" x2="494.5359" y2="-152.7007" gradientTransform="matrix(-0.4997 0.8662 -0.8662 -0.4997 145.0807 -376.5385)">
			<stop  offset="0.0054" style="stop-color:#262626"/>
			<stop  offset="1" style="stop-color:#F80D00"/>
		</linearGradient>
		<path fill="url(#SVGID_5_)" d="M55.629,140.749c0,0,2.364-33.274,12.706-47.467l-9.114-8.976c0,0-24.367,10.017-30.754,40.772
			L55.629,140.749z"/>

			<linearGradient id="SVGID_6_" gradientUnits="userSpaceOnUse" x1="435.8672" y1="-117.6719" x2="479.538" y2="-92.4585" gradientTransform="matrix(0.4956 0.8686 -0.8686 0.4956 -219.5557 -229.9371)">
			<stop  offset="0.0054" style="stop-color:#262626"/>
			<stop  offset="1" style="stop-color:#F80D00"/>
		</linearGradient>
		<path fill="url(#SVGID_6_)" d="M122.123,125.21c0,0-27.53-18.836-34.563-34.928l-12.349,3.334c0,0-3.655,26.091,19.676,47.133
			L122.123,125.21z"/>
		<linearGradient id="SVGID_7_" gradientUnits="userSpaceOnUse" x1="64.7065" y1="93.7012" x2="85.3064" y2="58.0212">
			<stop  offset="0" style="stop-color:#A1A1A1"/>
			<stop  offset="1" style="stop-color:#E0E0E0"/>
		</linearGradient>
		<circle fill="url(#SVGID_7_)" cx="75.006" cy="75.86" r="20.597"/>
		<linearGradient id="SVGID_8_" gradientUnits="userSpaceOnUse" x1="65.8916" y1="91.6455" x2="84.1173" y2="60.0777">
			<stop  offset="0" style="stop-color:#5E5E5E"/>
			<stop  offset="1" style="stop-color:#ABABAB"/>
		</linearGradient>
		<circle fill="url(#SVGID_8_)" cx="75.004" cy="75.86" r="18.223"/>
		 <animateTransform attributeName="transform" begin="0s" dur="2.5s" type="rotate" from="0 76 76" to="360 76 76" repeatCount="indefinite"/>

	</g>
<g>
	<g>
			<path fill="#C9C9C9" d="M7.04,76.237C7.042,38.328,37.773,7.592,75.688,7.592l0,0c37.911,0,68.646,30.736,68.646,68.646l0,0
				c0,37.911-30.734,68.646-68.646,68.649l0,0C37.773,144.883,7.042,114.148,7.04,76.237L7.04,76.237z M28.121,28.674
				C15.951,40.851,8.422,57.661,8.422,76.237l0,0c0,18.579,7.529,35.389,19.699,47.564l0,0c12.178,12.171,28.987,19.7,47.566,19.7
				l0,0c18.574,0,35.388-7.529,47.562-19.7l0,0c12.174-12.176,19.701-28.985,19.703-47.564l0,0
				c-0.002-18.576-7.529-35.387-19.703-47.563l0,0C111.075,16.5,94.262,8.973,75.688,8.973l0,0
				C57.108,8.973,40.299,16.5,28.121,28.674L28.121,28.674z"/>
		</g>
		<g>
			<path fill="#C9C9C9" d="M12.288,76.237C12.29,41.225,40.672,12.84,75.688,12.84l0,0c35.013,0,63.395,28.384,63.395,63.397l0,0
				c0,35.013-28.382,63.396-63.395,63.397l0,0C40.672,139.633,12.29,111.25,12.288,76.237L12.288,76.237z M31.836,32.385
				C20.611,43.61,13.671,59.111,13.671,76.237l0,0c0,17.124,6.94,32.628,18.165,43.854l0,0
				c11.224,11.226,26.723,18.161,43.852,18.161l0,0c17.128,0,32.627-6.936,43.851-18.161l0,0
				c11.225-11.226,18.165-26.729,18.165-43.854l0,0c0-17.126-6.94-32.627-18.165-43.853l0,0
				c-11.224-11.223-26.723-18.162-43.851-18.162l0,0C58.559,14.223,43.06,21.162,31.836,32.385L31.836,32.385z"/>
		</g>
		<g>
			<path fill="#C9C9C9" d="M17.538,76.237c0-32.114,26.034-58.146,58.149-58.146l0,0c32.114,0,58.146,26.032,58.146,58.146l0,0
				c0,32.114-26.032,58.15-58.146,58.15l0,0C43.572,134.388,17.538,108.352,17.538,76.237L17.538,76.237z M35.547,36.098
				C25.272,46.371,18.919,60.56,18.919,76.237l0,0c0,15.681,6.354,29.864,16.628,40.139l0,0
				c10.272,10.276,24.462,16.626,40.141,16.628l0,0c15.678-0.002,29.865-6.352,40.14-16.628l0,0
				c10.274-10.274,16.628-24.458,16.628-40.139l0,0c0-15.678-6.354-29.866-16.628-40.14l0,0
				C105.553,25.824,91.365,19.47,75.688,19.47l0,0C60.009,19.47,45.819,25.824,35.547,36.098L35.547,36.098z"/>
		</g>
		<g>
			<path fill="#C9C9C9" d="M22.785,76.235c0.004-29.216,23.686-52.897,52.902-52.897l0,0c29.214,0,52.897,23.682,52.899,52.897l0,0
				c-0.002,29.218-23.686,52.899-52.899,52.904l0,0C46.471,129.135,22.789,105.453,22.785,76.235L22.785,76.235z M39.258,39.809
				c-9.325,9.322-15.09,22.201-15.09,36.427l0,0c0,14.229,5.765,27.104,15.09,36.43l0,0c9.325,9.325,22.199,15.092,36.43,15.092l0,0
				c14.228,0,27.104-5.767,36.429-15.092l0,0c9.325-9.325,15.09-22.2,15.09-36.43l0,0c0-14.226-5.765-27.104-15.09-36.427l0,0
				c-9.324-9.326-22.201-15.091-36.429-15.091l0,0C61.457,24.718,48.583,30.482,39.258,39.809L39.258,39.809z"/>
		</g>
		<g>
			<path fill="#C9C9C9" d="M28.033,76.237c0.004-26.317,21.336-47.653,47.654-47.653l0,0c26.317,0,47.649,21.336,47.653,47.653l0,0
				c-0.004,26.319-21.336,47.651-47.653,47.651l0,0C49.369,123.889,28.037,102.557,28.033,76.237L28.033,76.237z M42.969,43.521
				c-8.376,8.375-13.553,19.937-13.553,32.716l0,0c0,12.778,5.177,24.343,13.553,32.717l0,0
				c8.375,8.378,19.938,13.554,32.719,13.554l0,0c12.781,0,24.343-5.176,32.718-13.554l0,0c8.374-8.374,13.553-19.938,13.553-32.717
				l0,0c0-12.779-5.179-24.341-13.553-32.716l0,0c-8.375-8.376-19.937-13.555-32.718-13.555l0,0
				C62.907,29.967,51.344,35.146,42.969,43.521L42.969,43.521z"/>
		</g>
		<g>
			<path fill="#C9C9C9" d="M33.284,76.237c0-23.417,18.985-42.403,42.403-42.403l0,0c23.419,0,42.4,18.986,42.4,42.403l0,0
				c0,23.419-18.981,42.401-42.4,42.401l0,0C52.27,118.639,33.284,99.656,33.284,76.237L33.284,76.237z M46.68,47.229
				c-7.424,7.426-12.015,17.679-12.015,29.008l0,0c0,11.331,4.591,21.582,12.015,29.008l0,0
				c7.428,7.424,17.676,12.015,29.008,12.015l0,0c11.331,0,21.58-4.591,29.008-12.015l0,0c7.421-7.426,12.013-17.677,12.013-29.008
				l0,0c0-11.329-4.592-21.582-12.013-29.008l0,0c-7.428-7.424-17.677-12.015-29.008-12.015l0,0
				C64.355,35.215,54.107,39.806,46.68,47.229L46.68,47.229z"/>
		</g>
		<g>
			<path fill="#C9C9C9" d="M38.53,76.237c0-20.521,16.636-37.157,37.157-37.157l0,0c20.517,0,37.152,16.637,37.154,37.157l0,0
				c-0.002,20.519-16.638,37.155-37.154,37.155l0,0C55.166,113.393,38.53,96.756,38.53,76.237L38.53,76.237z M50.393,50.94
				c-6.477,6.479-10.479,15.418-10.479,25.297l0,0c0,9.878,4.003,18.819,10.479,25.295l0,0c6.476,6.474,15.413,10.476,25.295,10.476
				l0,0c9.881,0,18.82-4.002,25.295-10.476l0,0c6.474-6.476,10.479-15.417,10.479-25.295l0,0c0-9.879-4.005-18.818-10.479-25.297
				l0,0c-6.475-6.472-15.414-10.478-25.295-10.478l0,0C65.806,40.463,56.868,44.469,50.393,50.94L50.393,50.94z"/>
		</g>
		<g>
			<path fill="#C9C9C9" d="M43.779,76.237c0-17.622,14.285-31.903,31.908-31.903l0,0c17.62,0,31.903,14.281,31.903,31.903l0,0
				c0,17.623-14.283,31.904-31.903,31.904l0,0C58.064,108.142,43.779,93.86,43.779,76.237L43.779,76.237z M54.104,54.653
				c-5.525,5.522-8.941,13.149-8.941,21.584l0,0c0,8.433,3.416,16.058,8.941,21.584l0,0c5.524,5.524,13.152,8.939,21.584,8.939l0,0
				c8.431,0,16.059-3.415,21.582-8.939l0,0c5.526-5.526,8.941-13.151,8.941-21.584l0,0c0-8.435-3.415-16.062-8.941-21.584l0,0
				c-5.523-5.524-13.151-8.941-21.582-8.941l0,0C67.256,45.712,59.628,49.129,54.104,54.653L54.104,54.653z"/>
		</g>
		<g>
			<path fill="#C9C9C9" d="M49.027,76.237c0-14.722,11.938-26.657,26.66-26.659l0,0c14.722,0.002,26.655,11.938,26.655,26.659l0,0
				c0,14.723-11.934,26.657-26.655,26.659l0,0C60.965,102.895,49.027,90.96,49.027,76.237L49.027,76.237z M57.813,58.366
				c-4.573,4.577-7.402,10.891-7.402,17.871l0,0c0,6.983,2.829,13.298,7.402,17.873l0,0c4.578,4.577,10.894,7.401,17.875,7.401l0,0
				c6.98,0,13.296-2.824,17.873-7.401l0,0c4.572-4.575,7.403-10.89,7.403-17.873l0,0c0-6.98-2.831-13.294-7.403-17.871l0,0
				c-4.577-4.577-10.893-7.403-17.873-7.403l0,0C68.706,50.963,62.391,53.789,57.813,58.366L57.813,58.366z"/>
		</g>
		<g>
			<path fill="#C9C9C9" d="M54.278,76.237c0.002-11.821,9.585-21.409,21.409-21.409l0,0c11.821,0,21.407,9.588,21.409,21.409l0,0
				c-0.002,11.824-9.588,21.411-21.409,21.411l0,0C63.863,97.648,54.28,88.062,54.278,76.237L54.278,76.237z M61.527,62.075
				c-3.628,3.63-5.869,8.632-5.869,14.162l0,0c0,5.532,2.241,10.532,5.869,14.16l0,0c3.623,3.628,8.625,5.868,14.16,5.868l0,0
				c5.532,0,10.534-2.24,14.162-5.868l0,0c3.623-3.628,5.864-8.628,5.864-14.16l0,0c0-5.53-2.241-10.532-5.864-14.162l0,0
				c-3.628-3.622-8.63-5.864-14.162-5.864l0,0C70.152,56.211,65.15,58.453,61.527,62.075L61.527,62.075z"/>
		</g>
		<g>
			<path fill="#C9C9C9" d="M59.526,76.237c0.002-8.925,7.237-16.163,16.161-16.163l0,0c8.923,0,16.158,7.238,16.158,16.163l0,0
				c0,8.926-7.235,16.159-16.158,16.161l0,0C66.764,92.396,59.528,85.163,59.526,76.237L59.526,76.237z"/>
		</g>
		<polygon fill="#D1D1D1" points="147.324,74.58 79.688,74.58 128.202,26.068 125.855,23.725 77.344,72.236 77.344,3.498
			74.028,3.498 74.028,72.236 26.202,24.408 23.857,26.752 71.685,74.58 4.048,74.58 4.048,77.893 71.687,77.893 23.857,125.723
			26.202,128.066 74.028,80.238 74.028,147.877 77.344,147.877 77.344,80.24 125.17,128.066 127.513,125.723 79.688,77.893
			147.324,77.893 		"/>
		<g>
			<path fill="#737373" d="M64.775,77.342c0-6.027,4.885-10.91,10.912-10.91l0,0c6.024,0,10.91,4.883,10.91,10.91l0,0
				c0,6.027-4.886,10.914-10.91,10.914l0,0C69.66,88.256,64.775,83.369,64.775,77.342L64.775,77.342z"/>
		</g>
		<g>
			<path fill="#C9C9C9" d="M64.775,76.237c0-6.024,4.885-10.91,10.912-10.91l0,0c6.024,0,10.91,4.886,10.91,10.91l0,0
				c0,6.025-4.886,10.912-10.91,10.914l0,0C69.66,87.149,64.775,82.263,64.775,76.237L64.775,76.237z"/>
		</g>
</g>
</svg>
