<?xml version="1.0" encoding="utf-8"?>
<!-- Generator: Adobe Illustrator 16.0.0, SVG Export Plug-In . SVG Version: 6.00 Build 0)  -->
<!DOCTYPE svg PUBLIC "-//W3C//DTD SVG 1.1//EN" "http://www.w3.org/Graphics/SVG/1.1/DTD/svg11.dtd">
<svg version="1.1" id="图层_1" xmlns="http://www.w3.org/2000/svg" xmlns:xlink="http://www.w3.org/1999/xlink" x="0px" y="0px"
	 width="282.396px" height="273.731px" viewBox="31.537 34.087 282.396 273.731"
	 enable-background="new 31.537 34.087 282.396 273.731" xml:space="preserve">
<g>
	<polygon fill="#FFFFFF" points="224.173,138.7 173.91,50.581 122.682,138.41 115.57,134.259 173.998,34.087 231.334,134.614 	"/>
</g>
<g>
	<polygon fill="#FFFFFF" points="146.272,278.531 31.537,277.976 88.318,179.735 95.454,183.854 45.771,269.809 146.305,270.291 	
		"/>
</g>
<g>
	<polygon fill="#FFFFFF" points="313.934,279.455 198.715,278.844 198.764,270.605 299.716,271.128 248.963,182.149 
		256.123,178.061 	"/>
</g>
<g>
	<polygon fill="#FFFFFF" points="280.365,163.328 284.452,170.498 228.034,202.698 223.948,195.537 	"/>
</g>
<g>
	
		<rect x="223.805" y="104.486" transform="matrix(-0.4957 -0.8685 0.8685 -0.4957 221.9583 402.8193)" fill="#FFFFFF" width="8.244" height="64.968"/>
</g>
<g>
	<polygon fill="#FFFFFF" points="66.521,162.251 122.73,194.837 118.603,201.957 62.394,169.379 	"/>
</g>
<g>
	
		<rect x="86.683" y="132.196" transform="matrix(-0.865 -0.5018 0.5018 -0.865 153.8198 314.0209)" fill="#FFFFFF" width="64.946" height="8.24"/>
</g>
<g>
	<rect x="195.127" y="242.847" fill="#FFFFFF" width="8.239" height="64.971"/>
</g>
<g>
	<rect x="142.12" y="242.782" fill="#FFFFFF" width="8.238" height="64.945"/>
</g>
</svg>
