<?xml version="1.0" encoding="utf-8"?>
<!-- Generator: Adobe Illustrator 16.0.0, SVG Export Plug-In . SVG Version: 6.00 Build 0)  -->
<!DOCTYPE svg PUBLIC "-//W3C//DTD SVG 1.1//EN" "http://www.w3.org/Graphics/SVG/1.1/DTD/svg11.dtd">
<svg version="1.1" id="图层_1" xmlns="http://www.w3.org/2000/svg" xmlns:xlink="http://www.w3.org/1999/xlink" x="0px" y="0px"
	 width="83.175px" height="329.355px" viewBox="70.543 26.398 83.175 329.355"
	 enable-background="new 70.543 26.398 83.175 329.355" xml:space="preserve">
<polyline fill="none" stroke="#FFFFFF" stroke-width="6" stroke-miterlimit="10" points="96.188,79.331 123.89,51.629 
	151.597,79.331 "/>
<polyline fill="none" stroke="#FFFFFF" stroke-width="6" stroke-miterlimit="10" points="96.188,107.037 123.89,79.331 
	151.597,107.037 "/>
<polyline fill="none" stroke="#FFFFFF" stroke-width="6" stroke-miterlimit="10" points="112.73,134.007 123.89,145.163 
	112.73,156.328 "/>
<polyline fill="none" stroke="#FFFFFF" stroke-width="6" stroke-miterlimit="10" points="135.051,156.328 123.89,145.168 
	135.051,134.007 "/>
<line fill="none" stroke="#FFFFFF" stroke-width="6" stroke-miterlimit="10" x1="123.89" y1="51.629" x2="123.89" y2="26.398"/>
<polyline fill="none" stroke="#FFFFFF" stroke-width="6" stroke-miterlimit="10" points="151.597,302.821 123.894,330.528 
	96.188,302.821 "/>
<polyline fill="none" stroke="#FFFFFF" stroke-width="6" stroke-miterlimit="10" points="151.597,275.114 123.894,302.821 
	96.188,275.114 "/>
<line fill="none" stroke="#FFFFFF" stroke-width="6" stroke-miterlimit="10" x1="123.894" y1="330.528" x2="123.894" y2="355.754"/>
<line fill="none" stroke="#FFFFFF" stroke-width="6" stroke-miterlimit="10" x1="123.894" y1="236.052" x2="123.894" y2="301.885"/>
<line fill="none" stroke="#FFFFFF" stroke-width="6" stroke-miterlimit="10" x1="73.17" y1="145.609" x2="124.389" y2="238.406"/>
<line fill="none" stroke="#FFFFFF" stroke-width="6" stroke-miterlimit="10" x1="123.894" y1="79.331" x2="123.894" y2="145.163"/>
</svg>
