<?xml version="1.0" encoding="utf-8"?>
<!-- Generator: Adobe Illustrator 16.0.0, SVG Export Plug-In . SVG Version: 6.00 Build 0)  -->
<!DOCTYPE svg PUBLIC "-//W3C//DTD SVG 1.1//EN" "http://www.w3.org/Graphics/SVG/1.1/DTD/svg11.dtd">
<svg version="1.1" id="图层_1" xmlns="http://www.w3.org/2000/svg" xmlns:xlink="http://www.w3.org/1999/xlink" x="0px" y="0px"
	 width="114.698px" height="62.02px" viewBox="26.525 17.554 114.698 62.02" enable-background="new 26.525 17.554 114.698 62.02"
	 xml:space="preserve">
<g>
	
		<linearGradient id="SVGID_1_" gradientUnits="userSpaceOnUse" x1="108.9534" y1="-643.6716" x2="108.9534" y2="-705.6912" gradientTransform="matrix(1 0 0 -1 -25.0796 -626.1177)">
		<stop  offset="0" style="stop-color:#FFFFFF"/>
		<stop  offset="0.3838" style="stop-color:#FDFDFC"/>
		<stop  offset="0.6111" style="stop-color:#F4F4F4"/>
		<stop  offset="0.7975" style="stop-color:#E6E6E6"/>
		<stop  offset="0.9609" style="stop-color:#D3D3D2"/>
		<stop  offset="1" style="stop-color:#CDCDCC"/>
	</linearGradient>
	<path fill="url(#SVGID_1_)" d="M141.223,64.308c0-8.432-6.833-15.267-15.265-15.267c-0.309,0-0.606,0.028-0.909,0.046
		c0.012-0.253,0.038-0.502,0.038-0.759c0-8.605-6.978-15.584-15.583-15.584c-2.336,0-4.54,0.527-6.527,1.445
		c-1.961-9.496-10.369-16.636-20.448-16.636c-10.42,0-19.032,7.643-20.602,17.623c-0.974-0.128-1.96-0.221-2.969-0.221
		c-12.319,0-22.308,9.987-22.308,22.31c0,0.695,0.042,1.383,0.105,2.063c-0.034,0-0.069-0.006-0.105-0.006
		c-5.59,0-10.125,4.53-10.125,10.124c0,5.59,4.535,10.127,10.125,10.127h92.035C135.712,78.208,141.223,71.737,141.223,64.308z"/>
</g>
</svg>
