<?xml version="1.0" encoding="utf-8"?>
<!-- Generator: Adobe Illustrator 16.0.0, SVG Export Plug-In . SVG Version: 6.00 Build 0)  -->
<!DOCTYPE svg PUBLIC "-//W3C//DTD SVG 1.1//EN" "http://www.w3.org/Graphics/SVG/1.1/DTD/svg11.dtd">
<svg version="1.1" id="Layer_1" xmlns="http://www.w3.org/2000/svg" xmlns:xlink="http://www.w3.org/1999/xlink" x="0px" y="0px"
	 width="31.101px" height="23.459px" viewBox="52.925 39.92 31.101 23.459" enable-background="new 52.925 39.92 31.101 23.459"
	 xml:space="preserve">
<g>
	<rect x="80.755" y="56.314" fill="#FFFFFF" width="3.271" height="0.261"/>
	
		<linearGradient id="SVGID_1_" gradientUnits="userSpaceOnUse" x1="81.2212" y1="75.3892" x2="91.6496" y2="75.3892" gradientTransform="matrix(1 0 0 -1 -8.3599 127.3525)">
		<stop  offset="0" style="stop-color:#EAEAEA"/>
		<stop  offset="0.06" style="stop-color:#DDDDE0"/>
		<stop  offset="0.92" style="stop-color:#C6C8CB"/>
		<stop  offset="1" style="stop-color:#EAEAEA"/>
	</linearGradient>
	<path fill="url(#SVGID_1_)" d="M83.29,40.548l-0.005,22.572c-0.065,0.211-0.686,0.257-0.882,0.259h-8.625
		c-0.183-0.002-0.867-0.044-0.887-0.288V40.548c0.039,0.249,0.688,0.286,0.887,0.288h8.625C82.602,40.834,83.25,40.797,83.29,40.548
		z"/>
	<g>
		
			<linearGradient id="SVGID_2_" gradientUnits="userSpaceOnUse" x1="82.2456" y1="83.8013" x2="90.4761" y2="83.8013" gradientTransform="matrix(1 0 0 -1 -8.3599 127.3525)">
			<stop  offset="0" style="stop-color:#DBDDDF"/>
			<stop  offset="1" style="stop-color:#C6C8CB"/>
		</linearGradient>
		<path fill="url(#SVGID_2_)" d="M78.088,44.63c2.427,0,4.485-1.398,4.485-2.157h-8.788C73.786,43.232,75.663,44.63,78.088,44.63z"
			/>
		
			<linearGradient id="SVGID_3_" gradientUnits="userSpaceOnUse" x1="82.3892" y1="83.8579" x2="90.3467" y2="83.8579" gradientTransform="matrix(1 0 0 -1 -8.3599 127.3525)">
			<stop  offset="0" style="stop-color:#DCDEE1"/>
			<stop  offset="1" style="stop-color:#C8CACD"/>
		</linearGradient>
		<path fill="url(#SVGID_3_)" d="M78.094,44.513c2.341,0,4.323-1.316,4.323-2.036h-8.477C73.941,43.196,75.754,44.513,78.094,44.513
			z"/>
		
			<linearGradient id="SVGID_4_" gradientUnits="userSpaceOnUse" x1="82.5356" y1="83.9146" x2="90.2175" y2="83.9146" gradientTransform="matrix(1 0 0 -1 -8.3599 127.3525)">
			<stop  offset="0" style="stop-color:#DEDFE2"/>
			<stop  offset="1" style="stop-color:#CACCCF"/>
		</linearGradient>
		<path fill="url(#SVGID_4_)" d="M78.1,44.396c2.255,0,4.161-1.235,4.161-1.916h-8.164C74.097,43.16,75.846,44.396,78.1,44.396z"/>
		
			<linearGradient id="SVGID_5_" gradientUnits="userSpaceOnUse" x1="82.6821" y1="83.9712" x2="90.0867" y2="83.9712" gradientTransform="matrix(1 0 0 -1 -8.3599 127.3525)">
			<stop  offset="0" style="stop-color:#DFE1E3"/>
			<stop  offset="1" style="stop-color:#CDCED1"/>
		</linearGradient>
		<path fill="url(#SVGID_5_)" d="M78.106,44.278c2.168,0,3.999-1.154,3.999-1.794h-7.852C74.253,43.124,75.938,44.278,78.106,44.278
			z"/>
		
			<linearGradient id="SVGID_6_" gradientUnits="userSpaceOnUse" x1="82.8296" y1="84.0288" x2="89.9574" y2="84.0288" gradientTransform="matrix(1 0 0 -1 -8.3599 127.3525)">
			<stop  offset="0" style="stop-color:#E1E2E4"/>
			<stop  offset="1" style="stop-color:#CFD0D2"/>
		</linearGradient>
		<path fill="url(#SVGID_6_)" d="M78.112,44.16c2.081,0,3.838-1.073,3.838-1.673h-7.54C74.41,43.087,76.03,44.16,78.112,44.16z"/>
		
			<linearGradient id="SVGID_7_" gradientUnits="userSpaceOnUse" x1="82.9771" y1="84.0854" x2="89.825" y2="84.0854" gradientTransform="matrix(1 0 0 -1 -8.3599 127.3525)">
			<stop  offset="0" style="stop-color:#E2E4E5"/>
			<stop  offset="1" style="stop-color:#D1D2D4"/>
		</linearGradient>
		<path fill="url(#SVGID_7_)" d="M78.117,44.043c1.996,0,3.677-0.992,3.677-1.552h-7.228C74.566,43.051,76.122,44.043,78.117,44.043
			z"/>
		
			<linearGradient id="SVGID_8_" gradientUnits="userSpaceOnUse" x1="83.1255" y1="84.1431" x2="89.6919" y2="84.1431" gradientTransform="matrix(1 0 0 -1 -8.3599 127.3525)">
			<stop  offset="0" style="stop-color:#E4E5E7"/>
			<stop  offset="1" style="stop-color:#D4D5D6"/>
		</linearGradient>
		<path fill="url(#SVGID_8_)" d="M78.123,43.925c1.91,0,3.516-0.911,3.516-1.431h-6.917C74.721,43.015,76.213,43.925,78.123,43.925z
			"/>
		
			<linearGradient id="SVGID_9_" gradientUnits="userSpaceOnUse" x1="83.2739" y1="84.1997" x2="89.558" y2="84.1997" gradientTransform="matrix(1 0 0 -1 -8.3599 127.3525)">
			<stop  offset="0" style="stop-color:#E6E6E8"/>
			<stop  offset="1" style="stop-color:#D6D7D8"/>
		</linearGradient>
		<path fill="url(#SVGID_9_)" d="M78.128,43.808c1.823,0,3.354-0.83,3.354-1.31h-6.604C74.877,42.979,76.305,43.808,78.128,43.808z"
			/>
		
			<linearGradient id="SVGID_10_" gradientUnits="userSpaceOnUse" x1="83.4233" y1="84.2563" x2="89.4234" y2="84.2563" gradientTransform="matrix(1 0 0 -1 -8.3599 127.3525)">
			<stop  offset="0" style="stop-color:#E7E8E9"/>
			<stop  offset="1" style="stop-color:#D8D9DA"/>
		</linearGradient>
		<path fill="url(#SVGID_10_)" d="M78.134,43.69c1.736,0,3.191-0.748,3.191-1.188h-6.292C75.034,42.942,76.397,43.69,78.134,43.69z"
			/>
		
			<linearGradient id="SVGID_11_" gradientUnits="userSpaceOnUse" x1="83.5737" y1="84.313" x2="89.2886" y2="84.313" gradientTransform="matrix(1 0 0 -1 -8.3599 127.3525)">
			<stop  offset="0" style="stop-color:#E9E9EB"/>
			<stop  offset="1" style="stop-color:#DBDBDC"/>
		</linearGradient>
		<path fill="url(#SVGID_11_)" d="M78.14,43.573c1.651,0,3.029-0.667,3.029-1.067H75.19C75.19,42.906,76.489,43.573,78.14,43.573z"
			/>
		
			<linearGradient id="SVGID_12_" gradientUnits="userSpaceOnUse" x1="83.7222" y1="84.3696" x2="89.1523" y2="84.3696" gradientTransform="matrix(1 0 0 -1 -8.3599 127.3525)">
			<stop  offset="0" style="stop-color:#EAEBEC"/>
			<stop  offset="1" style="stop-color:#DDDDDE"/>
		</linearGradient>
		<path fill="url(#SVGID_12_)" d="M78.146,43.455c1.564,0,2.867-0.585,2.867-0.946h-5.668C75.345,42.87,76.581,43.455,78.146,43.455
			z"/>
		
			<linearGradient id="SVGID_13_" gradientUnits="userSpaceOnUse" x1="83.8745" y1="84.4263" x2="89.0167" y2="84.4263" gradientTransform="matrix(1 0 0 -1 -8.3599 127.3525)">
			<stop  offset="0" style="stop-color:#ECECED"/>
			<stop  offset="1" style="stop-color:#E0DFE0"/>
		</linearGradient>
		<path fill="url(#SVGID_13_)" d="M78.152,43.338c1.479,0,2.706-0.504,2.706-0.825h-5.355
			C75.502,42.833,76.672,43.338,78.152,43.338z"/>
		
			<linearGradient id="SVGID_14_" gradientUnits="userSpaceOnUse" x1="84.0239" y1="84.4849" x2="88.8768" y2="84.4849" gradientTransform="matrix(1 0 0 -1 -8.3599 127.3525)">
			<stop  offset="0" style="stop-color:#EEEEEF"/>
			<stop  offset="1" style="stop-color:#E2E2E2"/>
		</linearGradient>
		<path fill="url(#SVGID_14_)" d="M78.157,43.22c1.393,0,2.544-0.423,2.544-0.704h-5.043C75.658,42.797,76.764,43.22,78.157,43.22z"
			/>
		
			<linearGradient id="SVGID_15_" gradientUnits="userSpaceOnUse" x1="84.1733" y1="84.5415" x2="88.7375" y2="84.5415" gradientTransform="matrix(1 0 0 -1 -8.3599 127.3525)">
			<stop  offset="0" style="stop-color:#EFEFF0"/>
			<stop  offset="1" style="stop-color:#E5E4E4"/>
		</linearGradient>
		<path fill="url(#SVGID_15_)" d="M78.163,43.103c1.306,0,2.383-0.342,2.383-0.583h-4.732
			C75.814,42.761,76.856,43.103,78.163,43.103z"/>
		
			<linearGradient id="SVGID_16_" gradientUnits="userSpaceOnUse" x1="84.3296" y1="84.5981" x2="88.6018" y2="84.5981" gradientTransform="matrix(1 0 0 -1 -8.3599 127.3525)">
			<stop  offset="0" style="stop-color:#F1F1F1"/>
			<stop  offset="1" style="stop-color:#E7E6E6"/>
		</linearGradient>
		<path fill="url(#SVGID_16_)" d="M78.168,42.985c1.22,0,2.221-0.26,2.221-0.461H75.97C75.97,42.725,76.948,42.985,78.168,42.985z"
			/>
		
			<linearGradient id="SVGID_17_" gradientUnits="userSpaceOnUse" x1="84.4858" y1="84.6548" x2="88.4648" y2="84.6548" gradientTransform="matrix(1 0 0 -1 -8.3599 127.3525)">
			<stop  offset="0" style="stop-color:#F2F3F3"/>
			<stop  offset="1" style="stop-color:#EAE8E8"/>
		</linearGradient>
		<path fill="url(#SVGID_17_)" d="M78.173,42.868c1.135,0,2.06-0.179,2.06-0.34h-4.107C76.126,42.688,77.04,42.868,78.173,42.868z"
			/>
		
			<linearGradient id="SVGID_18_" gradientUnits="userSpaceOnUse" x1="84.6353" y1="84.7114" x2="88.3196" y2="84.7114" gradientTransform="matrix(1 0 0 -1 -8.3599 127.3525)">
			<stop  offset="0" style="stop-color:#F4F4F4"/>
			<stop  offset="1" style="stop-color:#ECEBEA"/>
		</linearGradient>
		<path fill="url(#SVGID_18_)" d="M78.18,42.75c1.047,0,1.896-0.098,1.896-0.219h-3.795C76.282,42.652,77.131,42.75,78.18,42.75z"/>
	</g>
	<path fill="#FFFFFF" d="M83.29,41.99v0.278c-0.039,0.249-0.688,0.286-0.886,0.288h-8.626c-0.199-0.001-0.848-0.039-0.887-0.288
		V41.99c0.039,0.249,0.688,0.286,0.887,0.288h8.625C82.602,42.276,83.25,42.239,83.29,41.99z"/>
	<path fill="#6C6B6B" d="M83.29,62.813v0.278c-0.039,0.248-0.688,0.286-0.886,0.288h-8.626c-0.199-0.002-0.848-0.04-0.887-0.288
		v-0.278c0.039,0.248,0.688,0.286,0.887,0.288h8.625C82.602,63.099,83.25,63.061,83.29,62.813z"/>
	<path fill="#B1B3B6" d="M73.52,45.47c0,0.037-0.032,0.066-0.071,0.066s-0.07-0.029-0.07-0.066v-2.479
		c0-0.036,0.031-0.065,0.07-0.065h0.002h9.268c0.039,0,0.071,0.029,0.071,0.065c0,0.037-0.032,0.066-0.071,0.066H73.52V45.47z"/>
	<path fill="#E5E6E6" d="M82.661,42.996c0-0.037,0.032-0.066,0.071-0.066s0.07,0.029,0.07,0.066v2.469
		c0,0.037-0.031,0.066-0.07,0.066H82.73h-9.268c-0.039,0-0.071-0.029-0.071-0.066s0.032-0.065,0.071-0.065h9.198V42.996z"/>
	<path fill="#909090" d="M82.512,43.218c0-0.036,0.031-0.066,0.07-0.066s0.071,0.03,0.071,0.066v2.087
		c0,0.037-0.032,0.066-0.071,0.066h-0.001h-8.989c-0.039,0-0.071-0.029-0.071-0.066c0-0.036,0.032-0.066,0.071-0.066h8.92V43.218
		L82.512,43.218z"/>
	<path fill="#FFFFFF" d="M73.668,45.324c0,0.037-0.031,0.066-0.071,0.066c-0.039,0-0.07-0.029-0.07-0.066v-2.173
		c0-0.036,0.031-0.065,0.07-0.065h0.002h8.981c0.04,0,0.071,0.029,0.071,0.065c0,0.037-0.031,0.066-0.071,0.066h-8.912V45.324z"/>
	<path fill="#B1B3B6" d="M73.52,48.207c0,0.037-0.032,0.066-0.071,0.066s-0.07-0.029-0.07-0.066v-2.478
		c0-0.037,0.031-0.066,0.07-0.066h0.002h9.268c0.039,0,0.071,0.029,0.071,0.066c0,0.036-0.032,0.066-0.071,0.066H73.52V48.207z"/>
	<path fill="#E5E6E6" d="M82.661,45.732c0-0.036,0.032-0.065,0.071-0.065s0.07,0.029,0.07,0.065v2.47
		c0,0.036-0.031,0.066-0.07,0.066H82.73h-9.268c-0.039,0-0.071-0.03-0.071-0.066s0.032-0.066,0.071-0.066h9.198V45.732z"/>
	<path fill="#909090" d="M82.512,45.955c0-0.037,0.031-0.066,0.07-0.066s0.071,0.029,0.071,0.066v2.087
		c0,0.036-0.032,0.065-0.071,0.065h-0.001h-8.989c-0.039,0-0.071-0.029-0.071-0.065c0-0.037,0.032-0.066,0.071-0.066h8.92V45.955
		L82.512,45.955z"/>
	<path fill="#FFFFFF" d="M73.668,48.061c0,0.036-0.031,0.066-0.071,0.066c-0.039,0-0.07-0.03-0.07-0.066v-2.173
		c0-0.036,0.031-0.066,0.07-0.066h0.002h8.981c0.04,0,0.071,0.029,0.071,0.066s-0.031,0.066-0.071,0.066h-8.912V48.061z"/>
	<path fill="#B1B3B6" d="M73.52,50.943c0,0.036-0.032,0.066-0.071,0.066s-0.07-0.03-0.07-0.066v-2.479
		c0-0.037,0.031-0.066,0.07-0.066h0.002h9.268c0.039,0,0.071,0.029,0.071,0.066s-0.032,0.066-0.071,0.066H73.52V50.943z"/>
	<path fill="#E5E6E6" d="M82.661,48.469c0-0.036,0.032-0.066,0.071-0.066s0.07,0.03,0.07,0.066v2.47c0,0.036-0.031,0.066-0.07,0.066
		H82.73h-9.268c-0.039,0-0.071-0.03-0.071-0.066c0-0.037,0.032-0.066,0.071-0.066h9.198V48.469z"/>
	<path fill="#909090" d="M82.512,48.691c0-0.036,0.031-0.066,0.07-0.066s0.071,0.029,0.071,0.066v2.087
		c0,0.036-0.032,0.066-0.071,0.066h-0.001h-8.989c-0.039,0-0.071-0.03-0.071-0.066s0.032-0.066,0.071-0.066h8.92V48.691
		L82.512,48.691z"/>
	<path fill="#FFFFFF" d="M73.668,50.797c0,0.037-0.031,0.066-0.071,0.066c-0.039,0-0.07-0.029-0.07-0.066v-2.173
		c0-0.037,0.031-0.066,0.07-0.066h0.002h8.981c0.04,0,0.071,0.029,0.071,0.066c0,0.036-0.031,0.065-0.071,0.065h-8.912V50.797z"/>
	<path fill="#B1B3B6" d="M73.52,53.755c0,0.036-0.032,0.066-0.071,0.066s-0.07-0.03-0.07-0.066v-2.478
		c0-0.037,0.031-0.066,0.07-0.066h0.002h9.268c0.039,0,0.071,0.029,0.071,0.066c0,0.036-0.032,0.066-0.071,0.066H73.52V53.755z"/>
	<path fill="#E5E6E6" d="M82.661,51.281c0-0.037,0.032-0.066,0.071-0.066s0.07,0.029,0.07,0.066v2.469
		c0,0.036-0.031,0.066-0.07,0.066H82.73h-9.268c-0.039,0-0.071-0.03-0.071-0.066s0.032-0.065,0.071-0.065h9.198V51.281z"/>
	<path fill="#909090" d="M82.512,51.503c0-0.036,0.031-0.065,0.07-0.065s0.071,0.029,0.071,0.065v2.088
		c0,0.036-0.032,0.065-0.071,0.065h-0.001h-8.989c-0.039,0-0.071-0.029-0.071-0.065s0.032-0.066,0.071-0.066h8.92V51.503
		L82.512,51.503z"/>
	<path fill="#FFFFFF" d="M73.668,53.61c0,0.036-0.031,0.065-0.071,0.065c-0.039,0-0.07-0.029-0.07-0.065v-2.173
		c0-0.036,0.031-0.066,0.07-0.066h0.002h8.981c0.04,0,0.071,0.03,0.071,0.066c0,0.037-0.031,0.066-0.071,0.066h-8.912V53.61z"/>
	<path fill="#B1B3B6" d="M73.468,55.635c0,0.023-0.021,0.042-0.045,0.042c-0.025,0-0.045-0.019-0.045-0.042v-1.563
		c0-0.022,0.02-0.041,0.045-0.041h0.001h5.843c0.024,0,0.045,0.019,0.045,0.041c0,0.023-0.021,0.042-0.045,0.042h-5.799V55.635z"/>
	<path fill="#E5E6E6" d="M79.231,54.076c0-0.023,0.02-0.042,0.044-0.042s0.045,0.019,0.045,0.042v1.557
		c0,0.022-0.021,0.042-0.045,0.042h-0.001h-5.843c-0.024,0-0.045-0.02-0.045-0.042s0.021-0.041,0.045-0.041h5.799L79.231,54.076
		L79.231,54.076z"/>
	<path fill="#909090" d="M79.136,54.216c0-0.023,0.021-0.042,0.045-0.042s0.045,0.019,0.045,0.042v1.315
		c0,0.023-0.021,0.041-0.045,0.041H79.18h-5.667c-0.024,0-0.045-0.019-0.045-0.041s0.021-0.041,0.045-0.041h5.623V54.216
		L79.136,54.216z"/>
	<path fill="#FFFFFF" d="M73.561,55.543c0,0.023-0.02,0.041-0.044,0.041s-0.045-0.019-0.045-0.041v-1.37
		c0-0.022,0.021-0.041,0.045-0.041h0.001h5.662c0.025,0,0.045,0.019,0.045,0.041c0,0.023-0.02,0.042-0.045,0.042h-5.619V55.543z"/>
	<path fill="#B1B3B6" d="M73.892,44.302c0,0.026-0.024,0.048-0.053,0.048s-0.052-0.021-0.052-0.048v-0.903
		c0-0.026,0.023-0.048,0.052-0.048h0.002h8.375c0.028,0,0.052,0.021,0.052,0.048c0,0.027-0.023,0.048-0.052,0.048h-8.324V44.302z"/>
	<path fill="#FFFFFF" d="M74,44.251c0,0.026-0.023,0.048-0.053,0.048c-0.028,0-0.052-0.022-0.052-0.048v-0.736
		c0-0.026,0.023-0.048,0.052-0.048h0.002h8.185c0.029,0,0.053,0.021,0.053,0.048c0,0.027-0.023,0.048-0.053,0.048H74V44.251z"/>
	<path fill="#E5E6E6" d="M82.289,43.515c0-0.026,0.023-0.048,0.052-0.048c0.029,0,0.053,0.021,0.053,0.048v0.902
		c0,0.026-0.023,0.048-0.053,0.048h-0.001h-8.375c-0.029,0-0.052-0.022-0.052-0.048s0.022-0.048,0.052-0.048h8.324V43.515z"/>
	<path fill="#909090" d="M82.18,43.565c0-0.026,0.023-0.048,0.052-0.048c0.029,0,0.052,0.021,0.052,0.048v0.736
		c0,0.026-0.022,0.048-0.052,0.048h-0.001h-8.186c-0.028,0-0.052-0.021-0.052-0.048c0-0.027,0.023-0.048,0.052-0.048h8.135V43.565
		L82.18,43.565z"/>
	
		<linearGradient id="SVGID_19_" gradientUnits="userSpaceOnUse" x1="82.5425" y1="82.1353" x2="82.4716" y2="82.9457" gradientTransform="matrix(1 0 0 -1 -8.3599 127.3525)">
		<stop  offset="0" style="stop-color:#F4DE3E"/>
		<stop  offset="1" style="stop-color:#F7C720"/>
	</linearGradient>
	<ellipse fill="url(#SVGID_19_)" cx="74.151" cy="44.841" rx="0.248" ry="0.223"/>
	
		<linearGradient id="SVGID_20_" gradientUnits="userSpaceOnUse" x1="82.3774" y1="82.6812" x2="82.6612" y2="82.318" gradientTransform="matrix(1 0 0 -1 -8.3599 127.3525)">
		<stop  offset="0" style="stop-color:#996E34"/>
		<stop  offset="1" style="stop-color:#F7C720"/>
	</linearGradient>
	<ellipse fill="url(#SVGID_20_)" cx="74.151" cy="44.842" rx="0.207" ry="0.186"/>
	<ellipse fill="#F2D80D" cx="74.151" cy="44.842" rx="0.169" ry="0.152"/>
	<ellipse fill="#FFFFFF" cx="75.044" cy="44.779" rx="0.099" ry="0.088"/>
	
		<linearGradient id="SVGID_21_" gradientUnits="userSpaceOnUse" x1="82.5093" y1="82.4497" x2="82.5093" y2="82.103" gradientTransform="matrix(1 0 0 -1 -8.3599 127.3525)">
		<stop  offset="0" style="stop-color:#F3E8B3"/>
		<stop  offset="1" style="stop-color:#FFFFFF"/>
	</linearGradient>
	<path fill="url(#SVGID_21_)" d="M74.398,44.86c0,0.006,0.001,0.013,0.001,0.019c0,0.124-0.111,0.223-0.248,0.223
		c-0.138,0-0.249-0.1-0.249-0.223c0-0.006,0.001-0.012,0.001-0.019c0.011,0.114,0.117,0.204,0.248,0.204
		C74.281,45.064,74.387,44.974,74.398,44.86z"/>
	<ellipse cx="75.044" cy="44.744" rx="0.099" ry="0.088"/>
	<path fill="#B1B3B6" d="M81.278,45.078c0,0.016-0.014,0.028-0.03,0.028s-0.031-0.012-0.031-0.028v-0.532
		c0-0.016,0.015-0.028,0.031-0.028l0,0h0.828c0.017,0,0.03,0.012,0.03,0.028s-0.014,0.028-0.03,0.028h-0.798V45.078z"/>
	<path fill="#FFFFFF" d="M81.342,45.049c0,0.016-0.015,0.028-0.031,0.028s-0.03-0.013-0.03-0.028v-0.434
		c0-0.016,0.014-0.028,0.03-0.028h0.001h0.715c0.018,0,0.031,0.013,0.031,0.028s-0.014,0.028-0.031,0.028h-0.685V45.049
		L81.342,45.049z"/>
	<path fill="#E5E6E6" d="M82.118,44.614c0-0.016,0.015-0.029,0.031-0.029s0.03,0.013,0.03,0.029v0.532
		c0,0.016-0.014,0.028-0.03,0.028h-0.001h-0.827c-0.017,0-0.031-0.013-0.031-0.028s0.015-0.028,0.031-0.028h0.797V44.614z"/>
	<path fill="#909090" d="M82.054,44.644c0-0.016,0.014-0.029,0.03-0.029s0.031,0.013,0.031,0.029v0.434
		c0,0.016-0.015,0.029-0.031,0.029h-0.001h-0.715c-0.017,0-0.03-0.013-0.03-0.029c0-0.016,0.014-0.028,0.03-0.028h0.686V44.644
		L82.054,44.644z"/>
	
		<linearGradient id="SVGID_22_" gradientUnits="userSpaceOnUse" x1="88.9761" y1="73.3423" x2="89.2888" y2="72.942" gradientTransform="matrix(1 0 0 -1 -8.3599 127.3525)">
		<stop  offset="0" style="stop-color:#996E34"/>
		<stop  offset="1" style="stop-color:#F7C720"/>
	</linearGradient>
	<ellipse fill="url(#SVGID_22_)" cx="80.763" cy="54.197" rx="0.229" ry="0.206"/>
	<ellipse fill="#F2D80D" cx="80.763" cy="54.197" rx="0.187" ry="0.167"/>
	
		<linearGradient id="SVGID_23_" gradientUnits="userSpaceOnUse" x1="90.4653" y1="73.3423" x2="90.7782" y2="72.9418" gradientTransform="matrix(1 0 0 -1 -8.3599 127.3525)">
		<stop  offset="0" style="stop-color:#996E34"/>
		<stop  offset="1" style="stop-color:#F7C720"/>
	</linearGradient>
	<ellipse fill="url(#SVGID_23_)" cx="82.251" cy="54.197" rx="0.229" ry="0.206"/>
	<ellipse fill="#F2D80D" cx="82.251" cy="54.197" rx="0.187" ry="0.167"/>
	
		<linearGradient id="SVGID_24_" gradientUnits="userSpaceOnUse" x1="82.3218" y1="71.8403" x2="82.2509" y2="72.651" gradientTransform="matrix(1 0 0 -1 -8.3599 127.3525)">
		<stop  offset="0" style="stop-color:#F4DE3E"/>
		<stop  offset="1" style="stop-color:#F7C720"/>
	</linearGradient>
	<ellipse fill="url(#SVGID_24_)" cx="73.929" cy="55.137" rx="0.248" ry="0.223"/>
	
		<linearGradient id="SVGID_25_" gradientUnits="userSpaceOnUse" x1="82.1567" y1="72.3862" x2="82.4404" y2="72.0232" gradientTransform="matrix(1 0 0 -1 -8.3599 127.3525)">
		<stop  offset="0" style="stop-color:#996E34"/>
		<stop  offset="1" style="stop-color:#F7C720"/>
	</linearGradient>
	<ellipse fill="url(#SVGID_25_)" cx="73.929" cy="55.137" rx="0.207" ry="0.187"/>
	<ellipse fill="#F2D80D" cx="73.929" cy="55.137" rx="0.169" ry="0.151"/>
	
		<linearGradient id="SVGID_26_" gradientUnits="userSpaceOnUse" x1="82.2886" y1="72.1528" x2="82.2886" y2="71.8057" gradientTransform="matrix(1 0 0 -1 -8.3599 127.3525)">
		<stop  offset="0" style="stop-color:#F3E8B3"/>
		<stop  offset="1" style="stop-color:#FFFFFF"/>
	</linearGradient>
	<path fill="url(#SVGID_26_)" d="M74.176,55.156c0,0.006,0.001,0.013,0.001,0.019c0,0.123-0.111,0.223-0.248,0.223
		c-0.138,0-0.249-0.1-0.249-0.223c0-0.006,0.001-0.013,0.001-0.019c0.011,0.114,0.117,0.204,0.248,0.204
		C74.059,55.36,74.166,55.27,74.176,55.156z"/>
	<path fill="#B1B3B6" d="M78.197,55.311c0,0.014-0.012,0.024-0.026,0.024s-0.027-0.011-0.027-0.024v-0.464
		c0-0.014,0.013-0.024,0.027-0.024l0,0h0.722c0.015,0,0.026,0.011,0.026,0.024s-0.012,0.024-0.026,0.024h-0.695V55.311z"/>
	<path fill="#FFFFFF" d="M78.252,55.286c0,0.014-0.012,0.024-0.026,0.024S78.2,55.298,78.2,55.286v-0.379
		c0-0.014,0.012-0.024,0.026-0.024h0.001h0.623c0.015,0,0.026,0.011,0.026,0.024s-0.012,0.024-0.026,0.024h-0.598V55.286z"/>
	<path fill="#E5E6E6" d="M78.929,54.907c0-0.014,0.012-0.025,0.026-0.025s0.027,0.012,0.027,0.025v0.464
		c0,0.013-0.013,0.024-0.027,0.024h-0.001h-0.721c-0.015,0-0.026-0.012-0.026-0.024c0-0.014,0.012-0.025,0.026-0.025h0.695V54.907z"
		/>
	<path fill="#909090" d="M78.873,54.932c0-0.014,0.013-0.024,0.027-0.024s0.026,0.011,0.026,0.024v0.379
		c0,0.014-0.012,0.024-0.026,0.024h-0.001h-0.623c-0.015,0-0.026-0.011-0.026-0.024s0.012-0.025,0.026-0.025h0.597V54.932z"/>
	
		<linearGradient id="SVGID_27_" gradientUnits="userSpaceOnUse" x1="83.2358" y1="85.9722" x2="92.3858" y2="86.7727" gradientTransform="matrix(1 0 0 -1 -8.3599 127.3525)">
		<stop  offset="0" style="stop-color:#DDDDE0"/>
		<stop  offset="1" style="stop-color:#BDBEC2"/>
	</linearGradient>
	<path fill="url(#SVGID_27_)" d="M73.778,39.92h8.625c0.487,0,0.887,0.129,0.887,0.288v1.783c0,0.158-0.399,0.288-0.887,0.288
		h-8.625c-0.488,0-0.887-0.129-0.887-0.288v-1.783C72.891,40.049,73.29,39.92,73.778,39.92z"/>
	
		<linearGradient id="SVGID_28_" gradientUnits="userSpaceOnUse" x1="90.7437" y1="71.9058" x2="90.4678" y2="72.2589" gradientTransform="matrix(1 0 0 -1 -8.3599 127.3525)">
		<stop  offset="0" style="stop-color:#EAEAEC"/>
		<stop  offset="1" style="stop-color:#686C6C"/>
	</linearGradient>
	<ellipse fill="url(#SVGID_28_)" cx="82.251" cy="55.278" rx="0.242" ry="0.218"/>
	<ellipse fill="#002938" cx="82.251" cy="55.278" rx="0.197" ry="0.178"/>
	<ellipse fill="#007A9C" cx="82.251" cy="55.278" rx="0.156" ry="0.141"/>
	
		<linearGradient id="SVGID_29_" gradientUnits="userSpaceOnUse" x1="89.5825" y1="71.4946" x2="88.7396" y2="72.5735" gradientTransform="matrix(1 0 0 -1 -8.3599 127.3525)">
		<stop  offset="0" style="stop-color:#EAEAEC"/>
		<stop  offset="1" style="stop-color:#686C6C"/>
	</linearGradient>
	<path fill="url(#SVGID_29_)" d="M80.82,56.006c0.408,0,0.741-0.299,0.741-0.665s-0.333-0.665-0.741-0.665
		c-0.407,0-0.741,0.299-0.741,0.665S80.413,56.006,80.82,56.006z"/>
	<path fill="#002938" d="M80.82,55.772c0.265,0,0.479-0.193,0.479-0.431s-0.215-0.431-0.479-0.431c-0.264,0-0.479,0.193-0.479,0.431
		S80.555,55.772,80.82,55.772z"/>
	<ellipse fill="#007A9C" cx="80.82" cy="55.341" rx="0.351" ry="0.314"/>
	<polygon fill="#FFFFFF" points="75.658,54.396 77.121,54.396 79.072,54.396 79.072,54.683 77.121,54.683 77.121,54.972 
		75.658,54.972 75.658,54.683 73.708,54.683 73.708,54.396 	"/>
	
		<linearGradient id="SVGID_30_" gradientUnits="userSpaceOnUse" x1="84.7495" y1="72.5034" x2="84.7495" y2="72.9864" gradientTransform="matrix(1 0 0 -1 -8.3599 127.3525)">
		<stop  offset="0" style="stop-color:#8E9091"/>
		<stop  offset="1" style="stop-color:#3B3F3F"/>
	</linearGradient>
	<polygon fill="url(#SVGID_30_)" points="75.658,54.313 77.121,54.313 79.072,54.313 79.072,54.601 77.121,54.601 77.121,54.89 
		75.658,54.89 75.658,54.601 73.708,54.601 73.708,54.313 	"/>
</g>
<g>
	
		<linearGradient id="SVGID_31_" gradientUnits="userSpaceOnUse" x1="61.3843" y1="85.1245" x2="87.0886" y2="85.1245" gradientTransform="matrix(1 0 0 -1 -8.3599 127.3525)">
		<stop  offset="0" style="stop-color:#DBDBDB"/>
		<stop  offset="0.04" style="stop-color:#F1F1F1"/>
		<stop  offset="0.95" style="stop-color:#C1C3C7"/>
		<stop  offset="1" style="stop-color:#6F7375"/>
	</linearGradient>
	<path fill="url(#SVGID_31_)" d="M52.928,43.093c0-0.192-0.016-0.762,0.02-0.94c0.093-0.458,0.483-0.778,0.958-0.791h24.108
		c0.553,0.014,0.964,0.43,0.978,0.989v0.742c-0.029-0.575-0.424-0.975-0.978-0.989H53.906
		C53.352,42.119,52.957,42.518,52.928,43.093z"/>
	<path fill="#8B8989" d="M70.614,62.347c0.18,0,0.18,0.461,0,0.471c-3.055,0.148-6.018,0.111-9.066,0.111
		c-0.18,0-0.18-0.343,0-0.358C64.59,62.308,67.572,62.347,70.614,62.347z"/>
	<g>
		<path fill="#FFFFFF" d="M61.155,62.374c1.085-0.747,1.599-1.147,1.72-2.923h6.086c0.121,1.775,0.635,2.176,1.72,2.923
			C67.505,62.374,64.33,62.374,61.155,62.374z"/>
		
			<linearGradient id="SVGID_32_" gradientUnits="userSpaceOnUse" x1="74.2769" y1="67.9019" x2="74.2769" y2="65.0097" gradientTransform="matrix(1 0 0 -1 -8.3599 127.3525)">
			<stop  offset="0" style="stop-color:#EFEEEE"/>
			<stop  offset="0.23" style="stop-color:#F9F9F9"/>
			<stop  offset="0.48" style="stop-color:#FCFBFB"/>
			<stop  offset="0.68" style="stop-color:#FEFDFD"/>
			<stop  offset="1" style="stop-color:#FEFEFE"/>
		</linearGradient>
		<path fill="url(#SVGID_32_)" d="M61.228,62.374c1.069-0.747,1.575-1.147,1.693-2.923h5.993c0.119,1.775,0.625,2.176,1.694,2.923
			C67.481,62.374,64.354,62.374,61.228,62.374z"/>
		
			<linearGradient id="SVGID_33_" gradientUnits="userSpaceOnUse" x1="74.2769" y1="67.9019" x2="74.2769" y2="65.0097" gradientTransform="matrix(1 0 0 -1 -8.3599 127.3525)">
			<stop  offset="0" style="stop-color:#E4E2E1"/>
			<stop  offset="0.23" style="stop-color:#F5F4F4"/>
			<stop  offset="0.48" style="stop-color:#F9F8F8"/>
			<stop  offset="0.68" style="stop-color:#FCFCFC"/>
			<stop  offset="1" style="stop-color:#FDFDFC"/>
		</linearGradient>
		<path fill="url(#SVGID_33_)" d="M61.3,62.374c1.052-0.747,1.55-1.147,1.667-2.923h5.9c0.116,1.775,0.615,2.176,1.667,2.923
			C67.457,62.374,64.378,62.374,61.3,62.374z"/>
		
			<linearGradient id="SVGID_34_" gradientUnits="userSpaceOnUse" x1="74.2769" y1="67.9019" x2="74.2769" y2="65.0097" gradientTransform="matrix(1 0 0 -1 -8.3599 127.3525)">
			<stop  offset="0" style="stop-color:#D9D7D6"/>
			<stop  offset="0.23" style="stop-color:#F2F0F0"/>
			<stop  offset="0.48" style="stop-color:#F6F6F6"/>
			<stop  offset="0.68" style="stop-color:#FBFAFA"/>
			<stop  offset="1" style="stop-color:#FCFBFB"/>
		</linearGradient>
		<path fill="url(#SVGID_34_)" d="M61.373,62.374c1.036-0.747,1.526-1.147,1.641-2.923h5.807c0.115,1.775,0.605,2.176,1.641,2.923
			C67.432,62.374,64.403,62.374,61.373,62.374z"/>
		
			<linearGradient id="SVGID_35_" gradientUnits="userSpaceOnUse" x1="74.2769" y1="67.9019" x2="74.2769" y2="65.0097" gradientTransform="matrix(1 0 0 -1 -8.3599 127.3525)">
			<stop  offset="0" style="stop-color:#CFCCCC"/>
			<stop  offset="0.23" style="stop-color:#EEEDED"/>
			<stop  offset="0.48" style="stop-color:#F4F4F3"/>
			<stop  offset="0.68" style="stop-color:#FAF9F9"/>
			<stop  offset="1" style="stop-color:#FBFAFA"/>
		</linearGradient>
		<path fill="url(#SVGID_35_)" d="M61.446,62.374c1.019-0.747,1.501-1.147,1.614-2.923h5.714c0.113,1.775,0.596,2.176,1.615,2.923
			C67.408,62.374,64.427,62.374,61.446,62.374z"/>
		
			<linearGradient id="SVGID_36_" gradientUnits="userSpaceOnUse" x1="74.2769" y1="67.9019" x2="74.2769" y2="65.0097" gradientTransform="matrix(1 0 0 -1 -8.3599 127.3525)">
			<stop  offset="0" style="stop-color:#C5C2C2"/>
			<stop  offset="0.23" style="stop-color:#EBEAE9"/>
			<stop  offset="0.48" style="stop-color:#F2F2F1"/>
			<stop  offset="0.68" style="stop-color:#F8F8F8"/>
			<stop  offset="1" style="stop-color:#FAF9F9"/>
		</linearGradient>
		<path fill="url(#SVGID_36_)" d="M61.519,62.374c1.002-0.747,1.477-1.147,1.588-2.923h5.621c0.111,1.775,0.586,2.176,1.588,2.923
			C67.384,62.374,64.451,62.374,61.519,62.374z"/>
		
			<linearGradient id="SVGID_37_" gradientUnits="userSpaceOnUse" x1="74.2769" y1="67.9019" x2="74.2769" y2="65.0097" gradientTransform="matrix(1 0 0 -1 -8.3599 127.3525)">
			<stop  offset="0" style="stop-color:#BBB9B8"/>
			<stop  offset="0.23" style="stop-color:#E8E6E6"/>
			<stop  offset="0.48" style="stop-color:#F0F0EF"/>
			<stop  offset="0.68" style="stop-color:#F7F7F6"/>
			<stop  offset="1" style="stop-color:#F9F8F8"/>
		</linearGradient>
		<path fill="url(#SVGID_37_)" d="M61.591,62.374c0.986-0.747,1.453-1.147,1.562-2.923h5.528c0.11,1.775,0.577,2.176,1.563,2.923
			C67.359,62.374,64.475,62.374,61.591,62.374z"/>
		
			<linearGradient id="SVGID_38_" gradientUnits="userSpaceOnUse" x1="74.2769" y1="67.9019" x2="74.2769" y2="65.0097" gradientTransform="matrix(1 0 0 -1 -8.3599 127.3525)">
			<stop  offset="0" style="stop-color:#B2B0AF"/>
			<stop  offset="0.23" style="stop-color:#E4E3E3"/>
			<stop  offset="0.48" style="stop-color:#EEEEED"/>
			<stop  offset="0.68" style="stop-color:#F7F6F5"/>
			<stop  offset="1" style="stop-color:#F8F7F7"/>
		</linearGradient>
		<path fill="url(#SVGID_38_)" d="M61.664,62.374c0.969-0.747,1.428-1.147,1.536-2.923h5.435c0.107,1.775,0.566,2.176,1.535,2.923
			C67.335,62.374,64.5,62.374,61.664,62.374z"/>
		
			<linearGradient id="SVGID_39_" gradientUnits="userSpaceOnUse" x1="74.2769" y1="67.9019" x2="74.2769" y2="65.0097" gradientTransform="matrix(1 0 0 -1 -8.3599 127.3525)">
			<stop  offset="0" style="stop-color:#A9A7A7"/>
			<stop  offset="0.23" style="stop-color:#E1E0DF"/>
			<stop  offset="0.48" style="stop-color:#ECECEC"/>
			<stop  offset="0.68" style="stop-color:#F6F5F4"/>
			<stop  offset="1" style="stop-color:#F7F7F6"/>
		</linearGradient>
		<path fill="url(#SVGID_39_)" d="M61.737,62.374c0.953-0.747,1.404-1.147,1.51-2.923h5.342c0.106,1.775,0.557,2.176,1.509,2.923
			C67.311,62.374,64.524,62.374,61.737,62.374z"/>
		
			<linearGradient id="SVGID_40_" gradientUnits="userSpaceOnUse" x1="74.2769" y1="67.9019" x2="74.2769" y2="65.0097" gradientTransform="matrix(1 0 0 -1 -8.3599 127.3525)">
			<stop  offset="0" style="stop-color:#A19E9E"/>
			<stop  offset="0.23" style="stop-color:#DEDCDC"/>
			<stop  offset="0.48" style="stop-color:#EAEAEA"/>
			<stop  offset="0.68" style="stop-color:#F5F4F3"/>
			<stop  offset="1" style="stop-color:#F6F6F6"/>
		</linearGradient>
		<path fill="url(#SVGID_40_)" d="M61.81,62.374c0.936-0.747,1.379-1.147,1.483-2.923h5.249c0.104,1.775,0.547,2.176,1.483,2.923
			C67.287,62.374,64.548,62.374,61.81,62.374z"/>
		
			<linearGradient id="SVGID_41_" gradientUnits="userSpaceOnUse" x1="74.2769" y1="67.9019" x2="74.2769" y2="65.0097" gradientTransform="matrix(1 0 0 -1 -8.3599 127.3525)">
			<stop  offset="0" style="stop-color:#989696"/>
			<stop  offset="0.23" style="stop-color:#DBD9D9"/>
			<stop  offset="0.48" style="stop-color:#E9E8E8"/>
			<stop  offset="0.68" style="stop-color:#F4F3F2"/>
			<stop  offset="1" style="stop-color:#F6F5F5"/>
		</linearGradient>
		<path fill="url(#SVGID_41_)" d="M61.882,62.374c0.919-0.747,1.355-1.147,1.457-2.923h5.156c0.103,1.775,0.538,2.176,1.457,2.923
			C67.262,62.374,64.573,62.374,61.882,62.374z"/>
		
			<linearGradient id="SVGID_42_" gradientUnits="userSpaceOnUse" x1="74.2769" y1="67.9019" x2="74.2769" y2="65.0097" gradientTransform="matrix(1 0 0 -1 -8.3599 127.3525)">
			<stop  offset="0" style="stop-color:#908E8E"/>
			<stop  offset="0.23" style="stop-color:#D7D6D6"/>
			<stop  offset="0.48" style="stop-color:#E7E6E6"/>
			<stop  offset="0.68" style="stop-color:#F3F2F2"/>
			<stop  offset="1" style="stop-color:#F5F4F4"/>
		</linearGradient>
		<path fill="url(#SVGID_42_)" d="M61.956,62.374c0.903-0.747,1.33-1.147,1.43-2.923h5.063c0.101,1.775,0.528,2.176,1.431,2.923
			C67.238,62.374,64.597,62.374,61.956,62.374z"/>
		
			<linearGradient id="SVGID_43_" gradientUnits="userSpaceOnUse" x1="74.2769" y1="67.9019" x2="74.2769" y2="65.0097" gradientTransform="matrix(1 0 0 -1 -8.3599 127.3525)">
			<stop  offset="0" style="stop-color:#888787"/>
			<stop  offset="0.23" style="stop-color:#D4D3D3"/>
			<stop  offset="0.48" style="stop-color:#E5E4E5"/>
			<stop  offset="0.68" style="stop-color:#F2F1F1"/>
			<stop  offset="1" style="stop-color:#F4F4F3"/>
		</linearGradient>
		<path fill="url(#SVGID_43_)" d="M62.028,62.374c0.886-0.747,1.306-1.147,1.404-2.923h4.97c0.099,1.775,0.519,2.176,1.405,2.923
			C67.214,62.374,64.621,62.374,62.028,62.374z"/>
		
			<linearGradient id="SVGID_44_" gradientUnits="userSpaceOnUse" x1="74.2769" y1="67.9019" x2="74.2769" y2="65.0097" gradientTransform="matrix(1 0 0 -1 -8.3599 127.3525)">
			<stop  offset="0" style="stop-color:#818080"/>
			<stop  offset="0.23" style="stop-color:#D1D0D0"/>
			<stop  offset="0.48" style="stop-color:#E3E3E3"/>
			<stop  offset="0.68" style="stop-color:#F1F0F0"/>
			<stop  offset="1" style="stop-color:#F3F3F3"/>
		</linearGradient>
		<path fill="url(#SVGID_44_)" d="M62.101,62.374c0.87-0.747,1.281-1.147,1.378-2.923h4.877c0.097,1.775,0.509,2.176,1.378,2.923
			C67.19,62.374,64.645,62.374,62.101,62.374z"/>
		
			<linearGradient id="SVGID_45_" gradientUnits="userSpaceOnUse" x1="74.2769" y1="67.9019" x2="74.2769" y2="65.0097" gradientTransform="matrix(1 0 0 -1 -8.3599 127.3525)">
			<stop  offset="0" style="stop-color:#797979"/>
			<stop  offset="0.23" style="stop-color:#CFCDCD"/>
			<stop  offset="0.48" style="stop-color:#E1E1E1"/>
			<stop  offset="0.68" style="stop-color:#F0EFEF"/>
			<stop  offset="1" style="stop-color:#F3F2F2"/>
		</linearGradient>
		<path fill="url(#SVGID_45_)" d="M62.174,62.374c0.853-0.747,1.257-1.147,1.352-2.923h4.784c0.094,1.775,0.499,2.176,1.351,2.923
			C67.166,62.374,64.669,62.374,62.174,62.374z"/>
		
			<linearGradient id="SVGID_46_" gradientUnits="userSpaceOnUse" x1="74.2769" y1="67.9019" x2="74.2769" y2="65.0097" gradientTransform="matrix(1 0 0 -1 -8.3599 127.3525)">
			<stop  offset="0" style="stop-color:#727373"/>
			<stop  offset="0.23" style="stop-color:#CCCACA"/>
			<stop  offset="0.48" style="stop-color:#DFDFE0"/>
			<stop  offset="0.68" style="stop-color:#F0EFEE"/>
			<stop  offset="1" style="stop-color:#F2F2F1"/>
		</linearGradient>
		<path fill="url(#SVGID_46_)" d="M62.247,62.374c0.836-0.747,1.232-1.147,1.325-2.923h4.691c0.093,1.775,0.489,2.176,1.325,2.923
			C67.141,62.374,64.694,62.374,62.247,62.374z"/>
		
			<linearGradient id="SVGID_47_" gradientUnits="userSpaceOnUse" x1="74.2769" y1="67.9019" x2="74.2769" y2="65.0097" gradientTransform="matrix(1 0 0 -1 -8.3599 127.3525)">
			<stop  offset="0" style="stop-color:#6B6D6D"/>
			<stop  offset="0.23" style="stop-color:#C9C7C7"/>
			<stop  offset="0.48" style="stop-color:#DDDDDE"/>
			<stop  offset="0.68" style="stop-color:#EFEEED"/>
			<stop  offset="1" style="stop-color:#F1F1F1"/>
		</linearGradient>
		<path fill="url(#SVGID_47_)" d="M62.319,62.374c0.82-0.747,1.208-1.147,1.299-2.923h4.598c0.091,1.775,0.479,2.176,1.3,2.923
			C67.117,62.374,64.718,62.374,62.319,62.374z"/>
	</g>
	
		<linearGradient id="SVGID_48_" gradientUnits="userSpaceOnUse" x1="74.2769" y1="64.8989" x2="74.2769" y2="64.4419" gradientTransform="matrix(1 0 0 -1 -8.3599 127.3525)">
		<stop  offset="0" style="stop-color:#6B6D6D"/>
		<stop  offset="1" style="stop-color:#EAEAE8"/>
	</linearGradient>
	<rect x="61.155" y="62.374" fill="url(#SVGID_48_)" width="9.525" height="0.541"/>
	<path fill="#FFFFFF" d="M53.935,41.788h24.05c0.537,0,0.976,0.447,0.976,0.994v15.911c0,0.547-0.438,0.995-0.976,0.995h-24.05
		c-0.536,0-0.975-0.448-0.975-0.995V42.782C52.959,42.235,53.398,41.788,53.935,41.788z"/>
	
		<linearGradient id="SVGID_49_" gradientUnits="userSpaceOnUse" x1="61.334" y1="76.6685" x2="87.5232" y2="76.6685" gradientTransform="matrix(1 0 0 -1 -8.3599 127.3525)">
		<stop  offset="0" style="stop-color:#DBDBDB"/>
		<stop  offset="1" style="stop-color:#C4C4C8"/>
	</linearGradient>
	<path fill="url(#SVGID_49_)" d="M53.948,41.919h24.024c0.535,0,0.974,0.438,0.974,0.974v15.583c0,0.536-0.438,0.975-0.974,0.975
		H53.948c-0.536,0-0.974-0.438-0.974-0.975V42.893C52.974,42.357,53.412,41.919,53.948,41.919z"/>
	<path d="M53.948,41.989h24.024c0.535,0,0.974,0.438,0.974,0.974v13.636H52.974V42.962C52.974,42.427,53.412,41.989,53.948,41.989z"
		/>
	
		<linearGradient id="SVGID_50_" gradientUnits="userSpaceOnUse" x1="67.1494" y1="77.1353" x2="83.9975" y2="84.6365" gradientTransform="matrix(1 0 0 -1 -8.3599 127.3525)">
		<stop  offset="0" style="stop-color:#000000"/>
		<stop  offset="1" style="stop-color:#FFFFFF"/>
	</linearGradient>
	<path fill="url(#SVGID_50_)" d="M53.948,41.989h9.818l4.222,14.609H52.974V42.962C52.974,42.427,53.412,41.989,53.948,41.989z"/>
	
		<linearGradient id="SVGID_51_" gradientUnits="userSpaceOnUse" x1="55.9487" y1="77.4614" x2="81.9269" y2="83.9385" gradientTransform="matrix(1 0 0 -1 -8.3599 127.3525)">
		<stop  offset="0" style="stop-color:#000000"/>
		<stop  offset="1" style="stop-color:#FFFFFF"/>
	</linearGradient>
	<path fill="url(#SVGID_51_)" d="M53.948,41.989h9.818l2.753,9.529c-0.065,0-0.13,0.001-0.195,0.001
		c-5.414,0-10.238-0.973-13.35-2.488v-6.068C52.974,42.427,53.412,41.989,53.948,41.989z"/>
	<polygon fill="#007CA5" points="53.461,42.811 78.458,42.811 78.458,43.081 53.743,43.081 53.743,55.651 53.461,55.651 	"/>
	<polygon fill="#FFFFFF" points="78.458,55.651 53.461,55.651 53.753,55.511 78.177,55.381 78.243,43.006 78.458,42.811 	"/>
	
		<linearGradient id="SVGID_52_" gradientUnits="userSpaceOnUse" x1="61.8267" y1="78.1216" x2="86.8117" y2="78.1216" gradientTransform="matrix(1 0 0 -1 -8.3599 127.3525)">
		<stop  offset="0" style="stop-color:#A0D8E6"/>
		<stop  offset="1" style="stop-color:#C9E0E6"/>
	</linearGradient>
	<rect x="53.62" y="42.893" fill="url(#SVGID_52_)" width="24.68" height="12.676"/>
	<g>
		
			<linearGradient id="SVGID_53_" gradientUnits="userSpaceOnUse" x1="61.8154" y1="78.1216" x2="86.6596" y2="78.1216" gradientTransform="matrix(1 0 0 -1 -8.3599 127.3525)">
			<stop  offset="0" style="stop-color:#A0D8E6"/>
			<stop  offset="1" style="stop-color:#C9E0E6"/>
		</linearGradient>
		<path fill="url(#SVGID_53_)" d="M54.797,42.893h22.325c0.647,0,1.178,0.507,1.178,1.126v10.423c0,0.62-0.53,1.127-1.178,1.127
			H54.797c-0.647,0-1.177-0.507-1.177-1.127V44.019C53.62,43.399,54.15,42.893,54.797,42.893z"/>
		
			<linearGradient id="SVGID_54_" gradientUnits="userSpaceOnUse" x1="61.9004" y1="78.1216" x2="86.6302" y2="78.1216" gradientTransform="matrix(1 0 0 -1 -8.3599 127.3525)">
			<stop  offset="0" style="stop-color:#9AD6E5"/>
			<stop  offset="0.6966" style="stop-color:#B3DAE5"/>
			<stop  offset="1" style="stop-color:#C5DEE6"/>
		</linearGradient>
		<path fill="url(#SVGID_54_)" d="M54.85,42.923h22.219c0.646,0,1.172,0.504,1.172,1.121v10.374c0,0.617-0.526,1.122-1.172,1.122
			H54.85c-0.645,0-1.172-0.505-1.172-1.122V44.044C53.678,43.427,54.206,42.923,54.85,42.923z"/>
		
			<linearGradient id="SVGID_55_" gradientUnits="userSpaceOnUse" x1="61.9854" y1="78.1216" x2="86.6" y2="78.1216" gradientTransform="matrix(1 0 0 -1 -8.3599 127.3525)">
			<stop  offset="0" style="stop-color:#94D4E5"/>
			<stop  offset="0.6966" style="stop-color:#A8D7E5"/>
			<stop  offset="1" style="stop-color:#C1DDE6"/>
		</linearGradient>
		<path fill="url(#SVGID_55_)" d="M54.903,42.953h22.114c0.641,0,1.166,0.502,1.166,1.116v10.324c0,0.614-0.525,1.116-1.166,1.116
			H54.903c-0.641,0-1.166-0.502-1.166-1.116V44.069C53.737,43.455,54.262,42.953,54.903,42.953z"/>
		
			<linearGradient id="SVGID_56_" gradientUnits="userSpaceOnUse" x1="62.0703" y1="78.1216" x2="86.5701" y2="78.1216" gradientTransform="matrix(1 0 0 -1 -8.3599 127.3525)">
			<stop  offset="0" style="stop-color:#8ED1E5"/>
			<stop  offset="0.6966" style="stop-color:#9DD4E5"/>
			<stop  offset="1" style="stop-color:#BDDCE6"/>
		</linearGradient>
		<path fill="url(#SVGID_56_)" d="M54.956,42.982h22.007c0.639,0,1.161,0.5,1.161,1.111v10.275c0,0.61-0.522,1.11-1.161,1.11H54.956
			c-0.639,0-1.161-0.5-1.161-1.11V44.093C53.795,43.482,54.317,42.982,54.956,42.982z"/>
		
			<linearGradient id="SVGID_57_" gradientUnits="userSpaceOnUse" x1="62.1553" y1="78.1216" x2="86.5398" y2="78.1216" gradientTransform="matrix(1 0 0 -1 -8.3599 127.3525)">
			<stop  offset="0" style="stop-color:#88CFE5"/>
			<stop  offset="0.6966" style="stop-color:#92D1E5"/>
			<stop  offset="1" style="stop-color:#B9DBE6"/>
		</linearGradient>
		<path fill="url(#SVGID_57_)" d="M55.009,43.013h21.902c0.636,0,1.155,0.498,1.155,1.105v10.225c0,0.608-0.52,1.105-1.155,1.105
			H55.009c-0.635,0-1.155-0.497-1.155-1.105V44.118C53.854,43.51,54.374,43.013,55.009,43.013z"/>
		
			<linearGradient id="SVGID_58_" gradientUnits="userSpaceOnUse" x1="62.2397" y1="78.1216" x2="86.5092" y2="78.1216" gradientTransform="matrix(1 0 0 -1 -8.3599 127.3525)">
			<stop  offset="0" style="stop-color:#82CDE4"/>
			<stop  offset="0.6966" style="stop-color:#87CEE4"/>
			<stop  offset="1" style="stop-color:#B4DAE6"/>
		</linearGradient>
		<path fill="url(#SVGID_58_)" d="M55.062,43.042h21.796c0.632,0,1.149,0.495,1.149,1.1v10.176c0,0.605-0.517,1.1-1.149,1.1H55.062
			c-0.632,0-1.149-0.494-1.149-1.1V44.143C53.913,43.538,54.43,43.042,55.062,43.042z"/>
		
			<linearGradient id="SVGID_59_" gradientUnits="userSpaceOnUse" x1="62.3306" y1="78.1216" x2="86.4852" y2="78.1216" gradientTransform="matrix(1 0 0 -1 -8.3599 127.3525)">
			<stop  offset="0" style="stop-color:#7BCBE4"/>
			<stop  offset="0.6966" style="stop-color:#7BCBE4"/>
			<stop  offset="1" style="stop-color:#B0D9E6"/>
		</linearGradient>
		<path fill="url(#SVGID_59_)" d="M55.115,43.073h21.69c0.63,0,1.144,0.493,1.144,1.095v10.127c0,0.602-0.515,1.095-1.144,1.095
			h-21.69c-0.629,0-1.144-0.493-1.144-1.095V44.167C53.971,43.565,54.486,43.073,55.115,43.073z"/>
		
			<linearGradient id="SVGID_60_" gradientUnits="userSpaceOnUse" x1="62.3892" y1="78.1216" x2="86.4285" y2="78.1216" gradientTransform="matrix(1 0 0 -1 -8.3599 127.3525)">
			<stop  offset="0" style="stop-color:#75C9E4"/>
			<stop  offset="0.6966" style="stop-color:#6EC9E4"/>
			<stop  offset="1" style="stop-color:#ACD8E6"/>
		</linearGradient>
		<path fill="url(#SVGID_60_)" d="M55.167,43.103h21.584c0.627,0,1.139,0.49,1.139,1.089V54.27c0,0.599-0.512,1.089-1.139,1.089
			H55.167c-0.626,0-1.138-0.49-1.138-1.089V44.192C54.029,43.593,54.542,43.103,55.167,43.103z"/>
		
			<linearGradient id="SVGID_61_" gradientUnits="userSpaceOnUse" x1="62.4907" y1="78.1216" x2="86.415" y2="78.1216" gradientTransform="matrix(1 0 0 -1 -8.3599 127.3525)">
			<stop  offset="0" style="stop-color:#6EC7E4"/>
			<stop  offset="0.6966" style="stop-color:#61C6E4"/>
			<stop  offset="1" style="stop-color:#A8D7E6"/>
		</linearGradient>
		<path fill="url(#SVGID_61_)" d="M55.221,43.133h21.478c0.624,0,1.133,0.488,1.133,1.084v10.028c0,0.597-0.509,1.084-1.133,1.084
			H55.221c-0.623,0-1.133-0.487-1.133-1.084V44.217C54.088,43.621,54.598,43.133,55.221,43.133z"/>
		
			<linearGradient id="SVGID_62_" gradientUnits="userSpaceOnUse" x1="62.5742" y1="78.1216" x2="86.3832" y2="78.1216" gradientTransform="matrix(1 0 0 -1 -8.3599 127.3525)">
			<stop  offset="0" style="stop-color:#67C5E4"/>
			<stop  offset="0.6966" style="stop-color:#51C4E4"/>
			<stop  offset="1" style="stop-color:#A3D6E6"/>
		</linearGradient>
		<path fill="url(#SVGID_62_)" d="M55.273,43.163h21.373c0.62,0,1.127,0.485,1.127,1.079v9.979c0,0.593-0.507,1.079-1.127,1.079
			H55.273c-0.62,0-1.127-0.486-1.127-1.079v-9.979C54.146,43.648,54.653,43.163,55.273,43.163z"/>
		
			<linearGradient id="SVGID_63_" gradientUnits="userSpaceOnUse" x1="62.6572" y1="78.1216" x2="86.353" y2="78.1216" gradientTransform="matrix(1 0 0 -1 -8.3599 127.3525)">
			<stop  offset="0" style="stop-color:#5FC4E3"/>
			<stop  offset="0.6966" style="stop-color:#3DC1E4"/>
			<stop  offset="1" style="stop-color:#9FD5E6"/>
		</linearGradient>
		<path fill="url(#SVGID_63_)" d="M55.326,43.193h21.267c0.617,0,1.122,0.483,1.122,1.073v9.93c0,0.59-0.505,1.073-1.122,1.073
			H55.326c-0.617,0-1.121-0.483-1.121-1.073v-9.93C54.205,43.676,54.709,43.193,55.326,43.193z"/>
		
			<linearGradient id="SVGID_64_" gradientUnits="userSpaceOnUse" x1="62.7397" y1="78.1216" x2="86.3205" y2="78.1216" gradientTransform="matrix(1 0 0 -1 -8.3599 127.3525)">
			<stop  offset="0" style="stop-color:#57C2E3"/>
			<stop  offset="0.6966" style="stop-color:#20BFE4"/>
			<stop  offset="1" style="stop-color:#9AD4E6"/>
		</linearGradient>
		<path fill="url(#SVGID_64_)" d="M55.379,43.223h21.161c0.614,0,1.116,0.481,1.116,1.068v9.879c0,0.588-0.502,1.068-1.116,1.068
			H55.379c-0.614,0-1.116-0.48-1.116-1.068v-9.879C54.263,43.704,54.766,43.223,55.379,43.223z"/>
		
			<linearGradient id="SVGID_65_" gradientUnits="userSpaceOnUse" x1="62.8223" y1="78.1216" x2="86.2877" y2="78.1216" gradientTransform="matrix(1 0 0 -1 -8.3599 127.3525)">
			<stop  offset="0" style="stop-color:#4FC0E3"/>
			<stop  offset="0.6966" style="stop-color:#00BDE4"/>
			<stop  offset="1" style="stop-color:#96D3E6"/>
		</linearGradient>
		<path fill="url(#SVGID_65_)" d="M55.432,43.253h21.056c0.61,0,1.11,0.478,1.11,1.063v9.831c0,0.584-0.5,1.063-1.11,1.063H55.432
			c-0.611,0-1.11-0.479-1.11-1.063v-9.831C54.322,43.731,54.821,43.253,55.432,43.253z"/>
		
			<linearGradient id="SVGID_66_" gradientUnits="userSpaceOnUse" x1="62.9048" y1="78.1216" x2="86.2548" y2="78.1216" gradientTransform="matrix(1 0 0 -1 -8.3599 127.3525)">
			<stop  offset="0" style="stop-color:#45BEE3"/>
			<stop  offset="0.6966" style="stop-color:#00BAE4"/>
			<stop  offset="1" style="stop-color:#91D2E6"/>
		</linearGradient>
		<path fill="url(#SVGID_66_)" d="M55.485,43.283h20.95c0.607,0,1.104,0.476,1.104,1.057v9.781c0,0.581-0.497,1.058-1.104,1.058
			h-20.95c-0.607,0-1.104-0.477-1.104-1.058V44.34C54.38,43.759,54.877,43.283,55.485,43.283z"/>
		
			<linearGradient id="SVGID_67_" gradientUnits="userSpaceOnUse" x1="62.9868" y1="78.1216" x2="86.2215" y2="78.1216" gradientTransform="matrix(1 0 0 -1 -8.3599 127.3525)">
			<stop  offset="0" style="stop-color:#39BCE3"/>
			<stop  offset="0.6966" style="stop-color:#00B8E4"/>
			<stop  offset="1" style="stop-color:#8DD1E6"/>
		</linearGradient>
		<path fill="url(#SVGID_67_)" d="M55.538,43.313h20.844c0.604,0,1.099,0.474,1.099,1.052v9.731c0,0.579-0.494,1.053-1.099,1.053
			H55.538c-0.605,0-1.099-0.474-1.099-1.053v-9.731C54.438,43.787,54.933,43.313,55.538,43.313z"/>
		
			<linearGradient id="SVGID_68_" gradientUnits="userSpaceOnUse" x1="63.0688" y1="78.1216" x2="86.1883" y2="78.1216" gradientTransform="matrix(1 0 0 -1 -8.3599 127.3525)">
			<stop  offset="0" style="stop-color:#2BBBE3"/>
			<stop  offset="0.6966" style="stop-color:#00B6E4"/>
			<stop  offset="1" style="stop-color:#88D0E6"/>
		</linearGradient>
		<path fill="url(#SVGID_68_)" d="M55.591,43.343h20.738c0.603,0,1.094,0.471,1.094,1.046v9.682c0,0.576-0.491,1.046-1.094,1.046
			H55.591c-0.602,0-1.093-0.471-1.093-1.046V44.39C54.497,43.814,54.989,43.343,55.591,43.343z"/>
		
			<linearGradient id="SVGID_69_" gradientUnits="userSpaceOnUse" x1="63.1504" y1="78.1216" x2="86.1547" y2="78.1216" gradientTransform="matrix(1 0 0 -1 -8.3599 127.3525)">
			<stop  offset="0" style="stop-color:#16B9E3"/>
			<stop  offset="0.6966" style="stop-color:#00B4E4"/>
			<stop  offset="1" style="stop-color:#83D0E6"/>
		</linearGradient>
		<path fill="url(#SVGID_69_)" d="M55.644,43.373h20.632c0.599,0,1.088,0.469,1.088,1.042v9.633c0,0.573-0.489,1.041-1.088,1.041
			H55.644c-0.599,0-1.088-0.468-1.088-1.041v-9.633C54.556,43.842,55.045,43.373,55.644,43.373z"/>
	</g>
	<rect x="52.974" y="56.383" fill="#989494" width="25.972" height="0.215"/>
	<rect x="52.974" y="56.598" fill="#F3F3F3" width="25.972" height="0.141"/>
	<g>
		
			<linearGradient id="SVGID_70_" gradientUnits="userSpaceOnUse" x1="62.7939" y1="69.2095" x2="86.1852" y2="69.2095" gradientTransform="matrix(1 0 0 -1 -8.3599 127.3525)">
			<stop  offset="0" style="stop-color:#DBDBDB"/>
			<stop  offset="1" style="stop-color:#C4C6C9"/>
		</linearGradient>
		<path fill="url(#SVGID_70_)" d="M65.712,56.866c6.633,0,12.261,1.654,12.261,2.554H53.947
			C53.947,58.52,59.078,56.866,65.712,56.866z"/>
		
			<linearGradient id="SVGID_71_" gradientUnits="userSpaceOnUse" x1="63.1714" y1="69.1431" x2="85.7272" y2="69.1431" gradientTransform="matrix(1 0 0 -1 -8.3599 127.3525)">
			<stop  offset="0" style="stop-color:#DCDCDC"/>
			<stop  offset="1" style="stop-color:#C6C8CA"/>
		</linearGradient>
		<path fill="url(#SVGID_71_)" d="M65.728,57.004c6.398,0,11.819,1.559,11.819,2.411H54.374
			C54.374,58.563,59.33,57.004,65.728,57.004z"/>
		
			<linearGradient id="SVGID_72_" gradientUnits="userSpaceOnUse" x1="63.5508" y1="69.0747" x2="85.2735" y2="69.0747" gradientTransform="matrix(1 0 0 -1 -8.3599 127.3525)">
			<stop  offset="0" style="stop-color:#DEDEDE"/>
			<stop  offset="1" style="stop-color:#C9CACC"/>
		</linearGradient>
		<path fill="url(#SVGID_72_)" d="M65.743,57.143c6.162,0,11.377,1.463,11.377,2.269H54.8C54.8,58.606,59.581,57.143,65.743,57.143z
			"/>
		
			<linearGradient id="SVGID_73_" gradientUnits="userSpaceOnUse" x1="63.9326" y1="69.0083" x2="84.8221" y2="69.0083" gradientTransform="matrix(1 0 0 -1 -8.3599 127.3525)">
			<stop  offset="0" style="stop-color:#DFDFDF"/>
			<stop  offset="1" style="stop-color:#CBCCCE"/>
		</linearGradient>
		<path fill="url(#SVGID_73_)" d="M65.758,57.283c5.927,0,10.936,1.366,10.936,2.124H55.227
			C55.227,58.649,59.832,57.283,65.758,57.283z"/>
		
			<linearGradient id="SVGID_74_" gradientUnits="userSpaceOnUse" x1="64.3169" y1="68.9399" x2="84.3714" y2="68.9399" gradientTransform="matrix(1 0 0 -1 -8.3599 127.3525)">
			<stop  offset="0" style="stop-color:#E1E1E1"/>
			<stop  offset="1" style="stop-color:#CDCED0"/>
		</linearGradient>
		<path fill="url(#SVGID_74_)" d="M65.774,57.421c5.691,0,10.493,1.271,10.493,1.981H55.653
			C55.653,58.692,60.083,57.421,65.774,57.421z"/>
		
			<linearGradient id="SVGID_75_" gradientUnits="userSpaceOnUse" x1="64.7036" y1="68.8735" x2="83.9258" y2="68.8735" gradientTransform="matrix(1 0 0 -1 -8.3599 127.3525)">
			<stop  offset="0" style="stop-color:#E3E2E2"/>
			<stop  offset="1" style="stop-color:#D0D1D2"/>
		</linearGradient>
		<path fill="url(#SVGID_75_)" d="M65.79,57.561c5.456,0,10.051,1.174,10.051,1.837H56.08C56.08,58.735,60.333,57.561,65.79,57.561z
			"/>
		
			<linearGradient id="SVGID_76_" gradientUnits="userSpaceOnUse" x1="65.0928" y1="68.8052" x2="83.4806" y2="68.8052" gradientTransform="matrix(1 0 0 -1 -8.3599 127.3525)">
			<stop  offset="0" style="stop-color:#E4E4E4"/>
			<stop  offset="1" style="stop-color:#D2D3D4"/>
		</linearGradient>
		<path fill="url(#SVGID_76_)" d="M65.805,57.7c5.22,0,9.609,1.079,9.609,1.694H56.506C56.506,58.778,60.584,57.7,65.805,57.7z"/>
		
			<linearGradient id="SVGID_77_" gradientUnits="userSpaceOnUse" x1="65.4839" y1="68.7388" x2="83.04" y2="68.7388" gradientTransform="matrix(1 0 0 -1 -8.3599 127.3525)">
			<stop  offset="0" style="stop-color:#E6E5E5"/>
			<stop  offset="1" style="stop-color:#D5D5D7"/>
		</linearGradient>
		<path fill="url(#SVGID_77_)" d="M65.821,57.839c4.984,0,9.166,0.981,9.166,1.55H56.933C56.933,58.821,60.835,57.839,65.821,57.839
			z"/>
		
			<linearGradient id="SVGID_78_" gradientUnits="userSpaceOnUse" x1="65.8774" y1="68.6704" x2="82.5999" y2="68.6704" gradientTransform="matrix(1 0 0 -1 -8.3599 127.3525)">
			<stop  offset="0" style="stop-color:#E7E7E7"/>
			<stop  offset="1" style="stop-color:#D7D7D9"/>
		</linearGradient>
		<path fill="url(#SVGID_78_)" d="M65.836,57.978c4.75,0,8.724,0.886,8.724,1.407H57.359C57.359,58.864,61.087,57.978,65.836,57.978
			z"/>
		
			<linearGradient id="SVGID_79_" gradientUnits="userSpaceOnUse" x1="66.2734" y1="68.604" x2="82.1647" y2="68.604" gradientTransform="matrix(1 0 0 -1 -8.3599 127.3525)">
			<stop  offset="0" style="stop-color:#E9E8E8"/>
			<stop  offset="1" style="stop-color:#DADADB"/>
		</linearGradient>
		<path fill="url(#SVGID_79_)" d="M65.852,58.118c4.513,0,8.283,0.789,8.283,1.263H57.786
			C57.786,58.907,61.338,58.118,65.852,58.118z"/>
		
			<linearGradient id="SVGID_80_" gradientUnits="userSpaceOnUse" x1="66.6719" y1="68.5356" x2="81.732" y2="68.5356" gradientTransform="matrix(1 0 0 -1 -8.3599 127.3525)">
			<stop  offset="0" style="stop-color:#EAEAEA"/>
			<stop  offset="1" style="stop-color:#DCDCDD"/>
		</linearGradient>
		<path fill="url(#SVGID_80_)" d="M65.867,58.256c4.278,0,7.841,0.693,7.841,1.12H58.212C58.212,58.95,61.589,58.256,65.867,58.256z
			"/>
		
			<linearGradient id="SVGID_81_" gradientUnits="userSpaceOnUse" x1="67.0728" y1="68.4692" x2="81.2997" y2="68.4692" gradientTransform="matrix(1 0 0 -1 -8.3599 127.3525)">
			<stop  offset="0" style="stop-color:#ECECEC"/>
			<stop  offset="1" style="stop-color:#DFDFDF"/>
		</linearGradient>
		<path fill="url(#SVGID_81_)" d="M65.882,58.396c4.043,0,7.398,0.597,7.398,0.976H58.639C58.639,58.993,61.84,58.396,65.882,58.396
			z"/>
		
			<linearGradient id="SVGID_82_" gradientUnits="userSpaceOnUse" x1="67.4761" y1="68.4009" x2="80.873" y2="68.4009" gradientTransform="matrix(1 0 0 -1 -8.3599 127.3525)">
			<stop  offset="0" style="stop-color:#EEEDED"/>
			<stop  offset="1" style="stop-color:#E2E1E1"/>
		</linearGradient>
		<path fill="url(#SVGID_82_)" d="M65.898,58.535c3.807,0,6.956,0.501,6.956,0.833H59.065
			C59.065,59.036,62.091,58.535,65.898,58.535z"/>
		
			<linearGradient id="SVGID_83_" gradientUnits="userSpaceOnUse" x1="67.8818" y1="68.3335" x2="80.4463" y2="68.3335" gradientTransform="matrix(1 0 0 -1 -8.3599 127.3525)">
			<stop  offset="0" style="stop-color:#EFEFEF"/>
			<stop  offset="1" style="stop-color:#E4E3E3"/>
		</linearGradient>
		<path fill="url(#SVGID_83_)" d="M65.914,58.674c3.571,0,6.514,0.404,6.514,0.689H59.492
			C59.492,59.079,62.342,58.674,65.914,58.674z"/>
		
			<linearGradient id="SVGID_84_" gradientUnits="userSpaceOnUse" x1="68.2783" y1="68.2661" x2="80.0131" y2="68.2661" gradientTransform="matrix(1 0 0 -1 -8.3599 127.3525)">
			<stop  offset="0" style="stop-color:#F1F1F1"/>
			<stop  offset="1" style="stop-color:#E7E6E6"/>
		</linearGradient>
		<path fill="url(#SVGID_84_)" d="M65.929,58.813c3.336,0,6.073,0.309,6.073,0.547H59.918
			C59.918,59.122,62.593,58.813,65.929,58.813z"/>
		
			<linearGradient id="SVGID_85_" gradientUnits="userSpaceOnUse" x1="68.7051" y1="68.1987" x2="79.6099" y2="68.1987" gradientTransform="matrix(1 0 0 -1 -8.3599 127.3525)">
			<stop  offset="0" style="stop-color:#F2F2F2"/>
			<stop  offset="1" style="stop-color:#EAE8E8"/>
		</linearGradient>
		<path fill="url(#SVGID_85_)" d="M65.944,58.953c3.1,0,5.63,0.212,5.63,0.402H60.345C60.345,59.165,62.844,58.953,65.944,58.953z"
			/>
		
			<linearGradient id="SVGID_86_" gradientUnits="userSpaceOnUse" x1="69.1128" y1="68.1313" x2="79.1858" y2="68.1313" gradientTransform="matrix(1 0 0 -1 -8.3599 127.3525)">
			<stop  offset="0" style="stop-color:#F4F4F4"/>
			<stop  offset="1" style="stop-color:#ECEBEA"/>
		</linearGradient>
		<path fill="url(#SVGID_86_)" d="M65.96,59.091c2.865,0,5.188,0.116,5.188,0.259H60.772C60.772,59.208,63.095,59.091,65.96,59.091z
			"/>
	</g>
	<g>
		<path fill="#EAE9E9" d="M65.886,61.531c1.981,0,3.663,0.544,3.663,0.839h-7.176C62.372,62.075,63.904,61.531,65.886,61.531z"/>
		<path fill="#EBEBEA" d="M65.891,61.577c1.911,0,3.53,0.512,3.53,0.791H62.5C62.5,62.088,63.979,61.577,65.891,61.577z"/>
		<path fill="#ECECEB" d="M65.895,61.623c1.841,0,3.398,0.48,3.398,0.744h-6.667C62.627,62.102,64.054,61.623,65.895,61.623z"/>
		<path fill="#EDEDEC" d="M65.9,61.668c1.77,0,3.266,0.448,3.266,0.697h-6.411C62.754,62.117,64.129,61.668,65.9,61.668z"/>
		<path fill="#EEEEED" d="M65.904,61.713c1.7,0,3.134,0.417,3.134,0.65h-6.157C62.882,62.13,64.205,61.713,65.904,61.713z"/>
		<path fill="#EFEFEE" d="M65.909,61.759c1.629,0,3.002,0.386,3.002,0.604h-5.902C63.009,62.145,64.279,61.759,65.909,61.759z"/>
		<path fill="#F0F0EF" d="M65.914,61.805c1.56,0,2.87,0.354,2.87,0.556h-5.647C63.136,62.159,64.354,61.805,65.914,61.805z"/>
		<path fill="#F2F1F1" d="M65.918,61.851c1.489,0,2.738,0.322,2.738,0.509h-5.393C63.264,62.173,64.43,61.851,65.918,61.851z"/>
		<path fill="#F3F2F2" d="M65.923,61.896c1.418,0,2.606,0.291,2.606,0.462h-5.138C63.391,62.187,64.504,61.896,65.923,61.896z"/>
		<path fill="#F4F4F3" d="M65.927,61.942c1.348,0,2.474,0.26,2.474,0.415h-4.883C63.519,62.202,64.58,61.942,65.927,61.942z"/>
		<path fill="#F5F5F4" d="M65.932,61.988c1.278,0,2.342,0.228,2.342,0.367h-4.628C63.646,62.215,64.654,61.988,65.932,61.988z"/>
		<path fill="#F6F6F6" d="M65.937,62.034c1.207,0,2.209,0.195,2.209,0.32h-4.373C63.773,62.229,64.729,62.034,65.937,62.034z"/>
		<path fill="#F8F8F7" d="M65.941,62.08c1.137,0,2.078,0.164,2.078,0.273h-4.118C63.901,62.244,64.805,62.08,65.941,62.08z"/>
		<path fill="#F9F9F9" d="M65.946,62.125c1.066,0,1.946,0.133,1.946,0.227h-3.864C64.028,62.257,64.879,62.125,65.946,62.125z"/>
		<path fill="#FBFBFB" d="M65.951,62.17c0.997,0,1.814,0.102,1.814,0.18h-3.609C64.156,62.272,64.955,62.17,65.951,62.17z"/>
		<path fill="#FDFDFD" d="M65.955,62.216c0.926,0,1.682,0.069,1.682,0.132h-3.354C64.283,62.286,65.029,62.216,65.955,62.216z"/>
		<path fill="#FFFFFF" d="M65.96,62.261c0.856,0,1.55,0.038,1.55,0.086h-3.099C64.411,62.299,65.104,62.261,65.96,62.261z"/>
	</g>
	
		<linearGradient id="SVGID_87_" gradientUnits="userSpaceOnUse" x1="69.5151" y1="64.9077" x2="79.1205" y2="64.9077" gradientTransform="matrix(1 0 0 -1 -8.3599 127.3525)">
		<stop  offset="0" style="stop-color:#DBDBDB"/>
		<stop  offset="1" style="stop-color:#C4C4C8"/>
	</linearGradient>
	<rect x="61.155" y="62.374" fill="url(#SVGID_87_)" width="9.525" height="0.143"/>
	<rect x="52.974" y="56.288" width="25.972" height="0.096"/>
	<rect x="61.155" y="62.828" width="9.525" height="0.088"/>
	
		<linearGradient id="SVGID_88_" gradientUnits="userSpaceOnUse" x1="74.3198" y1="84.6177" x2="74.3198" y2="85.5033" gradientTransform="matrix(1 0 0 -1 -8.3599 127.3525)">
		<stop  offset="0" style="stop-color:#EAEAEA"/>
		<stop  offset="1" style="stop-color:#FFFFFF"/>
	</linearGradient>
	<path fill="url(#SVGID_88_)" d="M53.948,41.926h24.024c0.535,0,0.974,0.438,0.974,0.974v0.244c0-0.536-0.438-0.974-0.974-0.974
		H53.948c-0.536,0-0.974,0.438-0.974,0.974V42.9C52.974,42.364,53.412,41.926,53.948,41.926z"/>
	
		<linearGradient id="SVGID_89_" gradientUnits="userSpaceOnUse" x1="85.6968" y1="67.8267" x2="85.4133" y2="71.0665" gradientTransform="matrix(1 0 0 -1 -8.3599 127.3525)">
		<stop  offset="0" style="stop-color:#F4DE3E"/>
		<stop  offset="1" style="stop-color:#F7C720"/>
	</linearGradient>
	<path fill="url(#SVGID_89_)" d="M77.206,58.917c0.507,0,0.921-0.4,0.921-0.891c0-0.491-0.414-0.891-0.921-0.891
		s-0.921,0.399-0.921,0.891C76.285,58.516,76.698,58.917,77.206,58.917z"/>
	
		<linearGradient id="SVGID_90_" gradientUnits="userSpaceOnUse" x1="85.0513" y1="69.9849" x2="86.1506" y2="68.5778" gradientTransform="matrix(1 0 0 -1 -8.3599 127.3525)">
		<stop  offset="0" style="stop-color:#996E34"/>
		<stop  offset="1" style="stop-color:#F7C720"/>
	</linearGradient>
	<path fill="url(#SVGID_90_)" d="M77.206,58.77c0.424,0,0.77-0.335,0.77-0.744c0-0.41-0.346-0.744-0.77-0.744
		c-0.425,0-0.771,0.334-0.771,0.744C76.435,58.435,76.781,58.77,77.206,58.77z"/>
	<path fill="#F2D80D" d="M77.206,58.632c0.345,0,0.628-0.272,0.628-0.606c0-0.335-0.282-0.607-0.628-0.607s-0.628,0.272-0.628,0.607
		C76.578,58.36,76.86,58.632,77.206,58.632z"/>
	
		<linearGradient id="SVGID_91_" gradientUnits="userSpaceOnUse" x1="85.5649" y1="69.0786" x2="85.5649" y2="67.6916" gradientTransform="matrix(1 0 0 -1 -8.3599 127.3525)">
		<stop  offset="0" style="stop-color:#F3E8B3"/>
		<stop  offset="1" style="stop-color:#FFFFFF"/>
	</linearGradient>
	<path fill="url(#SVGID_91_)" d="M78.123,58.1c0.002,0.024,0.004,0.05,0.004,0.074c0,0.492-0.412,0.891-0.921,0.891
		s-0.921-0.398-0.921-0.891c0-0.024,0.001-0.05,0.003-0.074c0.039,0.457,0.435,0.816,0.918,0.816
		C77.688,58.917,78.083,58.557,78.123,58.1z"/>
	
		<linearGradient id="SVGID_92_" gradientUnits="userSpaceOnUse" x1="62.123" y1="75.7534" x2="73.9919" y2="79.3821" gradientTransform="matrix(1 0 0 -1 -8.3599 127.3525)">
		<stop  offset="0" style="stop-color:#16B9E3"/>
		<stop  offset="1" style="stop-color:#8CD2E6"/>
	</linearGradient>
	<path fill="url(#SVGID_92_)" d="M64.166,43.373l3.385,11.715H55.644c-0.599,0-1.088-0.469-1.088-1.041v-9.633
		c0-0.573,0.49-1.042,1.088-1.042H64.166z"/>
	<g>
		<path fill="#00B4E4" d="M70.051,46.319c0.959,3.244,1.36,6.719-2.42,8.711L64.16,43.281C64.63,43.17,69.093,43.075,70.051,46.319z
			"/>
		<path fill="#00B2E2" d="M69.802,46.494c0.925,3.129,1.318,6.458-2.23,8.327l-3.348-11.332
			C64.669,43.385,68.878,43.365,69.802,46.494z"/>
		<path fill="#00B0E0" d="M69.553,46.668c0.891,3.013,1.276,6.197-2.041,7.943l-3.225-10.915
			C64.709,43.598,68.663,43.655,69.553,46.668z"/>
		<path fill="#00AFDF" d="M69.304,46.843c0.856,2.898,1.234,5.938-1.851,7.56l-3.102-10.497
			C64.748,43.812,68.448,43.945,69.304,46.843z"/>
		<path fill="#00AEDD" d="M69.055,47.018c0.822,2.783,1.192,5.677-1.661,7.175l-2.979-10.079
			C64.787,44.026,68.233,44.235,69.055,47.018z"/>
		<path fill="#00ACDC" d="M68.807,47.193c0.788,2.668,1.15,5.416-1.472,6.792l-2.855-9.663
			C64.826,44.24,68.018,44.525,68.807,47.193z"/>
		<path fill="#00ABDB" d="M68.557,47.368c0.755,2.553,1.108,5.155-1.282,6.407l-2.731-9.245
			C64.866,44.454,67.803,44.815,68.557,47.368z"/>
		<path fill="#00AAD9" d="M68.309,47.542c0.72,2.438,1.066,4.896-1.093,6.023l-2.608-8.828
			C64.905,44.668,67.588,45.105,68.309,47.542z"/>
		<path fill="#00A9D8" d="M68.06,47.717c0.686,2.323,1.024,4.635-0.903,5.64l-2.485-8.411C64.944,44.882,67.374,45.395,68.06,47.717
			z"/>
		<path fill="#00A7D7" d="M67.811,47.892c0.652,2.207,0.982,4.374-0.713,5.256l-2.362-7.994
			C64.983,45.096,67.158,45.685,67.811,47.892z"/>
		<path fill="#00A6D6" d="M67.562,48.067c0.618,2.092,0.94,4.113-0.524,4.872l-2.239-7.577
			C65.022,45.309,66.943,45.975,67.562,48.067z"/>
		<path fill="#00A5D5" d="M67.313,48.241c0.584,1.977,0.898,3.854-0.334,4.489l-2.115-7.16
			C65.061,45.523,66.729,46.265,67.313,48.241z"/>
		<path fill="#00A4D3" d="M67.063,48.417c0.55,1.861,0.856,3.593-0.145,4.104l-1.992-6.743
			C65.101,45.737,66.513,46.554,67.063,48.417z"/>
		<path fill="#00A2D2" d="M66.814,48.591c0.516,1.747,0.815,3.333,0.045,3.72l-1.869-6.325
			C65.14,45.951,66.298,46.845,66.814,48.591z"/>
		<path fill="#00A1D1" d="M66.565,48.766c0.482,1.631,0.773,3.072,0.235,3.337l-1.746-5.909
			C65.179,46.165,66.083,47.134,66.565,48.766z"/>
		<path fill="#00A0D0" d="M66.316,48.94c0.448,1.516,0.731,2.812,0.424,2.953l-1.623-5.491
			C65.218,46.378,65.869,47.424,66.316,48.94z"/>
		<path fill="#009FCE" d="M66.067,49.115c0.414,1.401,0.689,2.551,0.614,2.569l-1.5-5.074
			C65.257,46.592,65.653,47.714,66.067,49.115z"/>
	</g>
</g>
</svg>
