<?xml version="1.0" encoding="utf-8"?>
<!-- Generator: Adobe Illustrator 16.0.0, SVG Export Plug-In . SVG Version: 6.00 Build 0)  -->
<!DOCTYPE svg PUBLIC "-//W3C//DTD SVG 1.1//EN" "http://www.w3.org/Graphics/SVG/1.1/DTD/svg11.dtd">
<svg version="1.1" id="图层_1" xmlns="http://www.w3.org/2000/svg" xmlns:xlink="http://www.w3.org/1999/xlink" x="0px" y="0px"
	 width="46.318px" height="46.318px" viewBox="0 0 46.318 46.318" enable-background="new 0 0 46.318 46.318" xml:space="preserve">
<circle fill="none" stroke="#FFFFFF" stroke-width="2" stroke-miterlimit="10" cx="23.159" cy="23.159" r="22.159"/>
<g>
	<path fill="#FFFFFF" d="M35.419,13.304h3.308l-6.271,23.15h-3.308c-2.966-11.177-4.563-17.145-4.79-17.905
		c-0.229-0.836-0.418-1.671-0.57-2.509h-0.113c-0.076,0.306-0.19,0.875-0.343,1.711c-0.077,0.455-0.114,0.761-0.114,0.912
		c-0.229,0.685-1.899,6.614-5.018,17.791h-3.535l-6.046-23.15h3.193c2.736,11.253,4.181,17.221,4.334,17.904
		c0,0.229,0.037,0.57,0.112,1.025c0.076,0.685,0.152,1.18,0.229,1.481h0.114c0.074-0.303,0.188-0.835,0.343-1.596
		c0.149-0.457,0.228-0.76,0.228-0.912c0.229-0.76,1.825-6.729,4.79-17.904h3.421c2.967,11.328,4.563,17.335,4.79,18.019
		c0,0.076,0.037,0.191,0.113,0.342c0.152,0.838,0.266,1.522,0.343,2.053h0.114c0-0.149,0.037-0.379,0.113-0.684
		c0.075-0.836,0.151-1.369,0.229-1.597C31.236,30.829,32.682,24.785,35.419,13.304z"/>
</g>
</svg>
