<?xml version="1.0" encoding="utf-8"?>
<!-- Generator: Adobe Illustrator 16.0.0, SVG Export Plug-In . SVG Version: 6.00 Build 0)  -->
<!DOCTYPE svg PUBLIC "-//W3C//DTD SVG 1.1//EN" "http://www.w3.org/Graphics/SVG/1.1/DTD/svg11.dtd">
<svg version="1.1" id="图层_1" xmlns="http://www.w3.org/2000/svg" xmlns:xlink="http://www.w3.org/1999/xlink" x="0px" y="0px"
	 width="46.318px" height="46.318px" viewBox="0 0 46.318 46.318" enable-background="new 0 0 46.318 46.318" xml:space="preserve">
<circle fill="none" stroke="#FFFFFF" stroke-width="2" stroke-miterlimit="10" cx="23.159" cy="23.159" r="22.159"/>
<g>
	<path fill="#FFFFFF" d="M33.435,15.105h2.875l-5.454,20.133h-2.876c-2.578-9.719-3.967-14.908-4.166-15.57
		c-0.197-0.727-0.363-1.453-0.495-2.182H23.22c-0.067,0.266-0.166,0.76-0.299,1.488c-0.066,0.396-0.099,0.66-0.099,0.793
		c-0.198,0.594-1.653,5.752-4.364,15.471h-3.074l-5.256-20.133h2.777c2.38,9.785,3.635,14.977,3.768,15.57
		c0,0.199,0.033,0.496,0.1,0.893c0.065,0.596,0.132,1.025,0.199,1.289h0.099c0.065-0.264,0.164-0.727,0.298-1.389
		c0.131-0.396,0.197-0.66,0.197-0.793c0.199-0.66,1.588-5.852,4.166-15.57h2.975c2.579,9.854,3.967,15.074,4.166,15.67
		c0,0.066,0.032,0.166,0.1,0.297c0.131,0.729,0.23,1.324,0.297,1.785h0.1c0-0.131,0.032-0.33,0.099-0.594
		c0.065-0.727,0.132-1.191,0.198-1.389C29.797,30.346,31.054,25.09,33.435,15.105z"/>
</g>
</svg>
