<?xml version="1.0" encoding="utf-8"?>
<!-- Generator: Adobe Illustrator 16.0.0, SVG Export Plug-In . SVG Version: 6.00 Build 0)  -->
<!DOCTYPE svg PUBLIC "-//W3C//DTD SVG 1.1//EN" "http://www.w3.org/Graphics/SVG/1.1/DTD/svg11.dtd">
<svg version="1.1" id="图层_1" xmlns="http://www.w3.org/2000/svg" xmlns:xlink="http://www.w3.org/1999/xlink" x="0px" y="0px"
	 width="59.525px" height="56.633px" viewBox="271.952 258.739 59.525 56.633"
	 enable-background="new 271.952 258.739 59.525 56.633" xml:space="preserve">
<g id="MouseOff">
	<path fill="#696969" d="M276.757,314.211c0.006,0.771,0.438,1.086,1.094,1.161h47.537c0.758-0.169,0.996-0.628,0.982-1.228
		l-1.326-11.968h-46.98L276.757,314.211z"/>
	<path fill="#333333" d="M277.467,313.733l1.188-11.506h45.783l1.181,11.44c0.013,0.599-0.225,1.058-0.982,1.227h-46.075
		C277.905,314.819,277.472,314.504,277.467,313.733z"/>
	<polygon fill="#4A4A4A" points="330.867,290.317 330.865,290.5 328.612,290.497 328.614,290.315 	"/>
	<polygon fill="#4A4A4A" points="331.477,276.063 331.476,276.245 329.222,276.243 329.223,276.06 	"/>
	<polygon fill="#4A4A4A" points="271.953,276.063 271.952,276.245 274.208,276.243 274.209,276.06 	"/>
	<polygon fill="#4A4A4A" points="272.585,290.317 272.584,290.5 274.841,290.497 274.842,290.315 	"/>
	<polygon fill="#4A4A4A" points="273.329,304.572 273.327,304.754 275.583,304.751 275.584,304.57 	"/>
	<polygon fill="#4A4A4A" points="330.145,304.663 330.145,304.845 327.89,304.842 327.893,304.661 	"/>
	<polygon fill="#262626" points="275.201,302.407 277.052,287.25 326.401,287.25 328.252,302.407 	"/>
	<polygon fill="#262626" points="274.57,288.151 276.464,272.995 326.988,272.995 328.882,288.151 	"/>
	<polygon fill="#333333" points="273.847,273.897 275.792,258.739 327.659,258.739 329.605,273.897 	"/>
	<g>
		<polygon fill="#212121" points="275.742,313.413 275.215,302.407 328.238,302.407 327.71,313.413 		"/>
		<polygon fill="#212121" points="275.059,299.158 274.531,288.151 328.921,288.151 328.393,299.158 		"/>
		<path fill="#212121" d="M274.375,284.903l-0.528-11.006h55.757l-0.002,0.035l-0.525,10.971H274.375z M273.847,273.903v-0.006l0,0
			V273.903z"/>
	</g>
	<path fill="#212121" d="M275.213,302.407h53.04C327.658,305.523,274.427,306.101,275.213,302.407z"/>
	<path fill="#262626" d="M275.213,302.407c-0.807,3.157,52.425,2.607,53.04,0H275.213z"/>
	<path fill="#2B2B2B" d="M275.213,302.407c-0.828,2.621,52.407,2.099,53.04,0H275.213z"/>
	<path fill="#363636" d="M275.213,302.407c-0.848,2.084,52.387,1.589,53.04,0H275.213z"/>
	<path fill="#4C4C4C" d="M275.213,302.407c-0.869,1.547,52.368,1.079,53.04,0H275.213z"/>
	<path fill="#757575" d="M275.213,302.407c-0.889,1.01,52.347,0.57,53.04,0H275.213z"/>
	<path fill="#8C8C8C" d="M275.213,302.407h53.04C327.541,302.466,274.303,302.879,275.213,302.407z"/>
	<path fill="#262626" d="M275.664,299.159h52.046C327.128,302.277,274.892,302.853,275.664,299.159z"/>
	<path fill="#242424" d="M275.664,299.159c-0.794,3.188,51.443,2.636,52.046,0H275.664z"/>
	<path fill="#212121" d="M275.664,299.159c-0.817,2.682,51.422,2.155,52.046,0H275.664z"/>
	<path fill="#1C1C1C" d="M275.664,299.159c-0.839,2.176,51.401,1.674,52.046,0H275.664z"/>
	<path fill="#171717" d="M275.664,299.159c-0.862,1.669,51.38,1.194,52.046,0H275.664z"/>
	<path fill="#0D0D0D" d="M275.664,299.159c-0.883,1.162,51.358,0.713,52.046,0H275.664z"/>
	<path d="M275.664,299.159h52.046C327.001,299.391,274.758,299.814,275.664,299.159z"/>
	<path fill="#212121" d="M275.214,299.159h53.127C327.746,296.041,274.425,295.463,275.214,299.159z"/>
	<path fill="#262626" d="M275.214,299.159h53.127C327.726,296.522,274.403,295.97,275.214,299.159z"/>
	<path fill="#2B2B2B" d="M275.214,299.159h53.127C327.704,297.003,274.38,296.477,275.214,299.159z"/>
	<path fill="#303030" d="M275.214,299.159h53.127C327.683,297.484,274.357,296.983,275.214,299.159z"/>
	<path fill="#363636" d="M275.214,299.159h53.127C327.661,297.964,274.334,297.49,275.214,299.159z"/>
	<path fill="#3B3B3B" d="M275.214,299.159h53.127C327.64,298.446,274.311,297.996,275.214,299.159z"/>
	<path fill="#404040" d="M275.214,299.159h53.127C327.618,298.926,274.288,298.502,275.214,299.159z"/>
	<path fill="#262626" d="M275.213,302.407h53.04C327.605,300.765,274.37,300.278,275.213,302.407z"/>
	<path fill="#2B2B2B" d="M275.213,302.407h53.04C327.592,301,274.356,300.523,275.213,302.407z"/>
	<path fill="#333333" d="M275.213,302.407h53.04C327.579,301.235,274.344,300.769,275.213,302.407z"/>
	<path fill="#383838" d="M275.213,302.407h53.04C327.568,301.469,274.33,301.014,275.213,302.407z"/>
	<path fill="#3D3D3D" d="M275.213,302.407h53.04C327.555,301.704,274.317,301.26,275.213,302.407z"/>
	<path fill="#454545" d="M275.213,302.407h53.04C327.542,301.94,274.303,301.505,275.213,302.407z"/>
	<path fill="#4A4A4A" d="M275.213,302.407h53.04C327.53,302.174,274.29,301.751,275.213,302.407z"/>
	<path fill="#262626" d="M275.032,284.904h53.22C327.656,288.021,274.243,288.598,275.032,284.904z"/>
	<path fill="#242424" d="M275.032,284.904c-0.812,3.188,52.603,2.637,53.22,0H275.032z"/>
	<path fill="#212121" d="M275.032,284.904c-0.834,2.682,52.581,2.156,53.22,0H275.032z"/>
	<path fill="#1C1C1C" d="M275.032,284.904c-0.857,2.175,52.559,1.675,53.22,0H275.032z"/>
	<path fill="#171717" d="M275.032,284.904c-0.88,1.669,52.539,1.194,53.22,0H275.032z"/>
	<path fill="#0D0D0D" d="M275.032,284.904c-0.902,1.162,52.517,0.713,53.22,0H275.032z"/>
	<path d="M275.032,284.904h53.22C327.528,285.136,274.107,285.56,275.032,284.904z"/>
	<path fill="#212121" d="M274.582,284.904h54.3C328.275,281.787,273.777,281.208,274.582,284.904z"/>
	<path fill="#262626" d="M274.582,284.904h54.3C328.253,282.267,273.753,281.716,274.582,284.904z"/>
	<path fill="#2B2B2B" d="M274.582,284.904h54.3C328.232,282.749,273.73,282.222,274.582,284.904z"/>
	<path fill="#303030" d="M274.582,284.904h54.3C328.208,283.229,273.706,282.729,274.582,284.904z"/>
	<path fill="#363636" d="M274.582,284.904h54.3C328.187,283.71,273.684,283.235,274.582,284.904z"/>
	<path fill="#3B3B3B" d="M274.582,284.904h54.3C328.165,284.19,273.66,283.742,274.582,284.904z"/>
	<path fill="#404040" d="M274.582,284.904h54.3C328.143,284.671,273.637,284.248,274.582,284.904z"/>
	<path fill="#262626" d="M274.581,288.151h54.301C328.221,286.51,273.718,286.023,274.581,288.151z"/>
	<path fill="#2B2B2B" d="M274.581,288.151h54.301C328.208,286.745,273.704,286.268,274.581,288.151z"/>
	<path fill="#333333" d="M274.581,288.151h54.301C328.195,286.979,273.692,286.514,274.581,288.151z"/>
	<path fill="#383838" d="M274.581,288.151h54.301C328.182,287.215,273.678,286.759,274.581,288.151z"/>
	<path fill="#3D3D3D" d="M274.581,288.151h54.301C328.169,287.45,273.664,287.005,274.581,288.151z"/>
	<path fill="#454545" d="M274.581,288.151h54.301C328.156,287.685,273.65,287.251,274.581,288.151z"/>
	<path fill="#4A4A4A" d="M274.581,288.151h54.301C328.143,287.919,273.636,287.497,274.581,288.151z"/>
	<path fill="#333333" d="M273.86,273.897h55.564C328.747,271.914,272.976,271.326,273.86,273.897z"/>
	<path fill="#363636" d="M273.86,273.897h55.564C328.735,272.198,272.963,271.623,273.86,273.897z"/>
	<path fill="#363636" d="M273.86,273.897h55.564C328.721,272.481,272.949,271.919,273.86,273.897z"/>
	<path fill="#383838" d="M273.86,273.897h55.564C328.708,272.766,272.935,272.216,273.86,273.897z"/>
	<path fill="#3D3D3D" d="M273.86,273.897h55.564C328.695,273.05,272.921,272.512,273.86,273.897z"/>
	<path fill="#424242" d="M273.86,273.897h55.564C328.681,273.333,272.907,272.809,273.86,273.897z"/>
	<path fill="#4A4A4A" d="M273.86,273.897h55.564C328.667,273.617,272.894,273.105,273.86,273.897z"/>
	<polygon fill="#545454" points="274.311,270.288 275.792,258.739 327.659,258.739 329.141,270.288 	"/>
	<path fill="#545454" d="M275.844,258.83h51.866C328.717,267.813,276.812,269.302,275.844,258.83z"/>
	<path fill="#575757" d="M275.844,258.83c0.76,9.476,52.683,8.044,51.866,0H275.844z"/>
	<path fill="#595959" d="M275.844,258.83c0.553,8.479,52.492,7.105,51.866,0H275.844z"/>
	<path fill="#5C5C5C" d="M275.844,258.83c0.344,7.482,52.302,6.166,51.866,0H275.844z"/>
	<path fill="#616161" d="M275.844,258.83c0.136,6.485,52.111,5.227,51.866,0H275.844z"/>
	<path fill="#666666" d="M275.844,258.83c-0.071,5.488,51.921,4.288,51.866,0H275.844z"/>
	<path fill="#6B6B6B" d="M275.844,258.83c-0.279,4.492,51.73,3.348,51.866,0H275.844z"/>
	<path fill="#757575" d="M275.844,258.83c-0.487,3.494,51.54,2.409,51.866,0H275.844z"/>
	<path fill="#828282" d="M275.844,258.83c-0.694,2.498,51.35,1.47,51.866,0H275.844z"/>
	<path fill="#8F8F8F" d="M275.844,258.83h51.866C327.003,259.361,274.942,260.33,275.844,258.83z"/>
	<path fill="#545454" d="M274.4,270.288h54.663C328.398,267.471,273.531,266.636,274.4,270.288z"/>
	<path fill="#575757" d="M274.4,270.288h54.663C328.4,267.926,273.534,267.117,274.4,270.288z"/>
	<path fill="#595959" d="M274.4,270.288h54.663C328.402,268.381,273.538,267.599,274.4,270.288z"/>
	<path fill="#5E5E5E" d="M274.4,270.288h54.663C328.404,268.835,273.541,268.08,274.4,270.288z"/>
	<path fill="#666666" d="M274.4,270.288h54.663C328.405,269.291,273.545,268.562,274.4,270.288z"/>
	<path fill="#737373" d="M274.4,270.288h54.663C328.406,269.745,273.548,269.042,274.4,270.288z"/>
	<path fill="#808080" d="M274.4,270.288h54.663C328.407,270.2,273.552,269.523,274.4,270.288z"/>
	<path fill="#333333" d="M274.313,270.288h54.839C328.485,272.27,273.441,272.858,274.313,270.288z"/>
	<path fill="#363636" d="M274.313,270.288c-0.895,2.207,54.151,1.641,54.839,0H274.313z"/>
	<path fill="#383838" d="M274.313,270.288c-0.917,1.842,54.131,1.298,54.839,0H274.313z"/>
	<path fill="#3D3D3D" d="M274.313,270.288c-0.938,1.478,54.111,0.956,54.839,0H274.313z"/>
	<path fill="#454545" d="M274.313,270.288c-0.961,1.114,54.091,0.614,54.839,0H274.313z"/>
	<path fill="#4F4F4F" d="M274.313,270.288c-0.982,0.749,54.07,0.271,54.839,0H274.313z"/>
	<path fill="#5E5E5E" d="M274.313,270.288h54.839C328.363,270.215,273.309,270.672,274.313,270.288z"/>
	<path fill="#212121" d="M273.952,274.044h55.562C328.893,277.161,273.127,277.739,273.952,274.044z"/>
	<path fill="#262626" d="M273.952,274.044c-0.855,3.167,54.912,2.614,55.562,0H273.952z"/>
	<path fill="#2B2B2B" d="M273.952,274.044c-0.887,2.638,54.882,2.11,55.562,0H273.952z"/>
	<path fill="#333333" d="M273.952,274.044c-0.917,2.108,54.853,1.606,55.562,0H273.952z"/>
	<path fill="#454545" d="M273.952,274.044c-0.948,1.58,54.823,1.103,55.562,0H273.952z"/>
	<path fill="#6E6E6E" d="M273.952,274.044c-0.979,1.051,54.793,0.599,55.562,0H273.952z"/>
	<path fill="#999999" d="M273.952,274.044h55.562C328.715,274.139,272.943,274.566,273.952,274.044z"/>
	<polygon points="275.977,276.043 276.338,283.893 313.328,283.893 313.328,276.043 	"/>
	<path d="M272.292,282.016l-0.338-5.773h2.075l0.339,5.773H272.292z M273.847,280.708c0-0.274-0.222-0.496-0.496-0.496
		c-0.273,0-0.497,0.222-0.497,0.496s0.223,0.496,0.497,0.496C273.626,281.205,273.847,280.983,273.847,280.708z M273.577,277.641
		c0-0.273-0.222-0.496-0.496-0.496c-0.274,0-0.496,0.223-0.496,0.496c0,0.274,0.222,0.496,0.496,0.496
		C273.355,278.137,273.577,277.915,273.577,277.641z"/>
	<path d="M272.924,296.272l-0.339-5.775h2.076l0.339,5.775H272.924z M274.48,294.963c0-0.273-0.223-0.496-0.496-0.496
		c-0.274,0-0.497,0.223-0.497,0.496s0.222,0.496,0.497,0.496C274.257,295.459,274.48,295.237,274.48,294.963z M274.209,291.896
		c0-0.274-0.223-0.496-0.497-0.496c-0.273,0-0.496,0.222-0.496,0.496s0.223,0.496,0.496,0.496
		C273.987,292.392,274.209,292.17,274.209,291.896z"/>
	<path d="M273.667,310.526l-0.338-5.774h2.074l0.339,5.774H273.667z M275.222,309.217c0-0.272-0.222-0.495-0.496-0.495
		c-0.273,0-0.496,0.223-0.496,0.495c0,0.275,0.223,0.496,0.496,0.496C275.001,309.713,275.222,309.493,275.222,309.217z
		 M274.952,306.151c0-0.273-0.222-0.496-0.497-0.496c-0.274,0-0.496,0.223-0.496,0.496s0.222,0.496,0.496,0.496
		C274.73,306.647,274.952,306.424,274.952,306.151z"/>
	<path d="M331.139,282.016l0.339-5.773h-2.075l-0.34,5.773H331.139z M329.582,280.708c0-0.274,0.223-0.496,0.496-0.496
		s0.496,0.222,0.496,0.496s-0.223,0.496-0.496,0.496S329.582,280.983,329.582,280.708z M329.854,277.641
		c0-0.273,0.223-0.496,0.496-0.496s0.495,0.223,0.495,0.496c0,0.274-0.222,0.496-0.495,0.496S329.854,277.915,329.854,277.641z"/>
	<path fill="#212121" d="M274.853,288.208h53.85C328.1,291.327,274.053,291.904,274.853,288.208z"/>
	<path fill="#242424" d="M274.853,288.208c-0.83,3.166,53.22,2.614,53.85,0H274.853z"/>
	<path fill="#292929" d="M274.853,288.208c-0.859,2.638,53.189,2.11,53.85,0H274.853z"/>
	<path fill="#303030" d="M274.853,288.208c-0.889,2.108,53.16,1.607,53.85,0H274.853z"/>
	<path fill="#404040" d="M274.853,288.208c-0.918,1.579,53.132,1.103,53.85,0H274.853z"/>
	<path fill="#616161" d="M274.853,288.208c-0.948,1.051,53.104,0.599,53.85,0H274.853z"/>
	<path fill="#858585" d="M274.853,288.208h53.85C327.928,288.304,273.874,288.731,274.853,288.208z"/>
	<path d="M330.528,296.272l0.34-5.775h-2.076l-0.338,5.775H330.528z M328.972,294.963c0-0.273,0.224-0.496,0.497-0.496
		s0.496,0.223,0.496,0.496s-0.223,0.496-0.496,0.496S328.972,295.237,328.972,294.963z M329.243,291.896
		c0-0.274,0.222-0.496,0.496-0.496c0.273,0,0.496,0.222,0.496,0.496s-0.223,0.496-0.496,0.496
		C329.465,292.392,329.243,292.17,329.243,291.896z"/>
	<path d="M329.807,310.617l0.339-5.774h-2.075l-0.34,5.774H329.807z M328.252,309.309c0-0.274,0.221-0.496,0.495-0.496
		c0.273,0,0.496,0.222,0.496,0.496s-0.223,0.495-0.496,0.495C328.473,309.804,328.252,309.583,328.252,309.309z M328.521,306.241
		c0-0.273,0.223-0.496,0.497-0.496s0.496,0.223,0.496,0.496c0,0.274-0.222,0.497-0.496,0.497S328.521,306.515,328.521,306.241z"/>
	<polygon points="276.465,289.776 276.825,297.625 313.816,297.625 313.816,289.776 	"/>
	<path fill="#212121" d="M275.754,313.413h51.956C327.129,310.296,274.984,309.718,275.754,313.413z"/>
	<path fill="#242424" d="M275.754,313.413h51.956C327.108,310.778,274.961,310.225,275.754,313.413z"/>
	<path fill="#292929" d="M275.754,313.413h51.956C327.087,311.258,274.939,310.732,275.754,313.413z"/>
	<path fill="#2E2E2E" d="M275.754,313.413h51.956C327.067,311.739,274.917,311.238,275.754,313.413z"/>
	<path fill="#383838" d="M275.754,313.413h51.956C327.045,312.22,274.895,311.745,275.754,313.413z"/>
	<path fill="#4C4C4C" d="M275.754,313.413h51.956C327.024,312.701,274.872,312.25,275.754,313.413z"/>
	<path fill="#636363" d="M275.754,313.413h51.956C327.002,313.181,274.851,312.757,275.754,313.413z"/>
	<polygon points="277.186,304.301 277.547,312.151 314.537,312.151 314.537,304.301 	"/>
	<path d="M276.031,276.199h37.427C313.04,279.317,275.476,279.895,276.031,276.199z"/>
	<path fill="#050A0F" d="M276.031,276.199c-0.57,3.332,36.995,2.771,37.427,0H276.031z"/>
	<path fill="#0D121F" d="M276.031,276.199c-0.585,2.966,36.98,2.424,37.427,0H276.031z"/>
	<path fill="#12192E" d="M276.031,276.199c-0.599,2.603,36.967,2.078,37.427,0H276.031z"/>
	<path fill="#17243B" d="M276.031,276.199c-0.614,2.237,36.953,1.73,37.427,0H276.031z"/>
	<path fill="#192945" d="M276.031,276.199c-0.628,1.874,36.938,1.384,37.427,0H276.031z"/>
	<path fill="#1F304F" d="M276.031,276.199c-0.642,1.509,36.925,1.037,37.427,0H276.031z"/>
	<path fill="#24385C" d="M276.031,276.199c-0.657,1.145,36.911,0.689,37.427,0H276.031z"/>
	<path fill="#2E4573" d="M276.031,276.199c-0.672,0.78,36.897,0.343,37.427,0H276.031z"/>
	<path fill="#3D5E9C" d="M276.031,276.199h37.427C312.914,276.196,275.345,276.615,276.031,276.199z"/>
	<path d="M276.475,289.813h37.426C313.484,292.931,275.92,293.507,276.475,289.813z"/>
	<path fill="#050A0F" d="M276.475,289.813c-0.57,3.331,36.995,2.771,37.426,0H276.475z"/>
	<path fill="#0D121F" d="M276.475,289.813c-0.584,2.966,36.981,2.423,37.426,0H276.475z"/>
	<path fill="#12192E" d="M276.475,289.813c-0.599,2.602,36.967,2.077,37.426,0H276.475z"/>
	<path fill="#17243B" d="M276.475,289.813c-0.613,2.236,36.953,1.729,37.426,0H276.475z"/>
	<path fill="#192945" d="M276.475,289.813c-0.628,1.873,36.939,1.384,37.426,0H276.475z"/>
	<path fill="#1F304F" d="M276.475,289.813c-0.642,1.509,36.925,1.036,37.426,0H276.475z"/>
	<path fill="#24385C" d="M276.475,289.813c-0.657,1.144,36.911,0.689,37.426,0H276.475z"/>
	<path fill="#2E4573" d="M276.475,289.813c-0.672,0.78,36.897,0.343,37.426,0H276.475z"/>
	<path fill="#3D5E9C" d="M276.475,289.813h37.426C313.359,289.808,275.79,290.228,276.475,289.813z"/>
	<path d="M277.215,304.313h37.428C314.224,307.432,276.66,308.008,277.215,304.313z"/>
	<path fill="#050A0F" d="M277.215,304.313c-0.57,3.332,36.995,2.771,37.428,0H277.215z"/>
	<path fill="#0D121F" d="M277.215,304.313c-0.584,2.967,36.981,2.425,37.428,0H277.215z"/>
	<path fill="#12192E" d="M277.215,304.313c-0.599,2.603,36.968,2.077,37.428,0H277.215z"/>
	<path fill="#17243B" d="M277.215,304.313c-0.613,2.237,36.952,1.73,37.428,0H277.215z"/>
	<path fill="#192945" d="M277.215,304.313c-0.628,1.874,36.938,1.385,37.428,0H277.215z"/>
	<path fill="#1F304F" d="M277.215,304.313c-0.642,1.51,36.925,1.037,37.428,0H277.215z"/>
	<path fill="#24385C" d="M277.215,304.313c-0.657,1.145,36.911,0.689,37.428,0H277.215z"/>
	<path fill="#2E4573" d="M277.215,304.313c-0.672,0.78,36.897,0.344,37.428,0H277.215z"/>
	<path fill="#3D5E9C" d="M277.215,304.313h37.428C314.099,304.309,276.53,304.729,277.215,304.313z"/>
	<path fill="#809ED1" d="M278.481,310.797c0.45,0,0.898-0.001,1.345-0.001c0,0.24,0.001,0.481,0.001,0.722c-0.447,0-0.896,0-1.345,0
		C278.483,311.279,278.482,311.038,278.481,310.797z M283.828,310.79c0.443,0,0.885-0.001,1.326-0.002
		c0.001,0.24,0.002,0.481,0.003,0.722c-0.442,0.001-0.884,0.002-1.326,0.003C283.83,311.272,283.829,311.031,283.828,310.79z
		 M286.477,310.785c0.44-0.001,0.88-0.002,1.319-0.003c0.001,0.24,0.002,0.48,0.002,0.721c-0.439,0.002-0.879,0.004-1.319,0.004
		C286.478,311.266,286.478,311.025,286.477,310.785z M289.113,310.778c0.439-0.002,0.877-0.003,1.315-0.004
		c0.001,0.24,0.002,0.48,0.002,0.722c-0.438,0.001-0.876,0.002-1.315,0.004C289.115,311.259,289.114,311.018,289.113,310.778z
		 M291.741,310.769c0.438,0,0.875-0.002,1.313-0.004c0.001,0.241,0.001,0.481,0.001,0.722c-0.438,0.002-0.875,0.003-1.313,0.005
		C291.742,311.251,291.741,311.01,291.741,310.769z M296.99,310.753c0.438-0.002,0.876-0.003,1.314-0.005
		c0,0.241,0,0.481-0.001,0.722c-0.438,0.002-0.875,0.003-1.313,0.004C296.99,311.235,296.99,310.994,296.99,310.753z
		 M299.617,310.745c0.439-0.001,0.878-0.002,1.317-0.003c0,0.24,0,0.48-0.001,0.722c-0.439,0.001-0.878,0.002-1.316,0.004
		C299.617,311.226,299.617,310.985,299.617,310.745z M302.253,310.738c0.441-0.001,0.881-0.002,1.322-0.003
		c0,0.241,0,0.48-0.002,0.722c-0.44,0-0.881,0.002-1.321,0.004C302.253,311.219,302.253,310.978,302.253,310.738z M307.564,310.728
		c0.445-0.001,0.892-0.001,1.339-0.002c-0.001,0.241-0.001,0.481-0.001,0.722c-0.447,0-0.894,0-1.339,0.002
		C307.563,311.208,307.563,310.968,307.564,310.728z M310.246,310.726c0.449,0,0.898,0,1.35,0c0,0.24,0,0.479,0,0.72
		c-0.451,0-0.9,0-1.351,0.002C310.245,311.207,310.246,310.966,310.246,310.726z M278.474,309.353
		c0.449-0.001,0.897-0.001,1.343-0.001c0.002,0.241,0.004,0.481,0.005,0.723c-0.447,0-0.895,0-1.345,0
		C278.477,309.834,278.475,309.593,278.474,309.353z M283.821,309.346c0.441-0.001,0.884-0.002,1.326-0.004
		c0.002,0.241,0.003,0.482,0.005,0.723c-0.442,0.001-0.884,0.002-1.326,0.004C283.823,309.828,283.823,309.586,283.821,309.346z
		 M291.736,309.326c0.438-0.001,0.876-0.003,1.314-0.004c0.001,0.24,0.002,0.48,0.003,0.722c-0.438,0.001-0.876,0.003-1.313,0.004
		C291.739,309.807,291.738,309.566,291.736,309.326z M294.363,309.318c0.437-0.003,0.875-0.003,1.312-0.004
		c0.001,0.24,0.002,0.481,0.002,0.721c-0.438,0.002-0.875,0.003-1.313,0.005C294.364,309.799,294.363,309.558,294.363,309.318z
		 M299.617,309.301c0.439-0.001,0.878-0.003,1.318-0.004c0,0.241,0,0.482,0,0.723c-0.44,0.001-0.879,0.002-1.317,0.004
		C299.617,309.783,299.617,309.542,299.617,309.301z M302.254,309.295c0.441-0.001,0.881-0.003,1.323-0.003
		c0,0.239,0,0.48-0.002,0.721c-0.44,0.001-0.881,0.002-1.321,0.003C302.254,309.775,302.254,309.536,302.254,309.295z
		 M304.903,309.289c0.442-0.001,0.885-0.002,1.329-0.003c0,0.241,0,0.482,0,0.723c-0.444,0.001-0.887,0.001-1.33,0.001
		C304.902,309.769,304.902,309.53,304.903,309.289z M281.142,307.905c0.445,0,0.89-0.001,1.334-0.002
		c0.003,0.241,0.006,0.482,0.008,0.724c-0.444,0-0.889,0.001-1.333,0.002C281.147,308.387,281.145,308.146,281.142,307.905z
		 M294.356,307.874c0.438-0.002,0.876-0.003,1.314-0.004c0.001,0.24,0.002,0.481,0.003,0.723c-0.438,0-0.876,0.001-1.313,0.003
		C294.358,308.355,294.357,308.114,294.356,307.874z M302.253,307.85c0.441,0,0.882-0.002,1.324-0.002c0,0.24,0,0.48,0,0.722
		c-0.441,0.001-0.882,0.002-1.323,0.003C302.254,308.333,302.254,308.091,302.253,307.85z M307.567,307.841
		c0.445,0,0.891-0.002,1.339-0.002c0,0.241,0,0.481,0,0.722c-0.448,0-0.895,0.001-1.339,0.002
		C307.567,308.322,307.567,308.082,307.567,307.841z M278.44,306.461c0.448,0,0.896,0,1.344-0.001
		c0.003,0.242,0.007,0.482,0.01,0.724c-0.447,0-0.895,0.001-1.344,0.001C278.448,306.944,278.443,306.704,278.44,306.461z
		 M286.44,306.45c0.441-0.001,0.881-0.002,1.321-0.003c0.003,0.241,0.006,0.482,0.008,0.723c-0.44,0.001-0.88,0.003-1.321,0.003
		C286.445,306.931,286.443,306.691,286.44,306.45z M291.715,306.436c0.438-0.001,0.877-0.002,1.316-0.004
		c0.002,0.24,0.004,0.481,0.006,0.722c-0.439,0.003-0.877,0.003-1.315,0.005C291.719,306.917,291.717,306.676,291.715,306.436z
		 M296.977,306.421c0.438-0.002,0.877-0.003,1.316-0.004c0,0.24,0.002,0.481,0.003,0.722c-0.438,0.001-0.877,0.003-1.315,0.004
		C296.979,306.903,296.978,306.663,296.977,306.421z M299.611,306.414c0.439-0.001,0.879-0.002,1.319-0.003
		c0.001,0.24,0.002,0.481,0.002,0.722c-0.44,0.001-0.879,0.002-1.319,0.004C299.613,306.895,299.612,306.654,299.611,306.414z
		 M302.251,306.408c0.441-0.002,0.882-0.002,1.324-0.003c0,0.24,0,0.48,0,0.721c-0.441,0.001-0.882,0.003-1.323,0.003
		C302.252,306.888,302.251,306.648,302.251,306.408z M310.248,306.394c0.448,0,0.898,0,1.348,0c0,0.241,0,0.481,0,0.722
		c-0.449,0-0.899,0.001-1.349,0.001C310.248,306.876,310.248,306.635,310.248,306.394z M278.414,305.016c0.449,0,0.897,0,1.344,0
		c0.005,0.24,0.009,0.481,0.013,0.723c-0.447,0-0.895,0-1.344,0C278.424,305.498,278.42,305.257,278.414,305.016z M281.098,305.013
		c0.446,0,0.891,0,1.334-0.002c0.005,0.242,0.009,0.482,0.013,0.724c-0.444,0.001-0.889,0.001-1.335,0.002
		C281.107,305.496,281.102,305.254,281.098,305.013z M283.764,305.009c0.444,0,0.886-0.001,1.329-0.001
		c0.004,0.24,0.008,0.48,0.011,0.722c-0.442,0.001-0.884,0.002-1.328,0.003C283.773,305.492,283.768,305.25,283.764,305.009z
		 M286.418,305.004c0.442-0.001,0.883-0.002,1.323-0.002c0.004,0.24,0.008,0.48,0.011,0.722c-0.44,0.001-0.881,0.001-1.323,0.003
		C286.426,305.487,286.422,305.246,286.418,305.004z M289.061,304.998c0.44-0.001,0.88-0.002,1.32-0.002
		c0.003,0.24,0.006,0.48,0.009,0.722c-0.44,0.002-0.878,0.002-1.318,0.004C289.068,305.48,289.066,305.24,289.061,304.998z
		 M291.699,304.991c0.439-0.001,0.878-0.002,1.317-0.002c0.002,0.24,0.004,0.48,0.008,0.721c-0.439,0.002-0.878,0.002-1.317,0.005
		C291.704,305.473,291.702,305.232,291.699,304.991z M294.333,304.984c0.439-0.001,0.877-0.003,1.316-0.004
		c0.002,0.24,0.004,0.481,0.006,0.723c-0.439,0.002-0.878,0.002-1.316,0.003C294.337,305.465,294.335,305.225,294.333,304.984z
		 M296.967,304.977c0.439-0.002,0.878-0.002,1.318-0.004c0.001,0.24,0.003,0.481,0.004,0.722c-0.439,0.001-0.878,0.003-1.317,0.005
		C296.97,305.458,296.969,305.218,296.967,304.977z M302.247,304.963c0.44-0.001,0.883-0.002,1.325-0.003
		c0,0.241,0,0.481,0.001,0.722c-0.441,0.001-0.884,0.002-1.324,0.004C302.248,305.445,302.247,305.205,302.247,304.963z
		 M304.9,304.958c0.443-0.001,0.887-0.002,1.332-0.003c0,0.24,0,0.481,0,0.723c-0.444,0-0.888,0-1.33,0.002
		C304.902,305.439,304.902,305.198,304.9,304.958z M307.567,304.954c0.444,0,0.891-0.001,1.339-0.001c0,0.24,0,0.481,0,0.723
		c-0.448,0-0.894,0-1.339,0C307.567,305.434,307.567,305.194,307.567,304.954z M310.248,304.952c0.448,0,0.898,0,1.348,0
		c0,0.239,0,0.48,0,0.722c-0.449,0-0.899,0-1.348,0C310.248,305.432,310.248,305.192,310.248,304.952z M280.164,296.241
		c0.448,0,0.896-0.001,1.343-0.001c0.007,0.241,0.014,0.483,0.02,0.724c-0.447,0.001-0.894,0.001-1.342,0.002
		C280.177,296.723,280.171,296.482,280.164,296.241z M282.848,296.239c0.446,0,0.892,0,1.337-0.002
		c0.007,0.242,0.013,0.482,0.02,0.725c-0.446,0-0.892,0.001-1.338,0.001C282.861,296.721,282.854,296.48,282.848,296.239z
		 M285.522,296.236c0.445,0,0.89-0.002,1.333-0.003c0.006,0.242,0.012,0.482,0.018,0.725c-0.445,0-0.889,0.001-1.334,0.002
		C285.534,296.717,285.528,296.477,285.522,296.236z M288.189,296.231c0.444,0,0.887-0.001,1.331-0.001
		c0.005,0.24,0.01,0.482,0.015,0.723c-0.443,0.001-0.887,0.002-1.331,0.002C288.199,296.714,288.195,296.473,288.189,296.231z
		 M290.85,296.227c0.444-0.001,0.887-0.002,1.33-0.002c0.005,0.241,0.009,0.481,0.013,0.723c-0.443,0.001-0.886,0.002-1.329,0.003
		C290.86,296.709,290.855,296.468,290.85,296.227z M298.826,296.212c0.444-0.001,0.888-0.001,1.332-0.002
		c0.002,0.241,0.004,0.481,0.006,0.723c-0.444,0-0.887,0.002-1.33,0.002C298.831,296.694,298.829,296.453,298.826,296.212z
		 M304.159,296.205c0.446,0,0.893-0.001,1.338-0.001c0.002,0.24,0.003,0.48,0.003,0.722c-0.446,0.001-0.892,0.001-1.338,0.002
		C304.162,296.686,304.16,296.446,304.159,296.205z M277.424,294.794c0.451,0,0.9,0,1.35,0c0.007,0.24,0.015,0.482,0.022,0.724
		c-0.449,0-0.9,0-1.35,0C277.438,295.277,277.431,295.036,277.424,294.794z M288.156,294.786c0.445-0.002,0.889-0.003,1.333-0.003
		c0.005,0.241,0.01,0.482,0.015,0.724c-0.444,0-0.888,0.001-1.332,0.002C288.167,295.267,288.162,295.026,288.156,294.786z
		 M290.822,294.781c0.444,0,0.888-0.002,1.332-0.003c0.004,0.242,0.009,0.482,0.013,0.724c-0.444,0.001-0.887,0.002-1.331,0.003
		C290.831,295.263,290.826,295.022,290.822,294.781z M293.486,294.776c0.443-0.001,0.887-0.001,1.331-0.002
		c0.004,0.241,0.008,0.482,0.011,0.723c-0.443,0.001-0.887,0.002-1.33,0.003C293.493,295.258,293.49,295.017,293.486,294.776z
		 M301.48,294.763c0.445,0,0.891-0.001,1.336-0.001c0.002,0.241,0.003,0.481,0.005,0.722c-0.446,0-0.891,0.002-1.335,0.002
		C301.484,295.245,301.482,295.004,301.48,294.763z M304.153,294.76c0.446,0,0.894-0.001,1.34-0.001
		c0.001,0.241,0.002,0.48,0.003,0.722c-0.446,0-0.894,0-1.338,0.002C304.156,295.243,304.155,295.001,304.153,294.76z
		 M306.834,294.758c0.447,0,0.896,0,1.345-0.002c0,0.24,0,0.481,0.001,0.723c-0.449,0-0.896,0.001-1.344,0.001
		C306.835,295.239,306.835,294.999,306.834,294.758z M309.526,294.756c0.449,0,0.898,0,1.35-0.001c0,0.241,0,0.481,0,0.722
		c-0.45,0-0.9,0-1.35,0C309.526,295.238,309.526,294.997,309.526,294.756z M277.379,293.346c0.451,0,0.901,0,1.351,0
		c0.007,0.241,0.015,0.482,0.022,0.724c-0.45,0-0.899,0-1.351,0C277.394,293.83,277.386,293.587,277.379,293.346z M285.449,293.341
		c0.446,0,0.892-0.001,1.338-0.001c0.006,0.24,0.012,0.48,0.018,0.724c-0.446,0-0.892,0-1.337,0.001
		C285.461,293.823,285.455,293.583,285.449,293.341z M288.123,293.338c0.446-0.002,0.891-0.002,1.335-0.002
		c0.005,0.241,0.01,0.481,0.016,0.723c-0.445,0.001-0.89,0.002-1.335,0.002C288.134,293.821,288.129,293.58,288.123,293.338z
		 M293.462,293.331c0.444,0,0.889-0.002,1.333-0.003c0.003,0.242,0.007,0.482,0.011,0.724c-0.445,0.001-0.889,0.001-1.333,0.002
		C293.47,293.812,293.466,293.572,293.462,293.331z M296.13,293.327c0.444,0,0.888-0.002,1.333-0.002
		c0.003,0.24,0.006,0.482,0.009,0.723c-0.445,0-0.889,0.001-1.333,0.002C296.135,293.809,296.132,293.568,296.13,293.327z
		 M298.798,293.323c0.445,0,0.89-0.001,1.336-0.001c0.002,0.24,0.004,0.48,0.006,0.722c-0.445,0-0.89,0.001-1.335,0.002
		C298.802,293.804,298.8,293.563,298.798,293.323z M304.147,293.316c0.446,0,0.894-0.001,1.342-0.001
		c0,0.241,0.001,0.481,0.002,0.723c-0.448,0-0.894,0-1.34,0.001C304.149,293.797,304.149,293.557,304.147,293.316z M309.524,293.312
		c0.451,0,0.9,0,1.352,0c0,0.241,0,0.481,0,0.723c-0.451,0-0.9,0-1.352,0C309.524,293.793,309.524,293.553,309.524,293.312z
		 M280.035,291.898c0.45,0,0.898-0.001,1.348-0.001c0.007,0.241,0.014,0.481,0.021,0.725c-0.449,0-0.897,0-1.347,0
		C280.05,292.38,280.042,292.138,280.035,291.898z M282.727,291.896c0.448,0,0.896,0,1.344-0.001
		c0.006,0.242,0.013,0.482,0.019,0.725c-0.447,0-0.895,0-1.342,0C282.741,292.378,282.735,292.137,282.727,291.896z
		 M285.413,291.894c0.446,0,0.893-0.001,1.339-0.001c0.006,0.24,0.012,0.482,0.017,0.724c-0.446,0-0.892,0-1.339,0.001
		C285.424,292.375,285.418,292.135,285.413,291.894z M290.766,291.888c0.444-0.001,0.891-0.001,1.335-0.002
		c0.005,0.241,0.009,0.482,0.014,0.723c-0.446,0.001-0.891,0.001-1.335,0.002C290.775,292.371,290.77,292.128,290.766,291.888z
		 M296.11,291.88c0.446,0,0.891,0,1.336-0.001c0.003,0.24,0.006,0.482,0.009,0.723c-0.446,0-0.891,0.001-1.335,0.002
		C296.116,292.362,296.113,292.122,296.11,291.88z M301.459,291.875c0.447-0.001,0.893-0.001,1.34-0.002
		c0.002,0.24,0.003,0.48,0.005,0.722c-0.447,0.001-0.893,0.001-1.34,0.002C301.463,292.356,301.461,292.116,301.459,291.875z
		 M304.141,291.873c0.446,0,0.895-0.002,1.342-0.002c0.001,0.241,0.002,0.482,0.003,0.723c-0.447,0-0.896,0-1.342,0.001
		C304.142,292.353,304.142,292.113,304.141,291.873z M309.524,291.869c0.45,0,0.899,0,1.352,0c0,0.241,0,0.48,0,0.722
		c-0.451,0-0.901,0-1.352,0C309.524,292.351,309.524,292.11,309.524,291.869z M277.291,290.451c0.451,0,0.901,0,1.352,0
		c0.007,0.24,0.014,0.483,0.022,0.724c-0.451,0-0.901,0-1.353,0C277.305,290.934,277.298,290.691,277.291,290.451z M285.376,290.447
		c0.448,0,0.895,0,1.343-0.001c0.005,0.242,0.011,0.482,0.017,0.724c-0.446,0.001-0.894,0.001-1.341,0.001
		C285.388,290.929,285.382,290.688,285.376,290.447z M288.059,290.445c0.447-0.001,0.893-0.001,1.34-0.002
		c0.004,0.241,0.01,0.482,0.015,0.724c-0.446,0-0.893,0-1.339,0.001C288.069,290.927,288.064,290.686,288.059,290.445z
		 M290.738,290.442c0.447,0,0.893-0.001,1.339-0.001c0.004,0.24,0.008,0.481,0.012,0.723c-0.446,0-0.892,0-1.338,0.001
		C290.747,290.924,290.742,290.682,290.738,290.442z M293.414,290.439c0.446-0.001,0.893-0.001,1.339-0.001
		c0.003,0.241,0.007,0.481,0.01,0.723c-0.446,0-0.891,0-1.337,0.001C293.423,290.92,293.419,290.679,293.414,290.439z
		 M298.769,290.433c0.446,0,0.892-0.001,1.339-0.001c0.002,0.24,0.004,0.48,0.006,0.722c-0.447,0-0.893,0.001-1.338,0.001
		C298.773,290.915,298.771,290.674,298.769,290.433z M301.449,290.43c0.447,0,0.894-0.001,1.341-0.001
		c0.002,0.24,0.003,0.481,0.005,0.722c-0.447,0.001-0.894,0.001-1.341,0.001C301.452,290.912,301.45,290.67,301.449,290.43z
		 M304.133,290.428c0.447,0,0.896-0.001,1.345-0.001c0.001,0.24,0.002,0.481,0.002,0.723c-0.448,0-0.896,0-1.343,0
		C304.135,290.909,304.135,290.668,304.133,290.428z M306.823,290.426c0.45,0,0.898,0,1.349,0c0,0.24,0.001,0.481,0.001,0.721
		c-0.45,0.001-0.898,0.001-1.348,0.001C306.825,290.908,306.824,290.667,306.823,290.426z M309.522,290.426
		c0.45-0.001,0.901-0.001,1.352-0.001c0,0.24,0,0.481,0,0.722c-0.45,0-0.901,0-1.351,0
		C309.523,290.907,309.522,290.666,309.522,290.426z M279.317,282.473h1.354c0.004,0.242,0.008,0.482,0.013,0.723h-1.354
		C279.325,282.956,279.321,282.715,279.317,282.473z M276.62,283.196c-0.005-0.241-0.009-0.482-0.013-0.723c0.452,0,0.904,0,1.355,0
		c0.004,0.241,0.009,0.482,0.013,0.723C277.524,283.196,277.072,283.196,276.62,283.196z M282.023,282.473c0.451,0,0.901,0,1.353,0
		c0.004,0.241,0.007,0.482,0.012,0.723c-0.451,0-0.901,0-1.352,0C282.031,282.956,282.027,282.715,282.023,282.473z
		 M284.726,282.473c0.451,0,0.901,0,1.352,0c0.003,0.241,0.007,0.481,0.011,0.722c-0.45,0-0.9,0.001-1.351,0.001
		C284.734,282.955,284.73,282.714,284.726,282.473z M287.427,282.472c0.451,0,0.9,0,1.351,0c0.003,0.241,0.006,0.481,0.01,0.722
		c-0.45,0.001-0.9,0.001-1.35,0.001C287.434,282.955,287.431,282.713,287.427,282.472z M292.825,282.471
		c0.45,0,0.899-0.001,1.349-0.001c0.002,0.241,0.004,0.481,0.006,0.723c-0.449,0-0.898,0-1.348,0
		C292.83,282.953,292.826,282.712,292.825,282.471z M295.523,282.47c0.45,0,0.899-0.001,1.35-0.001
		c0.001,0.241,0.002,0.481,0.005,0.722c-0.45,0.001-0.9,0.001-1.349,0.001C295.527,282.952,295.525,282.711,295.523,282.47z
		 M298.22,282.469c0.45,0,0.9,0,1.35,0c0.001,0.241,0.003,0.481,0.004,0.721c-0.45,0.001-0.9,0.001-1.35,0.001
		C298.224,282.951,298.223,282.71,298.22,282.469z M300.921,282.468c0.45,0,0.899,0,1.349,0c0.001,0.241,0.002,0.481,0.003,0.722
		c-0.451,0-0.9,0-1.35,0C300.922,282.95,300.921,282.709,300.921,282.468z M303.621,282.468c0.449,0,0.9,0,1.352-0.001
		c0,0.241,0,0.481,0.001,0.722c-0.451,0-0.9,0-1.351,0C303.623,282.949,303.621,282.709,303.621,282.468z M306.324,282.467h1.353
		c0,0.241,0,0.481,0,0.722c-0.45,0-0.901,0-1.352,0C306.324,282.949,306.324,282.708,306.324,282.467z M309.031,283.189
		c0-0.241,0-0.481,0-0.722c0.451,0,0.903,0,1.355,0c0,0.241,0,0.481,0,0.722C309.934,283.189,309.482,283.189,309.031,283.189z
		 M284.706,281.027c0.451,0,0.901,0,1.353,0c0.002,0.241,0.005,0.483,0.009,0.723c-0.451,0-0.901,0-1.352,0
		C284.712,281.51,284.709,281.269,284.706,281.027z M290.111,281.027c0.451-0.001,0.9-0.001,1.35-0.001
		c0.002,0.241,0.005,0.483,0.007,0.723c-0.45,0-0.899,0-1.35,0C290.116,281.509,290.113,281.268,290.111,281.027z M295.513,281.026
		c0.45,0,0.9,0,1.351,0c0.001,0.241,0.003,0.481,0.003,0.722c-0.45,0-0.899,0-1.349,0
		C295.516,281.506,295.515,281.266,295.513,281.026z M303.618,281.024c0.45,0,0.901,0,1.353,0c0,0.241,0.001,0.481,0.001,0.722
		c-0.45,0-0.901,0-1.353,0C303.619,281.505,303.619,281.265,303.618,281.024z M309.031,281.745c0-0.24,0-0.48,0-0.721
		c0.451,0,0.903,0,1.355,0c0,0.241,0,0.481,0,0.722C309.934,281.745,309.482,281.745,309.031,281.745z M279.278,279.583
		c0.451,0,0.903,0,1.354,0c0.003,0.241,0.006,0.481,0.008,0.722h-1.354C279.283,280.064,279.28,279.824,279.278,279.583z
		 M281.986,279.583h1.353c0.003,0.241,0.005,0.481,0.008,0.722h-1.354C281.99,280.064,281.988,279.824,281.986,279.583z
		 M284.691,279.583h1.353c0.002,0.241,0.004,0.481,0.007,0.722c-0.451,0-0.901,0-1.352,0
		C284.696,280.064,284.694,279.824,284.691,279.583z M287.395,279.582c0.451,0,0.902,0,1.353,0c0.002,0.241,0.004,0.481,0.006,0.722
		c-0.451,0-0.9,0.001-1.351,0.001C287.4,280.063,287.397,279.823,287.395,279.582z M290.099,279.582c0.451,0,0.901,0,1.352,0
		c0.001,0.241,0.003,0.481,0.005,0.722c-0.451,0-0.902,0-1.352,0C290.103,280.063,290.101,279.823,290.099,279.582z
		 M292.803,279.582c0.451,0,0.901,0,1.352,0c0.001,0.241,0.003,0.481,0.004,0.721c-0.451,0.001-0.901,0.001-1.352,0.001
		C292.806,280.063,292.804,279.823,292.803,279.582z M298.21,279.581c0.45,0,0.9,0,1.351,0c0.001,0.241,0.001,0.481,0.002,0.722
		c-0.451,0-0.901,0-1.352,0C298.211,280.063,298.21,279.822,298.21,279.581z M306.324,279.581h1.353c0,0.24,0,0.48,0,0.721h-1.353
		C306.324,280.062,306.324,279.821,306.324,279.581z M281.974,278.138h1.354c0,0.241,0.003,0.481,0.004,0.722h-1.353
		C281.977,278.619,281.975,278.378,281.974,278.138z M276.562,278.86c0-0.24-0.002-0.481-0.004-0.722c0.452,0,0.903,0,1.355,0
		c0.001,0.241,0.002,0.481,0.004,0.722C277.466,278.86,277.014,278.86,276.562,278.86z M287.385,278.138c0.452,0,0.902,0,1.354,0
		c0.001,0.241,0.001,0.481,0.004,0.722c-0.451,0-0.902,0-1.353,0C287.388,278.619,287.387,278.378,287.385,278.138z
		 M298.207,278.137h1.354c0,0.241,0,0.481,0,0.722c-0.451,0-0.902,0-1.353,0C298.208,278.618,298.208,278.377,298.207,278.137z
		 M309.032,278.859c0-0.241,0-0.481,0-0.722c0.451,0,0.902,0,1.354,0c0,0.241,0,0.481,0,0.722
		C309.935,278.859,309.484,278.859,309.032,278.859z M300.913,278.137h1.353c0,0.241-0.001,0.481-0.001,0.722h-1.352
		C300.913,278.618,300.913,278.377,300.913,278.137z M303.618,278.137h1.354c0,0.241,0,0.481-0.001,0.722h-1.353
		C303.618,278.618,303.618,278.377,303.618,278.137z M276.555,277.416c0-0.241,0-0.482,0-0.722h1.354c0,0.24,0,0.481,0,0.722
		C277.458,277.416,277.007,277.416,276.555,277.416z M279.261,276.694h1.354c0,0.24,0.001,0.481,0.002,0.722h-1.354
		C279.262,277.175,279.261,276.934,279.261,276.694z M284.675,276.694h1.354c0,0.24,0.001,0.481,0.002,0.722h-1.354
		C284.676,277.175,284.675,276.934,284.675,276.694z M287.381,276.694h1.353c0.001,0.24,0.001,0.481,0.002,0.722h-1.354
		C287.382,277.175,287.382,276.934,287.381,276.694z M290.087,276.694h1.354c0,0.24,0.001,0.481,0.001,0.722
		c-0.451,0-0.901,0-1.352,0C290.089,277.175,290.087,276.934,290.087,276.694z M292.794,276.694h1.354c0,0.24,0,0.481,0,0.722
		h-1.353C292.794,277.175,292.794,276.934,292.794,276.694z M295.501,276.694h1.354c0,0.24,0,0.481,0,0.722
		c-0.452,0-0.902,0-1.354,0C295.501,277.175,295.501,276.934,295.501,276.694z M300.914,276.694h1.353
		c0,0.24-0.001,0.481-0.001,0.722h-1.353C300.914,277.175,300.914,276.934,300.914,276.694z M306.326,277.416
		c0-0.241,0-0.482,0.001-0.722h1.354c-0.001,0.24-0.001,0.481-0.001,0.722C307.229,277.416,306.778,277.416,306.326,277.416z
		 M309.033,276.694h1.354c0,0.24-0.001,0.481-0.001,0.722h-1.354C309.032,277.175,309.032,276.934,309.033,276.694z"/>
	<g>
		<path fill="#8C8C8C" d="M315.9,276.407v1.804c0,0.197,0.159,0.355,0.355,0.355h9.572c0.196,0,0.356-0.159,0.356-0.355v-1.804
			c0-0.196-0.16-0.356-0.356-0.356h-9.572C316.059,276.051,315.9,276.211,315.9,276.407z"/>
		<path fill="#404040" d="M315.899,276.629v1.805c0,0.196,0.16,0.354,0.356,0.354h9.572c0.196,0,0.356-0.159,0.356-0.354v-1.805
			c0-0.196-0.16-0.355-0.356-0.355h-9.572C316.059,276.274,315.899,276.434,315.899,276.629z"/>
		<path fill="#404040" d="M316.124,276.335h9.912C326.155,277.892,316.455,278.034,316.124,276.335z"/>
		<path fill="#474747" d="M316.124,276.335c0.927,1.473,9.479,1.323,9.912,0H316.124z"/>
		<path fill="#525252" d="M316.124,276.335c1.523,1.247,8.93,1.09,9.912,0H316.124z"/>
		<path fill="#5E5E5E" d="M316.124,276.335c2.119,1.021,8.379,0.858,9.912,0H316.124z"/>
		<path fill="#757575" d="M316.124,276.335c2.716,0.796,7.83,0.625,9.912,0H316.124z"/>
		<path fill="#9C9C9C" d="M316.124,276.335c3.312,0.57,7.279,0.393,9.912,0H316.124z"/>
		<path fill="#C9C9C9" d="M316.124,276.335h9.912C322.854,276.496,320.032,276.68,316.124,276.335z"/>
		<path fill="#404040" d="M316.269,278.789h9.543C325.926,277.233,316.588,277.09,316.269,278.789z"/>
		<path fill="#404040" d="M316.269,278.789h9.543C325.402,277.478,317.167,277.331,316.269,278.789z"/>
		<path fill="#3D3D3D" d="M316.269,278.789h9.543C324.876,277.723,317.746,277.571,316.269,278.789z"/>
		<path fill="#3B3B3B" d="M316.269,278.789h9.543C324.35,277.967,318.326,277.811,316.269,278.789z"/>
		<path fill="#363636" d="M316.269,278.789h9.543C323.826,278.211,318.906,278.052,316.269,278.789z"/>
		<path fill="#2E2E2E" d="M316.269,278.789h9.543C323.301,278.457,319.486,278.292,316.269,278.789z"/>
		<path fill="#262626" d="M316.269,278.789h9.543C322.776,278.701,320.066,278.532,316.269,278.789z"/>
		<path fill="#212121" d="M316.121,278.863h9.911C326.152,280.419,316.452,280.563,316.121,278.863z"/>
		<path fill="#1F1F1F" d="M316.121,278.863c0.933,1.458,9.484,1.312,9.911,0H316.121z"/>
		<path fill="#1F1F1F" d="M316.121,278.863c1.534,1.219,8.939,1.067,9.911,0H316.121z"/>
		<path fill="#191919" d="M316.121,278.863c2.137,0.978,8.395,0.822,9.911,0H316.121z"/>
		<path fill="#141414" d="M316.121,278.863c2.739,0.737,7.849,0.578,9.911,0H316.121z"/>
		<path fill="#0A0A0A" d="M316.121,278.863c3.341,0.497,7.303,0.333,9.911,0H316.121z"/>
		<path d="M316.121,278.863h9.911C322.878,278.951,320.064,279.12,316.121,278.863z"/>
		<path fill="#525252" d="M316.269,277.017v1.142c0,0.124,0.101,0.226,0.226,0.226h2.509c0.124,0,0.226-0.102,0.226-0.226v-1.142
			c0-0.124-0.102-0.226-0.226-0.226h-2.509C316.369,276.792,316.269,276.893,316.269,277.017z"/>
		<path fill="#333333" d="M319.525,276.869v1.177c0,0.124,0.101,0.225,0.226,0.225h5.468c0.124,0,0.226-0.101,0.226-0.225v-1.177
			c0-0.124-0.102-0.226-0.226-0.226h-5.468C319.625,276.644,319.525,276.745,319.525,276.869z"/>
		<path fill="#999999" d="M319.672,277.091v1.177c0,0.124,0.101,0.225,0.226,0.225h5.468c0.125,0,0.227-0.101,0.227-0.225v-1.177
			c0-0.124-0.102-0.225-0.227-0.225h-5.468C319.773,276.866,319.672,276.967,319.672,277.091z"/>
		
			<linearGradient id="SVGID_1_" gradientUnits="userSpaceOnUse" x1="327.9573" y1="320.5767" x2="329.7332" y2="320.5767" gradientTransform="matrix(1 0 0 -1 -8.3599 598.165)">
			<stop  offset="0" style="stop-color:#212121"/>
			<stop  offset="1" style="stop-color:#3B3838"/>
		</linearGradient>
		<path fill="url(#SVGID_1_)" d="M325.517,277.017v1.142c0,0.124-0.101,0.226-0.225,0.226h-5.469c-0.124,0-0.226-0.102-0.226-0.226
			v-1.142c0-0.124,0.102-0.226,0.226-0.226h5.469C325.416,276.792,325.517,276.893,325.517,277.017z"/>
	</g>
	<g>
		<path fill="#8C8C8C" d="M315.9,280.587v1.804c0,0.196,0.159,0.355,0.355,0.355h9.572c0.196,0,0.356-0.159,0.356-0.355v-1.804
			c0-0.197-0.16-0.356-0.356-0.356h-9.572C316.059,280.231,315.9,280.391,315.9,280.587z"/>
		<path fill="#404040" d="M315.9,280.809v1.804c0,0.196,0.159,0.355,0.355,0.355h9.572c0.196,0,0.356-0.159,0.356-0.355v-1.804
			c0-0.196-0.16-0.355-0.356-0.355h-9.572C316.059,280.454,315.9,280.613,315.9,280.809z"/>
		<path fill="#404040" d="M316.124,280.515h9.912C326.155,282.071,316.455,282.214,316.124,280.515z"/>
		<path fill="#474747" d="M316.124,280.515c0.927,1.473,9.479,1.323,9.912,0H316.124z"/>
		<path fill="#525252" d="M316.124,280.515c1.523,1.247,8.93,1.09,9.912,0H316.124z"/>
		<path fill="#5E5E5E" d="M316.124,280.515c2.119,1.021,8.379,0.858,9.912,0H316.124z"/>
		<path fill="#757575" d="M316.124,280.515c2.716,0.796,7.83,0.625,9.912,0H316.124z"/>
		<path fill="#9C9C9C" d="M316.124,280.515c3.312,0.57,7.279,0.393,9.912,0H316.124z"/>
		<path fill="#C9C9C9" d="M316.124,280.515h9.912C322.854,280.675,320.032,280.859,316.124,280.515z"/>
		<path fill="#404040" d="M316.27,282.968h9.543C325.926,281.413,316.588,281.27,316.27,282.968z"/>
		<path fill="#404040" d="M316.27,282.968h9.543C325.402,281.658,317.167,281.51,316.27,282.968z"/>
		<path fill="#3D3D3D" d="M316.27,282.968h9.543C324.876,281.902,317.747,281.75,316.27,282.968z"/>
		<path fill="#3B3B3B" d="M316.27,282.968h9.543C324.35,282.147,318.326,281.991,316.27,282.968z"/>
		<path fill="#363636" d="M316.27,282.968h9.543C323.826,282.392,318.906,282.231,316.27,282.968z"/>
		<path fill="#2E2E2E" d="M316.27,282.968h9.543C323.301,282.636,319.486,282.472,316.27,282.968z"/>
		<path fill="#262626" d="M316.27,282.968h9.543C322.776,282.881,320.066,282.712,316.27,282.968z"/>
		<path fill="#212121" d="M316.121,283.042h9.911C326.152,284.599,316.452,284.742,316.121,283.042z"/>
		<path fill="#1F1F1F" d="M316.121,283.042c0.933,1.459,9.484,1.312,9.911,0H316.121z"/>
		<path fill="#1F1F1F" d="M316.121,283.042c1.535,1.219,8.939,1.067,9.911,0H316.121z"/>
		<path fill="#191919" d="M316.121,283.042c2.137,0.979,8.395,0.823,9.911,0H316.121z"/>
		<path fill="#141414" d="M316.121,283.042c2.739,0.738,7.849,0.578,9.911,0H316.121z"/>
		<path fill="#0A0A0A" d="M316.121,283.042c3.341,0.497,7.303,0.333,9.911,0H316.121z"/>
		<path d="M316.121,283.042h9.911C322.878,283.13,320.064,283.3,316.121,283.042z"/>
		<path fill="#525252" d="M316.27,281.197v1.142c0,0.124,0.1,0.226,0.225,0.226h2.509c0.124,0,0.226-0.102,0.226-0.226v-1.142
			c0-0.125-0.102-0.226-0.226-0.226h-2.509C316.369,280.971,316.27,281.072,316.27,281.197z"/>
		<path fill="#333333" d="M319.525,281.049v1.177c0,0.124,0.101,0.225,0.226,0.225h5.468c0.124,0,0.226-0.101,0.226-0.225v-1.177
			c0-0.125-0.102-0.226-0.226-0.226h-5.468C319.625,280.823,319.525,280.924,319.525,281.049z"/>
		<path fill="#999999" d="M319.673,281.271v1.177c0,0.124,0.1,0.225,0.225,0.225h5.468c0.125,0,0.227-0.101,0.227-0.225v-1.177
			c0-0.125-0.102-0.225-0.227-0.225h-5.468C319.773,281.046,319.673,281.146,319.673,281.271z"/>
		
			<linearGradient id="SVGID_2_" gradientUnits="userSpaceOnUse" x1="328.0325" y1="316.397" x2="329.4382" y2="316.397" gradientTransform="matrix(1 0 0 -1 -8.3599 598.165)">
			<stop  offset="0" style="stop-color:#242424"/>
			<stop  offset="1" style="stop-color:#3B3838"/>
		</linearGradient>
		<path fill="url(#SVGID_2_)" d="M325.518,281.197v1.142c0,0.124-0.102,0.226-0.226,0.226h-5.469c-0.124,0-0.226-0.102-0.226-0.226
			v-1.142c0-0.125,0.102-0.226,0.226-0.226h5.469C325.416,280.971,325.518,281.072,325.518,281.197z"/>
	</g>
	<g>
		<path fill="#8C8C8C" d="M315.677,290.464v1.805c0,0.195,0.161,0.354,0.36,0.354h9.711c0.199,0,0.361-0.159,0.361-0.354v-1.805
			c0-0.196-0.162-0.355-0.361-0.355h-9.711C315.838,290.109,315.677,290.268,315.677,290.464z"/>
		<path fill="#404040" d="M315.677,290.686v1.805c0,0.196,0.161,0.355,0.36,0.355h9.711c0.199,0,0.36-0.159,0.36-0.355v-1.805
			c0-0.196-0.161-0.355-0.36-0.355h-9.711C315.838,290.331,315.677,290.49,315.677,290.686z"/>
		<path fill="#404040" d="M315.905,290.392h10.054C326.079,291.948,316.241,292.091,315.905,290.392z"/>
		<path fill="#474747" d="M315.905,290.392c0.941,1.474,9.617,1.323,10.054,0H315.905z"/>
		<path fill="#4F4F4F" d="M315.905,290.392c1.546,1.247,9.059,1.09,10.054,0H315.905z"/>
		<path fill="#5C5C5C" d="M315.905,290.392c2.15,1.021,8.501,0.858,10.054,0H315.905z"/>
		<path fill="#737373" d="M315.905,290.392c2.756,0.796,7.943,0.626,10.054,0H315.905z"/>
		<path fill="#949494" d="M315.905,290.392c3.361,0.57,7.385,0.393,10.054,0H315.905z"/>
		<path fill="#BFBFBF" d="M315.905,290.392h10.054C322.732,290.552,319.87,290.737,315.905,290.392z"/>
		<path fill="#404040" d="M316.053,292.846h9.681C325.848,291.291,316.375,291.147,316.053,292.846z"/>
		<path fill="#404040" d="M316.053,292.846h9.681C325.316,291.535,316.963,291.388,316.053,292.846z"/>
		<path fill="#3D3D3D" d="M316.053,292.846h9.681C324.784,291.78,317.551,291.627,316.053,292.846z"/>
		<path fill="#3B3B3B" d="M316.053,292.846h9.681C324.251,292.024,318.139,291.869,316.053,292.846z"/>
		<path fill="#363636" d="M316.053,292.846h9.681C323.719,292.269,318.727,292.109,316.053,292.846z"/>
		<path fill="#2E2E2E" d="M316.053,292.846h9.681C323.186,292.513,319.315,292.349,316.053,292.846z"/>
		<path fill="#262626" d="M316.053,292.846h9.681C322.653,292.758,319.903,292.589,316.053,292.846z"/>
		<path fill="#212121" d="M315.903,292.919h10.054C326.076,294.476,316.239,294.62,315.903,292.919z"/>
		<path fill="#1F1F1F" d="M315.903,292.919c0.946,1.459,9.621,1.313,10.054,0H315.903z"/>
		<path fill="#1F1F1F" d="M315.903,292.919c1.557,1.22,9.067,1.067,10.054,0H315.903z"/>
		<path fill="#191919" d="M315.903,292.919c2.167,0.979,8.514,0.823,10.054,0H315.903z"/>
		<path fill="#141414" d="M315.903,292.919c2.778,0.738,7.962,0.578,10.054,0H315.903z"/>
		<path fill="#0A0A0A" d="M315.903,292.919c3.389,0.497,7.408,0.334,10.054,0H315.903z"/>
		<path d="M315.903,292.919h10.054C322.758,293.007,319.902,293.177,315.903,292.919z"/>
		<path fill="#525252" d="M316.053,291.075v1.141c0,0.124,0.103,0.227,0.229,0.227h2.544c0.126,0,0.229-0.103,0.229-0.227v-1.141
			c0-0.125-0.103-0.227-0.229-0.227h-2.545C316.154,290.848,316.053,290.95,316.053,291.075z"/>
		<path fill="#333333" d="M319.355,290.926v1.177c0,0.124,0.103,0.226,0.229,0.226h5.546c0.126,0,0.229-0.102,0.229-0.226
			l-0.001-1.177c0-0.125-0.102-0.226-0.229-0.226h-5.546C319.456,290.701,319.355,290.801,319.355,290.926z"/>
		<path fill="#999999" d="M319.504,291.148l0.001,1.178c0,0.123,0.103,0.225,0.229,0.225h5.546c0.126,0,0.229-0.102,0.229-0.225
			l-0.001-1.178c0-0.124-0.103-0.225-0.229-0.225h-5.545C319.607,290.923,319.504,291.024,319.504,291.148z"/>
		
			<linearGradient id="SVGID_3_" gradientUnits="userSpaceOnUse" x1="327.7366" y1="306.52" x2="328.9946" y2="306.52" gradientTransform="matrix(1 0 0 -1 -8.3599 598.165)">
			<stop  offset="0" style="stop-color:#242424"/>
			<stop  offset="1" style="stop-color:#3B3838"/>
		</linearGradient>
		<path fill="url(#SVGID_3_)" d="M325.434,291.075l0.001,1.142c0,0.123-0.103,0.226-0.229,0.226h-5.547
			c-0.127,0-0.229-0.103-0.229-0.226l-0.002-1.142c0-0.125,0.103-0.227,0.229-0.227h5.549
			C325.331,290.848,325.434,290.95,325.434,291.075z"/>
	</g>
	<g>
		<path fill="#8C8C8C" d="M315.677,294.644v1.804c0,0.197,0.158,0.355,0.353,0.355h9.505c0.194,0,0.354-0.158,0.354-0.355v-1.804
			c0-0.195-0.159-0.356-0.354-0.356h-9.505C315.835,294.288,315.677,294.449,315.677,294.644z"/>
		<path fill="#404040" d="M315.677,294.866v1.805c0,0.196,0.158,0.354,0.353,0.354h9.504c0.195,0,0.353-0.158,0.353-0.354v-1.805
			c0-0.196-0.157-0.354-0.353-0.354h-9.504C315.835,294.511,315.677,294.669,315.677,294.866z"/>
		<path fill="#404040" d="M315.9,294.573h9.841C325.859,296.127,316.229,296.271,315.9,294.573z"/>
		<path fill="#454545" d="M315.9,294.573c0.921,1.473,9.412,1.322,9.841,0H315.9z"/>
		<path fill="#4C4C4C" d="M315.9,294.573c1.514,1.246,8.866,1.09,9.841,0H315.9z"/>
		<path fill="#575757" d="M315.9,294.573c2.105,1.021,8.32,0.857,9.841,0H315.9z"/>
		<path fill="#696969" d="M315.9,294.573c2.697,0.795,7.774,0.625,9.841,0H315.9z"/>
		<path fill="#858585" d="M315.9,294.573c3.289,0.569,7.228,0.393,9.841,0H315.9z"/>
		<path fill="#A6A6A6" d="M315.9,294.573h9.841C322.582,294.732,319.781,294.917,315.9,294.573z"/>
		<path fill="#404040" d="M316.045,297.025h9.474C325.632,295.47,316.361,295.327,316.045,297.025z"/>
		<path fill="#404040" d="M316.045,297.025h9.474C325.112,295.714,316.937,295.568,316.045,297.025z"/>
		<path fill="#3D3D3D" d="M316.045,297.025h9.474C324.589,295.959,317.512,295.807,316.045,297.025z"/>
		<path fill="#3B3B3B" d="M316.045,297.025h9.474C324.069,296.204,318.087,296.047,316.045,297.025z"/>
		<path fill="#363636" d="M316.045,297.025h9.474C323.547,296.448,318.661,296.289,316.045,297.025z"/>
		<path fill="#2E2E2E" d="M316.045,297.025h9.474C323.026,296.693,319.239,296.53,316.045,297.025z"/>
		<path fill="#262626" d="M316.045,297.025h9.474C322.504,296.937,319.813,296.769,316.045,297.025z"/>
		<path fill="#212121" d="M315.899,297.099h9.839C325.856,298.656,316.226,298.798,315.899,297.099z"/>
		<path fill="#1F1F1F" d="M315.899,297.099c0.926,1.459,9.416,1.313,9.839,0H315.899z"/>
		<path fill="#1F1F1F" d="M315.899,297.099c1.521,1.219,8.875,1.067,9.839,0H315.899z"/>
		<path fill="#191919" d="M315.899,297.099c2.12,0.979,8.333,0.823,9.839,0H315.899z"/>
		<path fill="#141414" d="M315.899,297.099c2.718,0.738,7.791,0.578,9.839,0H315.899z"/>
		<path fill="#0A0A0A" d="M315.899,297.099c3.315,0.498,7.25,0.334,9.839,0H315.899z"/>
		<path d="M315.899,297.099h9.839C322.607,297.188,319.812,297.357,315.899,297.099z"/>
		<path fill="#525252" d="M316.045,295.253v1.142c0,0.124,0.101,0.226,0.224,0.226h2.489c0.125,0,0.225-0.102,0.225-0.226
			l-0.001-1.142c0-0.124-0.1-0.226-0.224-0.226h-2.491C316.145,295.028,316.045,295.129,316.045,295.253z"/>
		<path fill="#333333" d="M319.277,295.106l0.001,1.177c0,0.124,0.101,0.225,0.224,0.225h5.427c0.124,0,0.225-0.101,0.225-0.225
			l-0.001-1.177c0-0.125-0.101-0.226-0.224-0.226H319.5C319.377,294.88,319.277,294.981,319.277,295.106z"/>
		<path fill="#999999" d="M319.423,295.329l0.002,1.177c0,0.123,0.1,0.224,0.223,0.224h5.429c0.122,0,0.223-0.101,0.223-0.224
			v-1.177c0-0.125-0.102-0.226-0.224-0.226h-5.43C319.523,295.103,319.423,295.204,319.423,295.329z"/>
		
			<linearGradient id="SVGID_4_" gradientUnits="userSpaceOnUse" x1="327.7375" y1="302.3403" x2="329.069" y2="302.3403" gradientTransform="matrix(1 0 0 -1 -8.3599 598.165)">
			<stop  offset="0" style="stop-color:#292929"/>
			<stop  offset="1" style="stop-color:#3B3838"/>
		</linearGradient>
		<path fill="url(#SVGID_4_)" d="M325.226,295.253l0.001,1.143c0,0.123-0.1,0.225-0.224,0.225h-5.43
			c-0.124,0-0.224-0.102-0.224-0.225l-0.001-1.143c0-0.124,0.101-0.226,0.224-0.226h5.431
			C325.126,295.028,325.226,295.129,325.226,295.253z"/>
	</g>
	<g>
		<path fill="#8C8C8C" d="M316.12,304.891v1.805c0,0.196,0.15,0.355,0.334,0.355h8.952c0.184,0,0.333-0.159,0.333-0.355v-1.805
			c0-0.196-0.149-0.355-0.333-0.355h-8.952C316.271,304.536,316.12,304.695,316.12,304.891z"/>
		<path fill="#404040" d="M316.12,305.114v1.804c0,0.196,0.149,0.354,0.334,0.354h8.952c0.184,0,0.332-0.158,0.332-0.354v-1.804
			c0-0.196-0.148-0.355-0.332-0.355h-8.952C316.27,304.758,316.12,304.917,316.12,305.114z"/>
		<path fill="#404040" d="M316.331,304.82h9.27C325.712,306.375,316.64,306.518,316.331,304.82z"/>
		<path fill="#454545" d="M316.331,304.82c0.866,1.472,8.865,1.322,9.27,0H316.331z"/>
		<path fill="#4F4F4F" d="M316.331,304.82c1.425,1.246,8.352,1.09,9.27,0H316.331z"/>
		<path fill="#5C5C5C" d="M316.331,304.82c1.982,1.021,7.837,0.858,9.27,0H316.331z"/>
		<path fill="#707070" d="M316.331,304.82c2.54,0.795,7.323,0.625,9.27,0H316.331z"/>
		<path fill="#919191" d="M316.331,304.82c3.099,0.57,6.809,0.392,9.27,0H316.331z"/>
		<path fill="#BABABA" d="M316.331,304.82h9.27C322.625,304.979,319.987,305.164,316.331,304.82z"/>
		<path fill="#404040" d="M316.467,307.272h8.925C325.499,305.717,316.765,305.574,316.467,307.272z"/>
		<path fill="#404040" d="M316.467,307.272h8.925C325.008,305.961,317.307,305.814,316.467,307.272z"/>
		<path fill="#3D3D3D" d="M316.467,307.272h8.925C324.516,306.207,317.849,306.054,316.467,307.272z"/>
		<path fill="#3B3B3B" d="M316.467,307.272h8.925C324.025,306.451,318.392,306.295,316.467,307.272z"/>
		<path fill="#363636" d="M316.467,307.272h8.925C323.534,306.696,318.934,306.536,316.467,307.272z"/>
		<path fill="#2E2E2E" d="M316.467,307.272h8.925C323.044,306.94,319.475,306.777,316.467,307.272z"/>
		<path fill="#262626" d="M316.467,307.272h8.925C322.552,307.185,320.017,307.016,316.467,307.272z"/>
		<path fill="#212121" d="M316.328,307.347h9.271C325.709,308.904,316.638,309.046,316.328,307.347z"/>
		<path fill="#1F1F1F" d="M316.328,307.347c0.872,1.459,8.87,1.312,9.271,0H316.328z"/>
		<path fill="#1F1F1F" d="M316.328,307.347c1.436,1.219,8.361,1.067,9.271,0H316.328z"/>
		<path fill="#191919" d="M316.328,307.347c1.999,0.979,7.851,0.822,9.271,0H316.328z"/>
		<path fill="#141414" d="M316.328,307.347c2.562,0.737,7.341,0.578,9.271,0H316.328z"/>
		<path fill="#0A0A0A" d="M316.328,307.347c3.124,0.496,6.831,0.333,9.271,0H316.328z"/>
		<path d="M316.328,307.347h9.271C322.649,307.434,320.016,307.604,316.328,307.347z"/>
		<path fill="#525252" d="M316.467,305.5l-0.001,1.143c0,0.123,0.095,0.225,0.211,0.225h2.347c0.116,0,0.212-0.102,0.212-0.225
			l0.001-1.143c0-0.124-0.096-0.226-0.212-0.226h-2.347C316.562,305.275,316.467,305.376,316.467,305.5z"/>
		<path fill="#333333" d="M319.511,305.353v1.177c0,0.124,0.094,0.225,0.21,0.225h5.115c0.117,0,0.211-0.101,0.211-0.225
			l0.001-1.177c0-0.124-0.095-0.226-0.211-0.226h-5.114C319.606,305.127,319.511,305.229,319.511,305.353z"/>
		<path fill="#999999" d="M319.65,305.576v1.176c0,0.125,0.094,0.226,0.21,0.226h5.116c0.115,0,0.209-0.101,0.209-0.226l0.001-1.176
			c0-0.125-0.094-0.226-0.21-0.226h-5.115C319.743,305.35,319.65,305.451,319.65,305.576z"/>
		
			<linearGradient id="SVGID_5_" gradientUnits="userSpaceOnUse" x1="327.9583" y1="292.0942" x2="329.5863" y2="292.0942" gradientTransform="matrix(1 0 0 -1 -8.3599 598.165)">
			<stop  offset="0" style="stop-color:#2B2B2B"/>
			<stop  offset="1" style="stop-color:#3B3838"/>
		</linearGradient>
		<path fill="url(#SVGID_5_)" d="M325.116,305.5l-0.002,1.142c0,0.124-0.093,0.226-0.209,0.226h-5.114
			c-0.116,0-0.212-0.102-0.212-0.226l0.002-1.142c0-0.124,0.095-0.226,0.211-0.226h5.114
			C325.022,305.275,325.116,305.376,325.116,305.5z"/>
	</g>
	<g>
		<path fill="#8C8C8C" d="M316.27,309.331v1.805c0,0.195,0.143,0.354,0.319,0.354h8.607c0.178,0,0.321-0.159,0.321-0.354v-1.805
			c0-0.196-0.144-0.356-0.321-0.356h-8.607C316.412,308.974,316.27,309.134,316.27,309.331z"/>
		<path fill="#404040" d="M316.27,309.552v1.805c0,0.196,0.143,0.354,0.319,0.354h8.607c0.178,0,0.321-0.158,0.321-0.354v-1.805
			c0-0.196-0.144-0.355-0.321-0.355h-8.607C316.412,309.197,316.27,309.356,316.27,309.552z"/>
		<path fill="#404040" d="M316.471,309.258h8.914C325.49,310.815,316.769,310.958,316.471,309.258z"/>
		<path fill="#474747" d="M316.471,309.258c0.834,1.473,8.525,1.323,8.914,0H316.471z"/>
		<path fill="#525252" d="M316.471,309.258c1.37,1.247,8.031,1.09,8.914,0H316.471z"/>
		<path fill="#616161" d="M316.471,309.258c1.907,1.021,7.536,0.858,8.914,0H316.471z"/>
		<path fill="#787878" d="M316.471,309.258c2.442,0.796,7.041,0.626,8.914,0H316.471z"/>
		<path fill="#9C9C9C" d="M316.471,309.258c2.979,0.57,6.547,0.393,8.914,0H316.471z"/>
		<path fill="#CCCCCC" d="M316.471,309.258h8.914C322.524,309.417,319.987,309.602,316.471,309.258z"/>
		<path fill="#404040" d="M316.602,311.711h8.581C325.285,310.156,316.888,310.013,316.602,311.711z"/>
		<path fill="#404040" d="M316.602,311.711h8.581C324.815,310.401,317.409,310.253,316.602,311.711z"/>
		<path fill="#3D3D3D" d="M316.602,311.711h8.581C324.342,310.645,317.931,310.494,316.602,311.711z"/>
		<path fill="#3B3B3B" d="M316.602,311.711h8.581C323.869,310.889,318.451,310.734,316.602,311.711z"/>
		<path fill="#363636" d="M316.602,311.711h8.581C323.398,311.135,318.974,310.975,316.602,311.711z"/>
		<path fill="#2E2E2E" d="M316.602,311.711h8.581C322.925,311.378,319.494,311.215,316.602,311.711z"/>
		<path fill="#262626" d="M316.602,311.711h8.581C322.453,311.625,320.015,311.456,316.602,311.711z"/>
		<path fill="#525252" d="M316.602,309.94l-0.002,1.142c0,0.124,0.091,0.226,0.204,0.226h2.257c0.111,0,0.202-0.102,0.202-0.226
			v-1.142c0-0.124-0.091-0.227-0.201-0.227h-2.258C316.693,309.713,316.602,309.816,316.602,309.94z"/>
		<path fill="#333333" d="M319.53,309.792l-0.002,1.177c0,0.124,0.091,0.225,0.202,0.225h4.919c0.112,0,0.203-0.101,0.203-0.225
			l0.001-1.177c0-0.124-0.091-0.227-0.203-0.227h-4.918C319.62,309.566,319.53,309.668,319.53,309.792z"/>
		<path fill="#999999" d="M319.662,310.014l-0.001,1.177c0,0.124,0.091,0.225,0.202,0.225h4.919c0.11,0,0.202-0.101,0.202-0.225
			v-1.177c0-0.124-0.091-0.226-0.202-0.226h-4.919C319.753,309.789,319.662,309.89,319.662,310.014z"/>
		
			<linearGradient id="SVGID_6_" gradientUnits="userSpaceOnUse" x1="327.9553" y1="287.6548" x2="329.2874" y2="287.6548" gradientTransform="matrix(1 0 0 -1 -8.3599 598.165)">
			<stop  offset="0" style="stop-color:#2E2E2E"/>
			<stop  offset="1" style="stop-color:#3B3838"/>
		</linearGradient>
		<path fill="url(#SVGID_6_)" d="M324.919,309.94l-0.001,1.142c0,0.124-0.091,0.226-0.202,0.226h-4.917
			c-0.112,0-0.203-0.102-0.203-0.226l0.001-1.142c0-0.124,0.091-0.227,0.203-0.227h4.916
			C324.828,309.713,324.919,309.816,324.919,309.94z"/>
	</g>
	
		<linearGradient id="SVGID_7_" gradientUnits="userSpaceOnUse" x1="285.0496" y1="295.7759" x2="283.4216" y2="297.7738" gradientTransform="matrix(1 0 0 -1 -8.3599 598.165)">
		<stop  offset="0" style="stop-color:#262626"/>
		<stop  offset="1" style="stop-color:#808080"/>
	</linearGradient>
	<polygon fill="url(#SVGID_7_)" points="275.578,299.208 275.209,302.39 276.689,302.39 	"/>
	
		<linearGradient id="SVGID_8_" gradientUnits="userSpaceOnUse" x1="284.3826" y1="309.98" x2="282.8013" y2="312.0243" gradientTransform="matrix(1 0 0 -1 -8.3599 598.165)">
		<stop  offset="0" style="stop-color:#262626"/>
		<stop  offset="1" style="stop-color:#808080"/>
	</linearGradient>
	<polygon fill="url(#SVGID_8_)" points="274.987,284.93 274.542,288.186 276.022,288.186 	"/>
	
		<linearGradient id="SVGID_9_" gradientUnits="userSpaceOnUse" x1="335.1331" y1="295.7749" x2="336.7611" y2="297.7729" gradientTransform="matrix(1 0 0 -1 -8.3599 598.165)">
		<stop  offset="0" style="stop-color:#262626"/>
		<stop  offset="1" style="stop-color:#808080"/>
	</linearGradient>
	<polygon fill="url(#SVGID_9_)" points="327.884,299.208 328.254,302.39 326.775,302.39 	"/>
	
		<linearGradient id="SVGID_10_" gradientUnits="userSpaceOnUse" x1="335.7991" y1="309.98" x2="337.3806" y2="312.0246" gradientTransform="matrix(1 0 0 -1 -8.3599 598.165)">
		<stop  offset="0" style="stop-color:#262626"/>
		<stop  offset="1" style="stop-color:#808080"/>
	</linearGradient>
	<polygon fill="url(#SVGID_10_)" points="328.476,284.93 328.921,288.186 327.442,288.186 	"/>
	<g>
		<path fill="#B8B8B8" d="M283.987,265.736c0.02-0.236,0.283-0.428,0.591-0.428c0.306,0,0.544,0.192,0.525,0.428
			s-0.288,0.427-0.597,0.427S283.967,265.972,283.987,265.736z M286.22,265.736c0.018-0.236,0.278-0.428,0.586-0.428
			s0.547,0.192,0.532,0.428c-0.016,0.236-0.282,0.427-0.592,0.427C286.437,266.163,286.204,265.972,286.22,265.736z
			 M288.456,265.736c0.014-0.236,0.273-0.428,0.581-0.428s0.549,0.192,0.537,0.428c-0.012,0.236-0.276,0.427-0.586,0.427
			S288.441,265.972,288.456,265.736z M290.692,265.736c0.012-0.236,0.269-0.428,0.577-0.428c0.308,0,0.552,0.192,0.542,0.428
			c-0.01,0.236-0.272,0.427-0.582,0.427C290.921,266.163,290.681,265.972,290.692,265.736z M292.93,265.736
			c0.008-0.236,0.263-0.428,0.572-0.428c0.308,0,0.555,0.192,0.548,0.428c-0.007,0.236-0.267,0.427-0.577,0.427
			C293.164,266.163,292.922,265.972,292.93,265.736z M295.171,265.736c0.006-0.236,0.258-0.428,0.567-0.428
			c0.309,0,0.558,0.192,0.554,0.428c-0.004,0.236-0.263,0.427-0.572,0.427S295.165,265.972,295.171,265.736z M297.412,265.736
			c0.003-0.236,0.254-0.428,0.563-0.426c0.309-0.001,0.561,0.19,0.559,0.426c-0.002,0.236-0.258,0.427-0.567,0.427
			C297.656,266.163,297.409,265.972,297.412,265.736z M299.655,265.736c0.001-0.236,0.25-0.426,0.559-0.426s0.563,0.19,0.563,0.426
			s-0.251,0.427-0.562,0.427C299.905,266.163,299.655,265.972,299.655,265.736z M301.899,265.736
			c-0.002-0.236,0.246-0.426,0.555-0.426c0.309,0,0.564,0.19,0.568,0.426s-0.248,0.427-0.559,0.427S301.902,265.972,301.899,265.736
			z M304.146,265.736c-0.004-0.236,0.241-0.426,0.551-0.426s0.567,0.191,0.573,0.426c0.007,0.236-0.241,0.427-0.553,0.427
			S304.151,265.972,304.146,265.736z M306.394,265.736c-0.007-0.235,0.236-0.425,0.546-0.426c0.309,0,0.57,0.191,0.579,0.426
			c0.009,0.236-0.237,0.427-0.548,0.427C306.658,266.163,306.402,265.972,306.394,265.736z M308.644,265.736
			c-0.012-0.235,0.231-0.426,0.541-0.425c0.31,0,0.572,0.19,0.584,0.425c0.012,0.236-0.232,0.427-0.543,0.427
			C308.914,266.163,308.655,265.972,308.644,265.736z M310.893,265.736c-0.013-0.235,0.227-0.425,0.537-0.425s0.574,0.19,0.59,0.425
			c0.014,0.236-0.228,0.427-0.539,0.427S310.906,265.972,310.893,265.736z M313.146,265.736c-0.016-0.235,0.222-0.425,0.532-0.425
			c0.31,0,0.577,0.19,0.596,0.425c0.017,0.236-0.224,0.427-0.535,0.427S313.162,265.972,313.146,265.736z M315.4,265.736
			c-0.02-0.235,0.217-0.425,0.526-0.425c0.312,0,0.58,0.19,0.601,0.425c0.021,0.236-0.216,0.427-0.528,0.427
			S315.418,265.972,315.4,265.736z M317.655,265.736c-0.021-0.235,0.212-0.425,0.521-0.425c0.312,0,0.584,0.189,0.607,0.425
			s-0.212,0.427-0.523,0.427C317.948,266.163,317.676,265.972,317.655,265.736z M317.488,264.044
			c-0.024-0.231,0.206-0.418,0.515-0.418c0.308,0.001,0.579,0.187,0.604,0.418c0.025,0.232-0.205,0.42-0.515,0.42
			C317.782,264.465,317.512,264.276,317.488,264.044z M315.251,264.044c-0.02-0.231,0.211-0.418,0.52-0.418
			c0.308,0,0.577,0.187,0.599,0.418c0.022,0.232-0.21,0.42-0.519,0.42C315.541,264.465,315.273,264.276,315.251,264.044z
			 M313.018,264.043c-0.02-0.23,0.215-0.418,0.522-0.418s0.574,0.188,0.596,0.419c0.02,0.23-0.216,0.42-0.525,0.42
			C313.303,264.465,313.036,264.275,313.018,264.043z M310.784,264.042c-0.019-0.232,0.219-0.418,0.525-0.418
			c0.308,0,0.573,0.188,0.591,0.419c0.019,0.231-0.219,0.42-0.527,0.42S310.8,264.275,310.784,264.042z M308.552,264.042
			c-0.014-0.233,0.224-0.42,0.531-0.419c0.307,0,0.57,0.188,0.585,0.419c0.016,0.231-0.223,0.421-0.531,0.421
			S308.567,264.274,308.552,264.042z M306.321,264.041c-0.013-0.232,0.227-0.419,0.535-0.419c0.307,0,0.567,0.188,0.58,0.42
			c0.014,0.232-0.227,0.421-0.535,0.421S306.332,264.273,306.321,264.041z M304.091,264.04c-0.01-0.233,0.23-0.42,0.537-0.42
			c0.308,0.001,0.566,0.188,0.578,0.421c0.011,0.232-0.231,0.421-0.54,0.421C304.359,264.461,304.101,264.272,304.091,264.04z
			 M301.862,264.038c-0.008-0.232,0.235-0.421,0.542-0.421c0.307,0.001,0.564,0.189,0.573,0.422
			c0.009,0.232-0.236,0.421-0.544,0.421S301.869,264.271,301.862,264.038z M299.635,264.037c-0.006-0.233,0.238-0.42,0.544-0.42
			c0.307,0,0.563,0.188,0.57,0.421c0.007,0.233-0.24,0.423-0.548,0.422C299.894,264.459,299.64,264.27,299.635,264.037z
			 M297.409,264.036c-0.003-0.233,0.243-0.422,0.548-0.422c0.307,0,0.56,0.189,0.565,0.423c0.004,0.232-0.244,0.423-0.551,0.422
			C297.663,264.459,297.412,264.269,297.409,264.036z M295.185,264.035c-0.001-0.234,0.246-0.422,0.552-0.422
			c0.306,0.001,0.558,0.189,0.56,0.423c0.003,0.232-0.247,0.423-0.554,0.423C295.436,264.459,295.186,264.268,295.185,264.035z
			 M292.963,264.034c0.002-0.234,0.249-0.422,0.555-0.422c0.306,0,0.555,0.189,0.555,0.422s-0.25,0.424-0.557,0.424
			S292.962,264.267,292.963,264.034z M290.743,264.033c0.004-0.234,0.253-0.422,0.56-0.422c0.306,0,0.553,0.189,0.551,0.422
			c-0.001,0.234-0.254,0.424-0.562,0.424C290.985,264.457,290.74,264.267,290.743,264.033z M286.31,264.031
			c0.008-0.233,0.261-0.423,0.566-0.423c0.304,0,0.548,0.189,0.541,0.423c-0.007,0.235-0.263,0.425-0.569,0.425
			C286.542,264.457,286.302,264.266,286.31,264.031z M288.526,264.031c0.006-0.233,0.258-0.423,0.563-0.423
			c0.306,0.001,0.551,0.19,0.546,0.424c-0.004,0.234-0.258,0.424-0.565,0.424C288.762,264.457,288.52,264.267,288.526,264.031z
			 M284.095,264.03c0.011-0.233,0.266-0.423,0.57-0.423s0.546,0.19,0.538,0.424c-0.01,0.234-0.268,0.425-0.574,0.424
			C284.323,264.456,284.085,264.266,284.095,264.03z M317.312,262.383c-0.025-0.228,0.204-0.411,0.509-0.411
			c0.306,0.001,0.575,0.184,0.601,0.411c0.025,0.228-0.203,0.413-0.51,0.412C317.606,262.795,317.336,262.61,317.312,262.383z
			 M315.093,262.381c-0.022-0.228,0.207-0.41,0.513-0.41c0.307,0,0.573,0.185,0.598,0.412c0.022,0.227-0.208,0.412-0.515,0.412
			S315.115,262.608,315.093,262.381z M312.874,262.379c-0.02-0.228,0.213-0.411,0.518-0.411c0.305,0,0.57,0.184,0.592,0.411
			c0.022,0.229-0.21,0.413-0.517,0.413C313.159,262.792,312.896,262.606,312.874,262.379z M310.657,262.376
			c-0.019-0.228,0.214-0.412,0.521-0.412c0.305,0.001,0.568,0.186,0.587,0.413c0.021,0.228-0.214,0.414-0.521,0.413
			C310.938,262.791,310.674,262.604,310.657,262.376z M308.442,262.373c-0.017-0.228,0.218-0.411,0.522-0.411
			c0.307,0.001,0.568,0.186,0.586,0.414s-0.219,0.413-0.524,0.413C308.719,262.789,308.457,262.602,308.442,262.373z
			 M306.225,262.371c-0.014-0.228,0.222-0.413,0.528-0.412c0.304,0,0.564,0.185,0.579,0.414c0.015,0.228-0.222,0.414-0.527,0.414
			C306.498,262.786,306.239,262.599,306.225,262.371z M304.01,262.367c-0.013-0.229,0.226-0.412,0.531-0.412
			c0.305,0.001,0.563,0.186,0.576,0.415c0.014,0.228-0.225,0.414-0.531,0.414S304.021,262.596,304.01,262.367z M301.796,262.364
			c-0.01-0.229,0.229-0.414,0.535-0.414c0.304,0.001,0.562,0.186,0.572,0.415s-0.229,0.416-0.535,0.416
			C302.062,262.781,301.805,262.593,301.796,262.364z M299.584,262.362c-0.008-0.23,0.232-0.415,0.537-0.415
			c0.304,0.001,0.56,0.187,0.568,0.416c0.01,0.229-0.232,0.416-0.538,0.415C299.846,262.778,299.592,262.59,299.584,262.362z
			 M297.372,262.357c-0.006-0.229,0.237-0.414,0.542-0.414c0.304,0,0.557,0.186,0.564,0.416s-0.236,0.417-0.541,0.417
			C297.632,262.775,297.379,262.587,297.372,262.357z M295.165,262.355c-0.004-0.23,0.238-0.416,0.543-0.415
			c0.304,0,0.556,0.186,0.56,0.416c0.006,0.23-0.239,0.417-0.544,0.417C295.419,262.773,295.169,262.584,295.165,262.355z
			 M292.957,262.352c-0.002-0.23,0.244-0.415,0.547-0.415c0.303,0,0.554,0.187,0.557,0.417s-0.243,0.417-0.547,0.417
			C293.209,262.77,292.959,262.583,292.957,262.352z M290.753,262.35c0-0.23,0.247-0.416,0.55-0.416
			c0.303,0,0.551,0.187,0.553,0.417c0.001,0.23-0.247,0.418-0.551,0.417C291.001,262.768,290.753,262.58,290.753,262.35z
			 M288.552,262.347c0.002-0.231,0.25-0.417,0.552-0.417c0.304,0.001,0.55,0.188,0.549,0.417c-0.001,0.231-0.25,0.419-0.554,0.418
			C288.794,262.766,288.55,262.578,288.552,262.347z M286.352,262.345c0.004-0.231,0.254-0.417,0.556-0.417
			c0.303,0,0.546,0.187,0.543,0.417s-0.252,0.419-0.556,0.419C286.592,262.765,286.348,262.576,286.352,262.345z M284.156,262.344
			c0.006-0.231,0.256-0.417,0.559-0.417c0.302,0,0.543,0.188,0.539,0.418c-0.006,0.231-0.257,0.419-0.56,0.419
			C284.39,262.763,284.149,262.575,284.156,262.344z M317.135,260.752c-0.023-0.222,0.203-0.401,0.506-0.401
			c0.304,0.001,0.57,0.18,0.596,0.403c0.025,0.222-0.201,0.404-0.506,0.404S317.159,260.976,317.135,260.752z M314.932,260.75
			c-0.021-0.223,0.207-0.402,0.511-0.401c0.304,0,0.569,0.18,0.592,0.403c0.022,0.222-0.206,0.403-0.511,0.403
			S314.954,260.973,314.932,260.75z M312.73,260.746c-0.021-0.224,0.211-0.402,0.515-0.402c0.303,0.001,0.565,0.181,0.587,0.404
			c0.021,0.223-0.21,0.405-0.515,0.405C313.012,261.151,312.749,260.968,312.73,260.746z M310.527,260.741
			c-0.018-0.223,0.215-0.402,0.518-0.402c0.305,0.001,0.565,0.182,0.584,0.406c0.019,0.223-0.213,0.404-0.518,0.404
			C310.806,261.147,310.544,260.965,310.527,260.741z M308.325,260.737c-0.016-0.224,0.218-0.403,0.521-0.403
			c0.304,0.001,0.563,0.181,0.579,0.405c0.018,0.223-0.216,0.405-0.521,0.404C308.601,261.143,308.341,260.96,308.325,260.737z
			 M306.123,260.731c-0.013-0.224,0.222-0.403,0.525-0.402c0.303,0,0.561,0.181,0.576,0.405c0.014,0.224-0.221,0.405-0.524,0.405
			C306.396,261.138,306.137,260.955,306.123,260.731z M303.922,260.726c-0.011-0.224,0.227-0.404,0.529-0.404
			c0.304,0.001,0.559,0.183,0.571,0.407s-0.224,0.406-0.527,0.405C304.192,261.134,303.934,260.95,303.922,260.726z
			 M301.722,260.721c-0.01-0.225,0.229-0.406,0.532-0.405c0.304,0.001,0.558,0.183,0.568,0.407c0.011,0.225-0.227,0.407-0.53,0.406
			C301.988,261.129,301.732,260.945,301.722,260.721z M299.525,260.715c-0.008-0.225,0.233-0.406,0.536-0.405
			c0.303,0.001,0.556,0.183,0.564,0.407c0.009,0.224-0.231,0.408-0.535,0.407C299.786,261.125,299.533,260.94,299.525,260.715z
			 M297.328,260.71c-0.005-0.225,0.236-0.406,0.539-0.405s0.553,0.182,0.56,0.408c0.007,0.226-0.233,0.408-0.537,0.408
			C297.585,261.12,297.334,260.935,297.328,260.71z M295.134,260.706c-0.004-0.226,0.239-0.407,0.541-0.407
			c0.303,0.001,0.552,0.184,0.556,0.408c0.005,0.225-0.236,0.409-0.54,0.409C295.387,261.115,295.138,260.93,295.134,260.706z
			 M292.941,260.7c-0.002-0.226,0.243-0.407,0.544-0.406s0.549,0.183,0.552,0.408c0.003,0.226-0.24,0.41-0.544,0.409
			C293.191,261.111,292.943,260.925,292.941,260.7z M290.752,260.695c0-0.226,0.246-0.407,0.548-0.406
			c0.3,0,0.546,0.184,0.547,0.408c0.001,0.226-0.243,0.411-0.546,0.41C290.998,261.107,290.752,260.921,290.752,260.695z
			 M288.565,260.691c0.002-0.226,0.25-0.407,0.551-0.407c0.3,0,0.544,0.184,0.542,0.409c-0.001,0.226-0.248,0.41-0.549,0.409
			C288.807,261.103,288.562,260.917,288.565,260.691z M286.381,260.688c0.005-0.226,0.253-0.409,0.554-0.407
			c0.301,0.001,0.542,0.183,0.539,0.409c-0.004,0.226-0.251,0.411-0.553,0.411S286.376,260.915,286.381,260.688z M284.2,260.686
			c0.007-0.227,0.256-0.409,0.557-0.409c0.3,0,0.539,0.183,0.533,0.41c-0.005,0.227-0.254,0.411-0.555,0.41
			C284.433,261.097,284.193,260.911,284.2,260.686z"/>
		<path fill="#0D0D0D" d="M283.949,265.858c0.021-0.236,0.284-0.427,0.592-0.427c0.307,0,0.543,0.191,0.525,0.427
			c-0.018,0.236-0.288,0.427-0.596,0.427C284.161,266.286,283.93,266.095,283.949,265.858z M286.184,265.858
			c0.017-0.236,0.278-0.427,0.586-0.427c0.306,0,0.546,0.191,0.531,0.427c-0.016,0.236-0.283,0.427-0.592,0.427
			C286.401,266.286,286.166,266.094,286.184,265.858z M288.418,265.858c0.015-0.236,0.273-0.427,0.582-0.427
			c0.307,0,0.549,0.191,0.537,0.427s-0.277,0.427-0.587,0.427C288.641,266.286,288.405,266.094,288.418,265.858z M290.656,265.858
			c0.012-0.236,0.268-0.427,0.577-0.427c0.308,0,0.552,0.191,0.542,0.427c-0.01,0.236-0.272,0.427-0.582,0.427
			S290.645,266.094,290.656,265.858z M292.893,265.858c0.009-0.236,0.265-0.427,0.572-0.427c0.309,0,0.556,0.191,0.548,0.427
			c-0.007,0.236-0.266,0.427-0.576,0.427C293.127,266.286,292.884,266.094,292.893,265.858z M295.133,265.858
			c0.006-0.236,0.26-0.427,0.568-0.427c0.308,0,0.557,0.191,0.552,0.427c-0.004,0.236-0.261,0.427-0.571,0.427
			C295.372,266.286,295.127,266.094,295.133,265.858z M297.375,265.858c0.003-0.236,0.254-0.426,0.563-0.426
			c0.309,0,0.56,0.19,0.559,0.426c-0.002,0.236-0.257,0.427-0.567,0.427C297.619,266.286,297.371,266.094,297.375,265.858z
			 M299.618,265.858c0-0.236,0.25-0.426,0.56-0.426c0.309,0,0.562,0.19,0.563,0.426c0.001,0.236-0.252,0.427-0.563,0.427
			C299.868,266.286,299.617,266.094,299.618,265.858z M301.863,265.858c-0.002-0.234,0.246-0.426,0.555-0.426
			c0.31,0,0.564,0.192,0.568,0.426c0.005,0.236-0.247,0.427-0.558,0.427S301.865,266.094,301.863,265.858z M304.109,265.858
			c-0.004-0.234,0.242-0.425,0.55-0.425c0.311,0,0.568,0.191,0.575,0.426c0.006,0.235-0.243,0.426-0.554,0.426
			S304.115,266.094,304.109,265.858z M306.358,265.859c-0.009-0.235,0.234-0.426,0.546-0.426c0.309,0,0.568,0.191,0.577,0.426
			c0.011,0.235-0.236,0.426-0.548,0.426C306.622,266.286,306.365,266.094,306.358,265.859z M308.608,265.859
			c-0.012-0.235,0.231-0.426,0.541-0.426c0.309,0,0.571,0.191,0.584,0.425c0.012,0.236-0.233,0.427-0.545,0.427
			C308.877,266.286,308.616,266.094,308.608,265.859z M310.857,265.859c-0.013-0.235,0.227-0.426,0.536-0.426
			s0.574,0.191,0.59,0.426c0.015,0.235-0.227,0.426-0.538,0.426S310.87,266.094,310.857,265.859z M313.11,265.859
			c-0.017-0.235,0.221-0.426,0.531-0.426c0.31,0,0.577,0.191,0.595,0.426c0.018,0.235-0.222,0.426-0.534,0.426
			C313.39,266.286,313.125,266.094,313.11,265.859z M315.362,265.858c-0.019-0.234,0.218-0.425,0.528-0.425
			c0.31,0,0.58,0.191,0.601,0.425c0.021,0.236-0.217,0.427-0.528,0.427C315.65,266.286,315.382,266.094,315.362,265.858z
			 M317.618,265.859c-0.022-0.235,0.211-0.426,0.521-0.426s0.583,0.191,0.606,0.425c0.024,0.236-0.212,0.427-0.523,0.427
			C317.91,266.286,317.64,266.094,317.618,265.859z M317.45,264.168c-0.023-0.232,0.207-0.418,0.515-0.418
			c0.309,0,0.579,0.187,0.604,0.418c0.024,0.23-0.205,0.42-0.516,0.42C317.744,264.588,317.474,264.398,317.45,264.168z
			 M315.215,264.167c-0.021-0.23,0.211-0.418,0.52-0.418c0.308,0,0.576,0.188,0.599,0.42c0.022,0.23-0.21,0.42-0.52,0.42
			S315.236,264.398,315.215,264.167z M312.981,264.167c-0.019-0.232,0.215-0.419,0.522-0.419c0.307,0,0.575,0.187,0.596,0.419
			c0.02,0.232-0.216,0.42-0.524,0.42C313.267,264.587,312.999,264.397,312.981,264.167z M310.746,264.166
			c-0.017-0.232,0.219-0.419,0.527-0.419c0.308,0,0.571,0.187,0.59,0.419s-0.219,0.421-0.527,0.421
			C311.027,264.587,310.763,264.397,310.746,264.166z M308.515,264.165c-0.014-0.231,0.223-0.419,0.531-0.419
			c0.308,0,0.57,0.188,0.585,0.419c0.016,0.232-0.222,0.421-0.531,0.421C308.791,264.586,308.53,264.396,308.515,264.165z
			 M306.284,264.164c-0.013-0.232,0.227-0.42,0.532-0.42c0.309,0,0.57,0.188,0.583,0.42c0.014,0.233-0.227,0.421-0.536,0.421
			C306.555,264.585,306.296,264.396,306.284,264.164z M304.053,264.163c-0.009-0.232,0.231-0.421,0.539-0.42
			c0.307,0,0.566,0.188,0.577,0.42c0.011,0.232-0.231,0.422-0.539,0.422C304.322,264.584,304.064,264.395,304.053,264.163z
			 M301.825,264.161c-0.008-0.233,0.234-0.42,0.541-0.42c0.309,0,0.564,0.188,0.573,0.421c0.01,0.233-0.235,0.422-0.542,0.422
			C302.088,264.583,301.832,264.394,301.825,264.161z M299.598,264.16c-0.005-0.233,0.239-0.421,0.545-0.421
			s0.562,0.188,0.568,0.421c0.006,0.234-0.239,0.423-0.547,0.423C299.857,264.583,299.604,264.393,299.598,264.16z M297.372,264.159
			c-0.003-0.234,0.242-0.422,0.549-0.422c0.306,0.001,0.559,0.189,0.564,0.422c0.005,0.234-0.243,0.423-0.55,0.423
			C297.627,264.582,297.375,264.392,297.372,264.159z M295.149,264.157c0-0.233,0.246-0.421,0.552-0.421
			c0.307,0,0.558,0.189,0.56,0.422c0.002,0.234-0.247,0.423-0.554,0.423C295.398,264.581,295.15,264.391,295.149,264.157z
			 M292.927,264.156c0.001-0.232,0.249-0.422,0.555-0.422c0.306,0.001,0.556,0.19,0.556,0.423c0,0.234-0.251,0.423-0.558,0.423
			C293.172,264.58,292.926,264.39,292.927,264.156z M290.707,264.155c0.004-0.234,0.253-0.422,0.559-0.422
			c0.305,0,0.554,0.19,0.552,0.423c-0.003,0.234-0.255,0.424-0.563,0.424C290.948,264.58,290.704,264.39,290.707,264.155z
			 M286.273,264.154c0.009-0.234,0.261-0.423,0.566-0.423c0.306,0,0.548,0.189,0.542,0.424c-0.007,0.234-0.263,0.424-0.569,0.424
			C286.506,264.579,286.265,264.389,286.273,264.154z M288.489,264.155c0.007-0.234,0.257-0.423,0.563-0.423
			c0.305,0,0.55,0.189,0.547,0.423c-0.005,0.234-0.26,0.424-0.567,0.424C288.725,264.579,288.482,264.389,288.489,264.155z
			 M284.059,264.154c0.011-0.235,0.265-0.424,0.57-0.424c0.305,0.001,0.545,0.19,0.536,0.424c-0.009,0.235-0.267,0.425-0.573,0.425
			C284.287,264.579,284.049,264.389,284.059,264.154z M317.274,262.505c-0.023-0.227,0.206-0.41,0.51-0.41
			c0.307,0.001,0.574,0.185,0.601,0.411c0.026,0.227-0.202,0.413-0.51,0.413C317.568,262.919,317.299,262.732,317.274,262.505z
			 M315.055,262.504c-0.021-0.227,0.209-0.411,0.514-0.41c0.306,0,0.573,0.183,0.596,0.41c0.024,0.228-0.206,0.412-0.512,0.414
			C315.346,262.917,315.077,262.731,315.055,262.504z M312.838,262.501c-0.02-0.227,0.212-0.41,0.518-0.41
			c0.305,0,0.57,0.185,0.592,0.411c0.021,0.228-0.211,0.414-0.518,0.414C313.123,262.915,312.858,262.729,312.838,262.501z
			 M310.62,262.5c-0.019-0.228,0.215-0.412,0.521-0.411c0.305,0,0.567,0.185,0.587,0.412c0.02,0.228-0.215,0.414-0.521,0.414
			C310.902,262.913,310.638,262.728,310.62,262.5z M308.404,262.497c-0.016-0.229,0.22-0.413,0.524-0.412
			c0.305,0,0.567,0.185,0.585,0.413c0.018,0.228-0.219,0.415-0.525,0.414C308.682,262.911,308.419,262.724,308.404,262.497z
			 M306.187,262.494c-0.014-0.229,0.223-0.413,0.528-0.412c0.306,0,0.566,0.185,0.581,0.413c0.015,0.229-0.222,0.414-0.527,0.414
			C306.462,262.909,306.202,262.722,306.187,262.494z M303.973,262.491c-0.012-0.229,0.226-0.414,0.53-0.414
			c0.305,0.001,0.564,0.186,0.578,0.415c0.012,0.229-0.226,0.415-0.532,0.415C304.243,262.906,303.985,262.719,303.973,262.491z
			 M301.759,262.487c-0.01-0.229,0.229-0.413,0.533-0.412c0.305,0,0.562,0.185,0.573,0.414s-0.229,0.416-0.534,0.414
			C302.025,262.903,301.769,262.715,301.759,262.487z M299.547,262.484c-0.008-0.23,0.232-0.415,0.537-0.415
			c0.305,0.001,0.561,0.187,0.57,0.417c0.009,0.229-0.232,0.415-0.538,0.415C299.81,262.9,299.554,262.713,299.547,262.484z
			 M297.336,262.481c-0.006-0.23,0.236-0.416,0.541-0.414c0.305,0,0.557,0.186,0.565,0.415c0.007,0.23-0.236,0.417-0.542,0.417
			C297.595,262.898,297.342,262.709,297.336,262.481z M295.127,262.477c-0.004-0.229,0.24-0.414,0.543-0.414
			c0.304,0.001,0.557,0.187,0.562,0.417c0.005,0.229-0.239,0.417-0.545,0.416C295.383,262.895,295.131,262.708,295.127,262.477z
			 M292.921,262.475c-0.002-0.231,0.243-0.416,0.546-0.416s0.554,0.187,0.557,0.417s-0.243,0.417-0.547,0.417
			C293.171,262.893,292.922,262.705,292.921,262.475z M290.717,262.472c0-0.231,0.247-0.417,0.549-0.416
			c0.304,0,0.552,0.187,0.553,0.417c0.002,0.229-0.246,0.417-0.551,0.417C290.964,262.892,290.717,262.703,290.717,262.472z
			 M288.515,262.47c0.002-0.23,0.25-0.417,0.552-0.416c0.303,0,0.549,0.186,0.549,0.417c-0.001,0.23-0.25,0.418-0.555,0.418
			C288.758,262.888,288.512,262.701,288.515,262.47z M286.315,262.468c0.005-0.231,0.253-0.417,0.555-0.417
			c0.303,0.001,0.547,0.188,0.545,0.418c-0.003,0.23-0.253,0.418-0.558,0.418C286.554,262.887,286.311,262.699,286.315,262.468z
			 M284.118,262.466c0.007-0.231,0.257-0.417,0.559-0.417c0.302,0,0.545,0.187,0.539,0.417c-0.005,0.231-0.257,0.419-0.561,0.419
			S284.111,262.698,284.118,262.466z M317.098,260.875c-0.024-0.222,0.204-0.402,0.507-0.402c0.303,0.001,0.569,0.181,0.594,0.404
			c0.026,0.223-0.2,0.404-0.505,0.403C317.389,261.28,317.122,261.098,317.098,260.875z M314.896,260.872
			c-0.021-0.223,0.207-0.402,0.51-0.402c0.303,0,0.568,0.181,0.591,0.404c0.023,0.223-0.205,0.404-0.51,0.403
			C315.182,261.277,314.917,261.095,314.896,260.872z M312.693,260.868c-0.02-0.223,0.212-0.403,0.515-0.403
			c0.303,0.001,0.566,0.182,0.588,0.405c0.021,0.223-0.21,0.404-0.515,0.404C312.976,261.273,312.713,261.091,312.693,260.868z
			 M310.49,260.864c-0.018-0.224,0.215-0.403,0.518-0.402s0.563,0.181,0.583,0.404c0.019,0.223-0.213,0.406-0.518,0.405
			S310.508,261.087,310.49,260.864z M308.288,260.859c-0.016-0.224,0.219-0.403,0.521-0.402c0.305,0,0.563,0.182,0.58,0.405
			c0.017,0.224-0.216,0.406-0.521,0.405C308.564,261.266,308.305,261.083,308.288,260.859z M306.086,260.854
			c-0.014-0.224,0.222-0.404,0.525-0.404c0.304,0.001,0.562,0.182,0.576,0.406c0.014,0.224-0.221,0.406-0.525,0.405
			C306.359,261.26,306.1,261.077,306.086,260.854z M303.886,260.848c-0.012-0.224,0.225-0.403,0.528-0.403
			c0.303,0.001,0.56,0.183,0.572,0.406c0.012,0.224-0.224,0.407-0.527,0.407C304.155,261.257,303.898,261.073,303.886,260.848z
			 M301.686,260.843c-0.01-0.225,0.229-0.405,0.531-0.404c0.304,0.001,0.558,0.182,0.568,0.407c0.012,0.224-0.227,0.407-0.531,0.406
			C301.951,261.251,301.696,261.067,301.686,260.843z M299.489,260.837c-0.008-0.225,0.232-0.404,0.534-0.403
			c0.303,0.001,0.556,0.183,0.564,0.407s-0.229,0.408-0.534,0.407C299.749,261.247,299.496,261.063,299.489,260.837z
			 M297.291,260.833c-0.006-0.225,0.236-0.405,0.539-0.405c0.301,0.001,0.553,0.183,0.559,0.408
			c0.007,0.225-0.234,0.407-0.537,0.407C297.549,261.242,297.297,261.057,297.291,260.833z M295.097,260.827
			c-0.003-0.224,0.239-0.406,0.542-0.405c0.301,0.001,0.551,0.182,0.556,0.407c0.005,0.226-0.238,0.409-0.541,0.408
			C295.35,261.238,295.1,261.052,295.097,260.827z M292.905,260.823c-0.002-0.225,0.243-0.406,0.545-0.406
			c0.302,0.001,0.548,0.183,0.551,0.408c0.003,0.226-0.24,0.409-0.543,0.409C293.154,261.233,292.907,261.049,292.905,260.823z
			 M290.716,260.819c0-0.226,0.246-0.408,0.548-0.408c0.3,0.001,0.546,0.184,0.547,0.409c0.001,0.225-0.245,0.41-0.546,0.409
			C290.961,261.229,290.715,261.044,290.716,260.819z M288.529,260.813c0.001-0.226,0.249-0.407,0.549-0.406
			c0.3,0,0.544,0.184,0.543,0.409c-0.001,0.226-0.248,0.41-0.549,0.41C288.769,261.225,288.526,261.041,288.529,260.813z
			 M286.345,260.811c0.003-0.227,0.252-0.408,0.553-0.407c0.302,0,0.542,0.183,0.538,0.41c-0.003,0.226-0.25,0.41-0.552,0.409
			C286.581,261.222,286.34,261.037,286.345,260.811z M284.164,260.808c0.006-0.227,0.256-0.408,0.556-0.408s0.539,0.184,0.534,0.41
			c-0.006,0.227-0.254,0.411-0.555,0.411C284.397,261.219,284.156,261.035,284.164,260.808z"/>
	</g>
	<rect x="274.395" y="270.282" fill="#212121" width="54.601" height="0.221"/>
	<rect x="274.395" y="269.985" fill="#C9C9C9" width="54.674" height="0.297"/>
	<rect x="273.877" y="273.906" fill="#C9C9C9" width="55.709" height="0.297"/>
	<rect x="274.543" y="288.037" fill="#C9C9C9" width="54.378" height="0.297"/>
	<rect x="275.209" y="302.167" fill="#C9C9C9" width="53.046" height="0.296"/>
	<rect x="276.393" y="283.672" fill="#94ABBF" width="36.99" height="0.296"/>
	<rect x="276.91" y="297.506" fill="#94ABBF" width="36.991" height="0.296"/>
	<rect x="277.502" y="311.86" fill="#94ABBF" width="36.992" height="0.297"/>
	<rect x="276.54" y="289.886" fill="#94ABBF" width="36.991" height="0.297"/>
</g>
<g id="MouseOver" display="none">
</g>
</svg>
