<?xml version="1.0" encoding="utf-8"?>
<!-- Generator: Adobe Illustrator 16.0.0, SVG Export Plug-In . SVG Version: 6.00 Build 0)  -->
<!DOCTYPE svg PUBLIC "-//W3C//DTD SVG 1.1//EN" "http://www.w3.org/Graphics/SVG/1.1/DTD/svg11.dtd">
<svg version="1.1" id="图层_1" xmlns="http://www.w3.org/2000/svg" xmlns:xlink="http://www.w3.org/1999/xlink" x="0px" y="0px"
	 width="161.712px" height="337.547px" viewBox="331.736 94.025 161.712 337.547"
	 enable-background="new 331.736 94.025 161.712 337.547" xml:space="preserve">
<g>
	<path fill="#FFFFFF" stroke="#FFFFFF" stroke-miterlimit="10" d="M412.592,403.197c-44.31,0-80.356-36.051-80.356-80.362
		c0-44.308,36.048-80.353,80.356-80.353c44.308,0,80.355,36.045,80.355,80.353C492.949,367.146,456.901,403.197,412.592,403.197z
		 M412.592,249.482c-40.449,0-73.356,32.906-73.356,73.353c0,40.452,32.907,73.362,73.356,73.362s73.355-32.91,73.355-73.362
		C485.949,282.389,453.042,249.482,412.592,249.482z"/>
</g>
<g>
	<path fill="#FFFFFF" stroke="#FFFFFF" stroke-miterlimit="10" d="M412.592,283.126c-44.31,0-80.356-36.048-80.356-80.356
		c0-44.308,36.048-80.354,80.356-80.354c44.308,0,80.354,36.047,80.354,80.354C492.948,247.078,456.901,283.126,412.592,283.126z
		 M412.592,129.414c-40.449,0-73.356,32.907-73.356,73.355c0,40.448,32.907,73.355,73.356,73.355
		c40.447,0,73.354-32.907,73.354-73.355C485.948,162.321,453.041,129.414,412.592,129.414z"/>
</g>
<g enable-background="new    ">
	<g>
		<path fill="#FFFFFF" stroke="#FFFFFF" stroke-miterlimit="10" d="M438.482,166.274l-20.4,32.871v23.229h-6.924v-22.483
			l-20.512-33.616h7.705l16.306,26.952l16.417-26.952L438.482,166.274L438.482,166.274z"/>
	</g>
</g>
<g>
	<path fill="#FFFFFF" stroke="#FFFFFF" stroke-miterlimit="10" d="M454.2,360.723H375.84l39.182-67.859L454.2,360.723z
		 M387.964,353.723h54.109l-27.054-46.859L387.964,353.723z"/>
</g>
<g>
	<rect x="409.092" y="94.525" fill="#FFFFFF" stroke="#FFFFFF" stroke-miterlimit="10" width="7" height="31.383"/>
</g>
<g>
	<rect x="409.092" y="399.697" fill="#FFFFFF" stroke="#FFFFFF" stroke-miterlimit="10" width="7" height="31.375"/>
</g>
</svg>
