<?xml version="1.0" encoding="utf-8"?>
<!-- Generator: Adobe Illustrator 16.0.0, SVG Export Plug-In . SVG Version: 6.00 Build 0)  -->
<!DOCTYPE svg PUBLIC "-//W3C//DTD SVG 1.1//EN" "http://www.w3.org/Graphics/SVG/1.1/DTD/svg11.dtd">
<svg version="1.1" id="图层_1" xmlns="http://www.w3.org/2000/svg" xmlns:xlink="http://www.w3.org/1999/xlink" x="0px" y="0px"
	 width="33.816px" height="35.315px" viewBox="0 0 33.816 35.315" enable-background="new 0 0 33.816 35.315" xml:space="preserve">
<g id="path3264">
	<path fill="#FFFFFF" d="M16.908,34.722C7.585,34.722,0,27.137,0,17.813C0,8.491,7.585,0.906,16.908,0.906
		s16.908,7.585,16.908,16.907C33.816,27.137,26.231,34.722,16.908,34.722z M16.908,2.906C8.688,2.906,2,9.593,2,17.813
		c0,8.221,6.688,14.909,14.908,14.909s14.908-6.688,14.908-14.909C31.816,9.593,25.129,2.906,16.908,2.906z"/>
</g>
<g id="rect3266">
	<rect x="13.344" y="12.083" fill="#FFFFFF" width="3.619" height="11.46"/>
	<path fill="#FFFFFF" d="M17.963,24.543h-5.619v-13.46h5.619V24.543z M14.344,22.543h1.619v-9.46h-1.619V22.543z"/>
</g>
<g id="path3268">
	<polygon fill="#FFFFFF" points="28.765,35.315 26.765,35.315 26.765,30.06 14.607,22.104 14.607,13.55 26.765,5.64 26.765,0 
		28.765,0 28.765,6.724 16.607,14.634 16.607,21.022 28.765,28.978 	"/>
</g>
<g id="rect3273">
	<path sodipodi:nodetypes="cccc" fill="#FFFFFF" d="M23.163,26.5l-3.187-0.104l1.853-2.771L23.163,26.5z"/>
	<polygon fill="#FFFFFF" points="24.754,27.552 18.145,27.338 21.987,21.589 	"/>
</g>
<g id="g3282" transform="translate(0,-0.7642406)">
	<g id="path3276">
		<path sodipodi:nodetypes="cccccccc" fill="#FFFFFF" d="M7.202,18.098l0.947-1.515l-3.363-2.217l0.598-0.885l3.361,2.214
			l0.929-1.38l1.97,4.094L7.202,18.098z"/>
	</g>
	<g id="path3280">
		<path sodipodi:nodetypes="cccccccc" fill="#FFFFFF" d="M7.202,23.362l0.947-1.515L4.786,19.63l0.598-0.885l3.361,2.215
			l0.929-1.381l1.97,4.096L7.202,23.362z"/>
	</g>
</g>
</svg>
