<?xml version="1.0" encoding="utf-8"?>
<!-- Generator: Adobe Illustrator 16.0.0, SVG Export Plug-In . SVG Version: 6.00 Build 0)  -->
<!DOCTYPE svg PUBLIC "-//W3C//DTD SVG 1.1//EN" "http://www.w3.org/Graphics/SVG/1.1/DTD/svg11.dtd">
<svg version="1.1" id="图层_1" xmlns="http://www.w3.org/2000/svg" xmlns:xlink="http://www.w3.org/1999/xlink" x="0px" y="0px"
	 width="147.927px" height="232.736px" viewBox="0 0 147.927 232.736" enable-background="new 0 0 147.927 232.736"
	 xml:space="preserve">
<g>
	<linearGradient id="SVGID_1_" gradientUnits="userSpaceOnUse" x1="68.2031" y1="26.2236" x2="123.3906" y2="26.2236">
		<stop  offset="0.0038" style="stop-color:#231815"/>
		<stop  offset="0.19" style="stop-color:#9E9E9F"/>
		<stop  offset="0.3499" style="stop-color:#E8E9E9"/>
		<stop  offset="0.68" style="stop-color:#9E9E9F"/>
		<stop  offset="1" style="stop-color:#484545"/>
	</linearGradient>
	<path fill="none" stroke="url(#SVGID_1_)" stroke-width="2" stroke-miterlimit="10" d="M122.391,33.129
		c0,3.597-2.479,6.512-5.532,6.512h-42.12c-3.058,0-5.535-2.915-5.535-6.512V19.316c0-3.596,2.477-6.511,5.535-6.511h42.12
		c3.053,0,5.532,2.915,5.532,6.511V33.129z"/>
	<linearGradient id="SVGID_2_" gradientUnits="userSpaceOnUse" x1="49.4004" y1="219.0732" x2="140.9707" y2="219.0732">
		<stop  offset="0.0038" style="stop-color:#737373"/>
		<stop  offset="0.0951" style="stop-color:#797979"/>
		<stop  offset="0.2229" style="stop-color:#8B8B8B"/>
		<stop  offset="0.3722" style="stop-color:#A9A9A9"/>
		<stop  offset="0.522" style="stop-color:#CFCFCF"/>
		<stop  offset="0.5791" style="stop-color:#BCBCBC"/>
		<stop  offset="0.6934" style="stop-color:#9C9C9C"/>
		<stop  offset="0.8041" style="stop-color:#858585"/>
		<stop  offset="0.9085" style="stop-color:#777777"/>
		<stop  offset="1" style="stop-color:#737373"/>
	</linearGradient>
	<linearGradient id="SVGID_3_" gradientUnits="userSpaceOnUse" x1="95.1855" y1="232.7363" x2="95.1855" y2="205.4092">
		<stop  offset="0.0038" style="stop-color:#383838"/>
		<stop  offset="0.1913" style="stop-color:#3F3F3F"/>
		<stop  offset="0.4531" style="stop-color:#515151"/>
		<stop  offset="0.522" style="stop-color:#575757"/>
		<stop  offset="0.6691" style="stop-color:#454545"/>
		<stop  offset="0.8452" style="stop-color:#383838"/>
		<stop  offset="1" style="stop-color:#333333"/>
	</linearGradient>
	<path fill="url(#SVGID_2_)" stroke="url(#SVGID_3_)" stroke-miterlimit="10" d="M140.971,226.705c0,3.054-2.475,5.531-5.531,5.531
		H54.934c-3.057,0-5.534-2.478-5.534-5.531v-15.267c0-3.055,2.477-5.529,5.534-5.529h80.505c3.057,0,5.531,2.475,5.531,5.529
		V226.705z"/>
	<linearGradient id="SVGID_4_" gradientUnits="userSpaceOnUse" x1="55.5552" y1="223.6152" x2="55.5552" y2="217.6797">
		<stop  offset="0.0038" style="stop-color:#383838"/>
		<stop  offset="0.1913" style="stop-color:#3F3F3F"/>
		<stop  offset="0.4531" style="stop-color:#515151"/>
		<stop  offset="0.522" style="stop-color:#575757"/>
		<stop  offset="0.6691" style="stop-color:#454545"/>
		<stop  offset="0.8452" style="stop-color:#383838"/>
		<stop  offset="1" style="stop-color:#333333"/>
	</linearGradient>
	<path fill="none" stroke="url(#SVGID_4_)" stroke-miterlimit="10" d="M56.635,223.115c-0.918,0-1.661-1.105-1.661-2.467
		c0-1.363,0.742-2.469,1.661-2.469"/>
	<linearGradient id="SVGID_5_" gradientUnits="userSpaceOnUse" x1="61.2388" y1="223.6152" x2="61.2388" y2="217.6797">
		<stop  offset="0.0038" style="stop-color:#383838"/>
		<stop  offset="0.1913" style="stop-color:#3F3F3F"/>
		<stop  offset="0.4531" style="stop-color:#515151"/>
		<stop  offset="0.522" style="stop-color:#575757"/>
		<stop  offset="0.6691" style="stop-color:#454545"/>
		<stop  offset="0.8452" style="stop-color:#383838"/>
		<stop  offset="1" style="stop-color:#333333"/>
	</linearGradient>
	<path fill="none" stroke="url(#SVGID_5_)" stroke-miterlimit="10" d="M62.319,223.115c-0.917,0-1.661-1.105-1.661-2.467
		c0-1.363,0.744-2.469,1.661-2.469"/>
	<linearGradient id="SVGID_6_" gradientUnits="userSpaceOnUse" x1="66.9233" y1="223.6152" x2="66.9233" y2="217.6797">
		<stop  offset="0.0038" style="stop-color:#383838"/>
		<stop  offset="0.1913" style="stop-color:#3F3F3F"/>
		<stop  offset="0.4531" style="stop-color:#515151"/>
		<stop  offset="0.522" style="stop-color:#575757"/>
		<stop  offset="0.6691" style="stop-color:#454545"/>
		<stop  offset="0.8452" style="stop-color:#383838"/>
		<stop  offset="1" style="stop-color:#333333"/>
	</linearGradient>
	<path fill="none" stroke="url(#SVGID_6_)" stroke-miterlimit="10" d="M68.004,223.115c-0.916,0-1.661-1.105-1.661-2.467
		c0-1.363,0.745-2.469,1.661-2.469"/>
	<linearGradient id="SVGID_7_" gradientUnits="userSpaceOnUse" x1="72.6069" y1="223.6152" x2="72.6069" y2="217.6797">
		<stop  offset="0.0038" style="stop-color:#383838"/>
		<stop  offset="0.1913" style="stop-color:#3F3F3F"/>
		<stop  offset="0.4531" style="stop-color:#515151"/>
		<stop  offset="0.522" style="stop-color:#575757"/>
		<stop  offset="0.6691" style="stop-color:#454545"/>
		<stop  offset="0.8452" style="stop-color:#383838"/>
		<stop  offset="1" style="stop-color:#333333"/>
	</linearGradient>
	<path fill="none" stroke="url(#SVGID_7_)" stroke-miterlimit="10" d="M73.687,223.115c-0.919,0-1.66-1.105-1.66-2.467
		c0-1.363,0.741-2.469,1.66-2.469"/>
	<linearGradient id="SVGID_8_" gradientUnits="userSpaceOnUse" x1="78.2896" y1="223.6152" x2="78.2896" y2="217.6797">
		<stop  offset="0.0038" style="stop-color:#383838"/>
		<stop  offset="0.1913" style="stop-color:#3F3F3F"/>
		<stop  offset="0.4531" style="stop-color:#515151"/>
		<stop  offset="0.522" style="stop-color:#575757"/>
		<stop  offset="0.6691" style="stop-color:#454545"/>
		<stop  offset="0.8452" style="stop-color:#383838"/>
		<stop  offset="1" style="stop-color:#333333"/>
	</linearGradient>
	<path fill="none" stroke="url(#SVGID_8_)" stroke-miterlimit="10" d="M79.371,223.115c-0.919,0-1.662-1.105-1.662-2.467
		c0-1.363,0.743-2.469,1.662-2.469"/>
	<linearGradient id="SVGID_9_" gradientUnits="userSpaceOnUse" x1="83.9736" y1="223.6152" x2="83.9736" y2="217.6797">
		<stop  offset="0.0038" style="stop-color:#383838"/>
		<stop  offset="0.1913" style="stop-color:#3F3F3F"/>
		<stop  offset="0.4531" style="stop-color:#515151"/>
		<stop  offset="0.522" style="stop-color:#575757"/>
		<stop  offset="0.6691" style="stop-color:#454545"/>
		<stop  offset="0.8452" style="stop-color:#383838"/>
		<stop  offset="1" style="stop-color:#333333"/>
	</linearGradient>
	<path fill="none" stroke="url(#SVGID_9_)" stroke-miterlimit="10" d="M85.054,223.115c-0.916,0-1.661-1.105-1.661-2.467
		c0-1.363,0.745-2.469,1.661-2.469"/>
	<linearGradient id="SVGID_10_" gradientUnits="userSpaceOnUse" x1="89.6572" y1="223.6152" x2="89.6572" y2="217.6797">
		<stop  offset="0.0038" style="stop-color:#383838"/>
		<stop  offset="0.1913" style="stop-color:#3F3F3F"/>
		<stop  offset="0.4531" style="stop-color:#515151"/>
		<stop  offset="0.522" style="stop-color:#575757"/>
		<stop  offset="0.6691" style="stop-color:#454545"/>
		<stop  offset="0.8452" style="stop-color:#383838"/>
		<stop  offset="1" style="stop-color:#333333"/>
	</linearGradient>
	<path fill="none" stroke="url(#SVGID_10_)" stroke-miterlimit="10" d="M90.738,223.115c-0.916,0-1.662-1.105-1.662-2.467
		c0-1.363,0.746-2.469,1.662-2.469"/>
	<linearGradient id="SVGID_11_" gradientUnits="userSpaceOnUse" x1="95.3408" y1="223.6152" x2="95.3408" y2="217.6797">
		<stop  offset="0.0038" style="stop-color:#383838"/>
		<stop  offset="0.1913" style="stop-color:#3F3F3F"/>
		<stop  offset="0.4531" style="stop-color:#515151"/>
		<stop  offset="0.522" style="stop-color:#575757"/>
		<stop  offset="0.6691" style="stop-color:#454545"/>
		<stop  offset="0.8452" style="stop-color:#383838"/>
		<stop  offset="1" style="stop-color:#333333"/>
	</linearGradient>
	<path fill="none" stroke="url(#SVGID_11_)" stroke-miterlimit="10" d="M96.422,223.115c-0.918,0-1.661-1.105-1.661-2.467
		c0-1.363,0.743-2.469,1.661-2.469"/>
	<linearGradient id="SVGID_12_" gradientUnits="userSpaceOnUse" x1="101.0244" y1="223.6152" x2="101.0244" y2="217.6797">
		<stop  offset="0.0038" style="stop-color:#383838"/>
		<stop  offset="0.1913" style="stop-color:#3F3F3F"/>
		<stop  offset="0.4531" style="stop-color:#515151"/>
		<stop  offset="0.522" style="stop-color:#575757"/>
		<stop  offset="0.6691" style="stop-color:#454545"/>
		<stop  offset="0.8452" style="stop-color:#383838"/>
		<stop  offset="1" style="stop-color:#333333"/>
	</linearGradient>
	<path fill="none" stroke="url(#SVGID_12_)" stroke-miterlimit="10" d="M102.104,223.115c-0.916,0-1.661-1.105-1.661-2.467
		c0-1.363,0.745-2.469,1.661-2.469"/>
	<linearGradient id="SVGID_13_" gradientUnits="userSpaceOnUse" x1="106.708" y1="223.6152" x2="106.708" y2="217.6797">
		<stop  offset="0.0038" style="stop-color:#383838"/>
		<stop  offset="0.1913" style="stop-color:#3F3F3F"/>
		<stop  offset="0.4531" style="stop-color:#515151"/>
		<stop  offset="0.522" style="stop-color:#575757"/>
		<stop  offset="0.6691" style="stop-color:#454545"/>
		<stop  offset="0.8452" style="stop-color:#383838"/>
		<stop  offset="1" style="stop-color:#333333"/>
	</linearGradient>
	<path fill="none" stroke="url(#SVGID_13_)" stroke-miterlimit="10" d="M107.788,223.115c-0.916,0-1.66-1.105-1.66-2.467
		c0-1.363,0.744-2.469,1.66-2.469"/>
	<linearGradient id="SVGID_14_" gradientUnits="userSpaceOnUse" x1="112.3926" y1="223.6152" x2="112.3926" y2="217.6797">
		<stop  offset="0.0038" style="stop-color:#383838"/>
		<stop  offset="0.1913" style="stop-color:#3F3F3F"/>
		<stop  offset="0.4531" style="stop-color:#515151"/>
		<stop  offset="0.522" style="stop-color:#575757"/>
		<stop  offset="0.6691" style="stop-color:#454545"/>
		<stop  offset="0.8452" style="stop-color:#383838"/>
		<stop  offset="1" style="stop-color:#333333"/>
	</linearGradient>
	<path fill="none" stroke="url(#SVGID_14_)" stroke-miterlimit="10" d="M113.473,223.115c-0.92,0-1.66-1.105-1.66-2.467
		c0-1.363,0.74-2.469,1.66-2.469"/>
	<linearGradient id="SVGID_15_" gradientUnits="userSpaceOnUse" x1="118.0752" y1="223.6152" x2="118.0752" y2="217.6797">
		<stop  offset="0.0038" style="stop-color:#383838"/>
		<stop  offset="0.1913" style="stop-color:#3F3F3F"/>
		<stop  offset="0.4531" style="stop-color:#515151"/>
		<stop  offset="0.522" style="stop-color:#575757"/>
		<stop  offset="0.6691" style="stop-color:#454545"/>
		<stop  offset="0.8452" style="stop-color:#383838"/>
		<stop  offset="1" style="stop-color:#333333"/>
	</linearGradient>
	<path fill="none" stroke="url(#SVGID_15_)" stroke-miterlimit="10" d="M119.155,223.115c-0.917,0-1.66-1.105-1.66-2.467
		c0-1.363,0.743-2.469,1.66-2.469"/>
	<linearGradient id="SVGID_16_" gradientUnits="userSpaceOnUse" x1="123.7598" y1="223.6152" x2="123.7598" y2="217.6797">
		<stop  offset="0.0038" style="stop-color:#383838"/>
		<stop  offset="0.1913" style="stop-color:#3F3F3F"/>
		<stop  offset="0.4531" style="stop-color:#515151"/>
		<stop  offset="0.522" style="stop-color:#575757"/>
		<stop  offset="0.6691" style="stop-color:#454545"/>
		<stop  offset="0.8452" style="stop-color:#383838"/>
		<stop  offset="1" style="stop-color:#333333"/>
	</linearGradient>
	<path fill="none" stroke="url(#SVGID_16_)" stroke-miterlimit="10" d="M124.84,223.115c-0.917,0-1.66-1.105-1.66-2.467
		c0-1.363,0.743-2.469,1.66-2.469"/>
	<linearGradient id="SVGID_17_" gradientUnits="userSpaceOnUse" x1="129.4434" y1="223.6152" x2="129.4434" y2="217.6797">
		<stop  offset="0.0038" style="stop-color:#383838"/>
		<stop  offset="0.1913" style="stop-color:#3F3F3F"/>
		<stop  offset="0.4531" style="stop-color:#515151"/>
		<stop  offset="0.522" style="stop-color:#575757"/>
		<stop  offset="0.6691" style="stop-color:#454545"/>
		<stop  offset="0.8452" style="stop-color:#383838"/>
		<stop  offset="1" style="stop-color:#333333"/>
	</linearGradient>
	<path fill="none" stroke="url(#SVGID_17_)" stroke-miterlimit="10" d="M130.524,223.115c-0.918,0-1.662-1.105-1.662-2.467
		c0-1.363,0.744-2.469,1.662-2.469"/>
	<linearGradient id="SVGID_18_" gradientUnits="userSpaceOnUse" x1="135.127" y1="223.6152" x2="135.127" y2="217.6797">
		<stop  offset="0.0038" style="stop-color:#383838"/>
		<stop  offset="0.1913" style="stop-color:#3F3F3F"/>
		<stop  offset="0.4531" style="stop-color:#515151"/>
		<stop  offset="0.522" style="stop-color:#575757"/>
		<stop  offset="0.6691" style="stop-color:#454545"/>
		<stop  offset="0.8452" style="stop-color:#383838"/>
		<stop  offset="1" style="stop-color:#333333"/>
	</linearGradient>
	<path fill="none" stroke="url(#SVGID_18_)" stroke-miterlimit="10" d="M136.207,223.115c-0.918,0-1.66-1.105-1.66-2.467
		c0-1.363,0.742-2.469,1.66-2.469"/>
	<linearGradient id="SVGID_19_" gradientUnits="userSpaceOnUse" x1="135.2227" y1="216.707" x2="135.2227" y2="210.7715">
		<stop  offset="0.0038" style="stop-color:#383838"/>
		<stop  offset="0.1913" style="stop-color:#3F3F3F"/>
		<stop  offset="0.4531" style="stop-color:#515151"/>
		<stop  offset="0.522" style="stop-color:#575757"/>
		<stop  offset="0.6691" style="stop-color:#454545"/>
		<stop  offset="0.8452" style="stop-color:#383838"/>
		<stop  offset="1" style="stop-color:#333333"/>
	</linearGradient>
	<path fill="none" stroke="url(#SVGID_19_)" stroke-miterlimit="10" d="M134.143,216.207c0.915,0,1.66-1.104,1.66-2.47
		c0-1.36-0.745-2.466-1.66-2.466"/>
	<linearGradient id="SVGID_20_" gradientUnits="userSpaceOnUse" x1="129.5381" y1="216.707" x2="129.5381" y2="210.7715">
		<stop  offset="0.0038" style="stop-color:#383838"/>
		<stop  offset="0.1913" style="stop-color:#3F3F3F"/>
		<stop  offset="0.4531" style="stop-color:#515151"/>
		<stop  offset="0.522" style="stop-color:#575757"/>
		<stop  offset="0.6691" style="stop-color:#454545"/>
		<stop  offset="0.8452" style="stop-color:#383838"/>
		<stop  offset="1" style="stop-color:#333333"/>
	</linearGradient>
	<path fill="none" stroke="url(#SVGID_20_)" stroke-miterlimit="10" d="M128.459,216.207c0.917,0,1.658-1.104,1.658-2.47
		c0-1.36-0.741-2.466-1.658-2.466"/>
	<linearGradient id="SVGID_21_" gradientUnits="userSpaceOnUse" x1="123.8545" y1="216.707" x2="123.8545" y2="210.7715">
		<stop  offset="0.0038" style="stop-color:#383838"/>
		<stop  offset="0.1913" style="stop-color:#3F3F3F"/>
		<stop  offset="0.4531" style="stop-color:#515151"/>
		<stop  offset="0.522" style="stop-color:#575757"/>
		<stop  offset="0.6691" style="stop-color:#454545"/>
		<stop  offset="0.8452" style="stop-color:#383838"/>
		<stop  offset="1" style="stop-color:#333333"/>
	</linearGradient>
	<path fill="none" stroke="url(#SVGID_21_)" stroke-miterlimit="10" d="M122.775,216.207c0.916,0,1.659-1.104,1.659-2.47
		c0-1.36-0.743-2.466-1.659-2.466"/>
	<linearGradient id="SVGID_22_" gradientUnits="userSpaceOnUse" x1="118.1709" y1="216.707" x2="118.1709" y2="210.7715">
		<stop  offset="0.0038" style="stop-color:#383838"/>
		<stop  offset="0.1913" style="stop-color:#3F3F3F"/>
		<stop  offset="0.4531" style="stop-color:#515151"/>
		<stop  offset="0.522" style="stop-color:#575757"/>
		<stop  offset="0.6691" style="stop-color:#454545"/>
		<stop  offset="0.8452" style="stop-color:#383838"/>
		<stop  offset="1" style="stop-color:#333333"/>
	</linearGradient>
	<path fill="none" stroke="url(#SVGID_22_)" stroke-miterlimit="10" d="M117.092,216.207c0.916,0,1.658-1.104,1.658-2.47
		c0-1.36-0.742-2.466-1.658-2.466"/>
	<linearGradient id="SVGID_23_" gradientUnits="userSpaceOnUse" x1="112.4863" y1="216.707" x2="112.4863" y2="210.7715">
		<stop  offset="0.0038" style="stop-color:#383838"/>
		<stop  offset="0.1913" style="stop-color:#3F3F3F"/>
		<stop  offset="0.4531" style="stop-color:#515151"/>
		<stop  offset="0.522" style="stop-color:#575757"/>
		<stop  offset="0.6691" style="stop-color:#454545"/>
		<stop  offset="0.8452" style="stop-color:#383838"/>
		<stop  offset="1" style="stop-color:#333333"/>
	</linearGradient>
	<path fill="none" stroke="url(#SVGID_23_)" stroke-miterlimit="10" d="M111.407,216.207c0.916,0,1.658-1.104,1.658-2.47
		c0-1.36-0.742-2.466-1.658-2.466"/>
	<linearGradient id="SVGID_24_" gradientUnits="userSpaceOnUse" x1="106.8018" y1="216.707" x2="106.8018" y2="210.7715">
		<stop  offset="0.0038" style="stop-color:#383838"/>
		<stop  offset="0.1913" style="stop-color:#3F3F3F"/>
		<stop  offset="0.4531" style="stop-color:#515151"/>
		<stop  offset="0.522" style="stop-color:#575757"/>
		<stop  offset="0.6691" style="stop-color:#454545"/>
		<stop  offset="0.8452" style="stop-color:#383838"/>
		<stop  offset="1" style="stop-color:#333333"/>
	</linearGradient>
	<path fill="none" stroke="url(#SVGID_24_)" stroke-miterlimit="10" d="M105.721,216.207c0.921,0,1.661-1.104,1.661-2.47
		c0-1.36-0.74-2.466-1.661-2.466"/>
	<linearGradient id="SVGID_25_" gradientUnits="userSpaceOnUse" x1="101.1211" y1="216.707" x2="101.1211" y2="210.7715">
		<stop  offset="0.0038" style="stop-color:#383838"/>
		<stop  offset="0.1913" style="stop-color:#3F3F3F"/>
		<stop  offset="0.4531" style="stop-color:#515151"/>
		<stop  offset="0.522" style="stop-color:#575757"/>
		<stop  offset="0.6691" style="stop-color:#454545"/>
		<stop  offset="0.8452" style="stop-color:#383838"/>
		<stop  offset="1" style="stop-color:#333333"/>
	</linearGradient>
	<path fill="none" stroke="url(#SVGID_25_)" stroke-miterlimit="10" d="M100.041,216.207c0.916,0,1.66-1.104,1.66-2.47
		c0-1.36-0.744-2.466-1.66-2.466"/>
	<linearGradient id="SVGID_26_" gradientUnits="userSpaceOnUse" x1="95.4355" y1="216.707" x2="95.4355" y2="210.7715">
		<stop  offset="0.0038" style="stop-color:#383838"/>
		<stop  offset="0.1913" style="stop-color:#3F3F3F"/>
		<stop  offset="0.4531" style="stop-color:#515151"/>
		<stop  offset="0.522" style="stop-color:#575757"/>
		<stop  offset="0.6691" style="stop-color:#454545"/>
		<stop  offset="0.8452" style="stop-color:#383838"/>
		<stop  offset="1" style="stop-color:#333333"/>
	</linearGradient>
	<path fill="none" stroke="url(#SVGID_26_)" stroke-miterlimit="10" d="M94.356,216.207c0.916,0,1.658-1.104,1.658-2.47
		c0-1.36-0.742-2.466-1.658-2.466"/>
	<linearGradient id="SVGID_27_" gradientUnits="userSpaceOnUse" x1="89.752" y1="216.707" x2="89.752" y2="210.7715">
		<stop  offset="0.0038" style="stop-color:#383838"/>
		<stop  offset="0.1913" style="stop-color:#3F3F3F"/>
		<stop  offset="0.4531" style="stop-color:#515151"/>
		<stop  offset="0.522" style="stop-color:#575757"/>
		<stop  offset="0.6691" style="stop-color:#454545"/>
		<stop  offset="0.8452" style="stop-color:#383838"/>
		<stop  offset="1" style="stop-color:#333333"/>
	</linearGradient>
	<path fill="none" stroke="url(#SVGID_27_)" stroke-miterlimit="10" d="M88.673,216.207c0.917,0,1.658-1.104,1.658-2.47
		c0-1.36-0.741-2.466-1.658-2.466"/>
	<linearGradient id="SVGID_28_" gradientUnits="userSpaceOnUse" x1="84.0703" y1="216.707" x2="84.0703" y2="210.7715">
		<stop  offset="0.0038" style="stop-color:#383838"/>
		<stop  offset="0.1913" style="stop-color:#3F3F3F"/>
		<stop  offset="0.4531" style="stop-color:#515151"/>
		<stop  offset="0.522" style="stop-color:#575757"/>
		<stop  offset="0.6691" style="stop-color:#454545"/>
		<stop  offset="0.8452" style="stop-color:#383838"/>
		<stop  offset="1" style="stop-color:#333333"/>
	</linearGradient>
	<path fill="none" stroke="url(#SVGID_28_)" stroke-miterlimit="10" d="M82.99,216.207c0.915,0,1.66-1.104,1.66-2.47
		c0-1.36-0.745-2.466-1.66-2.466"/>
	<linearGradient id="SVGID_29_" gradientUnits="userSpaceOnUse" x1="78.3857" y1="216.707" x2="78.3857" y2="210.7715">
		<stop  offset="0.0038" style="stop-color:#383838"/>
		<stop  offset="0.1913" style="stop-color:#3F3F3F"/>
		<stop  offset="0.4531" style="stop-color:#515151"/>
		<stop  offset="0.522" style="stop-color:#575757"/>
		<stop  offset="0.6691" style="stop-color:#454545"/>
		<stop  offset="0.8452" style="stop-color:#383838"/>
		<stop  offset="1" style="stop-color:#333333"/>
	</linearGradient>
	<path fill="none" stroke="url(#SVGID_29_)" stroke-miterlimit="10" d="M77.307,216.207c0.915,0,1.658-1.104,1.658-2.47
		c0-1.36-0.743-2.466-1.658-2.466"/>
	<linearGradient id="SVGID_30_" gradientUnits="userSpaceOnUse" x1="72.7012" y1="216.707" x2="72.7012" y2="210.7715">
		<stop  offset="0.0038" style="stop-color:#383838"/>
		<stop  offset="0.1913" style="stop-color:#3F3F3F"/>
		<stop  offset="0.4531" style="stop-color:#515151"/>
		<stop  offset="0.522" style="stop-color:#575757"/>
		<stop  offset="0.6691" style="stop-color:#454545"/>
		<stop  offset="0.8452" style="stop-color:#383838"/>
		<stop  offset="1" style="stop-color:#333333"/>
	</linearGradient>
	<path fill="none" stroke="url(#SVGID_30_)" stroke-miterlimit="10" d="M71.622,216.207c0.915,0,1.658-1.104,1.658-2.47
		c0-1.36-0.743-2.466-1.658-2.466"/>
	<linearGradient id="SVGID_31_" gradientUnits="userSpaceOnUse" x1="67.0156" y1="216.707" x2="67.0156" y2="210.7715">
		<stop  offset="0.0038" style="stop-color:#383838"/>
		<stop  offset="0.1913" style="stop-color:#3F3F3F"/>
		<stop  offset="0.4531" style="stop-color:#515151"/>
		<stop  offset="0.522" style="stop-color:#575757"/>
		<stop  offset="0.6691" style="stop-color:#454545"/>
		<stop  offset="0.8452" style="stop-color:#383838"/>
		<stop  offset="1" style="stop-color:#333333"/>
	</linearGradient>
	<path fill="none" stroke="url(#SVGID_31_)" stroke-miterlimit="10" d="M65.936,216.207c0.919,0,1.66-1.104,1.66-2.47
		c0-1.36-0.741-2.466-1.66-2.466"/>
	<linearGradient id="SVGID_32_" gradientUnits="userSpaceOnUse" x1="61.3354" y1="216.707" x2="61.3354" y2="210.7715">
		<stop  offset="0.0038" style="stop-color:#383838"/>
		<stop  offset="0.1913" style="stop-color:#3F3F3F"/>
		<stop  offset="0.4531" style="stop-color:#515151"/>
		<stop  offset="0.522" style="stop-color:#575757"/>
		<stop  offset="0.6691" style="stop-color:#454545"/>
		<stop  offset="0.8452" style="stop-color:#383838"/>
		<stop  offset="1" style="stop-color:#333333"/>
	</linearGradient>
	<path fill="none" stroke="url(#SVGID_32_)" stroke-miterlimit="10" d="M60.255,216.207c0.916,0,1.66-1.104,1.66-2.47
		c0-1.36-0.744-2.466-1.66-2.466"/>
	<linearGradient id="SVGID_33_" gradientUnits="userSpaceOnUse" x1="55.6504" y1="216.707" x2="55.6504" y2="210.7715">
		<stop  offset="0.0038" style="stop-color:#383838"/>
		<stop  offset="0.1913" style="stop-color:#3F3F3F"/>
		<stop  offset="0.4531" style="stop-color:#515151"/>
		<stop  offset="0.522" style="stop-color:#575757"/>
		<stop  offset="0.6691" style="stop-color:#454545"/>
		<stop  offset="0.8452" style="stop-color:#383838"/>
		<stop  offset="1" style="stop-color:#333333"/>
	</linearGradient>
	<path fill="none" stroke="url(#SVGID_33_)" stroke-miterlimit="10" d="M54.571,216.207c0.916,0,1.658-1.104,1.658-2.47
		c0-1.36-0.743-2.466-1.658-2.466"/>
	<linearGradient id="SVGID_34_" gradientUnits="userSpaceOnUse" x1="135.2227" y1="230.6885" x2="135.2227" y2="224.751">
		<stop  offset="0.0038" style="stop-color:#383838"/>
		<stop  offset="0.1913" style="stop-color:#3F3F3F"/>
		<stop  offset="0.4531" style="stop-color:#515151"/>
		<stop  offset="0.522" style="stop-color:#575757"/>
		<stop  offset="0.6691" style="stop-color:#454545"/>
		<stop  offset="0.8452" style="stop-color:#383838"/>
		<stop  offset="1" style="stop-color:#333333"/>
	</linearGradient>
	<path fill="none" stroke="url(#SVGID_34_)" stroke-miterlimit="10" d="M134.143,230.188c0.915,0,1.66-1.109,1.66-2.47
		c0-1.364-0.745-2.468-1.66-2.468"/>
	<linearGradient id="SVGID_35_" gradientUnits="userSpaceOnUse" x1="129.5381" y1="230.6885" x2="129.5381" y2="224.751">
		<stop  offset="0.0038" style="stop-color:#383838"/>
		<stop  offset="0.1913" style="stop-color:#3F3F3F"/>
		<stop  offset="0.4531" style="stop-color:#515151"/>
		<stop  offset="0.522" style="stop-color:#575757"/>
		<stop  offset="0.6691" style="stop-color:#454545"/>
		<stop  offset="0.8452" style="stop-color:#383838"/>
		<stop  offset="1" style="stop-color:#333333"/>
	</linearGradient>
	<path fill="none" stroke="url(#SVGID_35_)" stroke-miterlimit="10" d="M128.459,230.188c0.917,0,1.658-1.109,1.658-2.47
		c0-1.364-0.741-2.468-1.658-2.468"/>
	<linearGradient id="SVGID_36_" gradientUnits="userSpaceOnUse" x1="123.8545" y1="230.6885" x2="123.8545" y2="224.751">
		<stop  offset="0.0038" style="stop-color:#383838"/>
		<stop  offset="0.1913" style="stop-color:#3F3F3F"/>
		<stop  offset="0.4531" style="stop-color:#515151"/>
		<stop  offset="0.522" style="stop-color:#575757"/>
		<stop  offset="0.6691" style="stop-color:#454545"/>
		<stop  offset="0.8452" style="stop-color:#383838"/>
		<stop  offset="1" style="stop-color:#333333"/>
	</linearGradient>
	<path fill="none" stroke="url(#SVGID_36_)" stroke-miterlimit="10" d="M122.775,230.188c0.916,0,1.659-1.109,1.659-2.47
		c0-1.364-0.743-2.468-1.659-2.468"/>
	<linearGradient id="SVGID_37_" gradientUnits="userSpaceOnUse" x1="118.1709" y1="230.6885" x2="118.1709" y2="224.751">
		<stop  offset="0.0038" style="stop-color:#383838"/>
		<stop  offset="0.1913" style="stop-color:#3F3F3F"/>
		<stop  offset="0.4531" style="stop-color:#515151"/>
		<stop  offset="0.522" style="stop-color:#575757"/>
		<stop  offset="0.6691" style="stop-color:#454545"/>
		<stop  offset="0.8452" style="stop-color:#383838"/>
		<stop  offset="1" style="stop-color:#333333"/>
	</linearGradient>
	<path fill="none" stroke="url(#SVGID_37_)" stroke-miterlimit="10" d="M117.092,230.188c0.916,0,1.658-1.109,1.658-2.47
		c0-1.364-0.742-2.468-1.658-2.468"/>
	<linearGradient id="SVGID_38_" gradientUnits="userSpaceOnUse" x1="112.4863" y1="230.6885" x2="112.4863" y2="224.751">
		<stop  offset="0.0038" style="stop-color:#383838"/>
		<stop  offset="0.1913" style="stop-color:#3F3F3F"/>
		<stop  offset="0.4531" style="stop-color:#515151"/>
		<stop  offset="0.522" style="stop-color:#575757"/>
		<stop  offset="0.6691" style="stop-color:#454545"/>
		<stop  offset="0.8452" style="stop-color:#383838"/>
		<stop  offset="1" style="stop-color:#333333"/>
	</linearGradient>
	<path fill="none" stroke="url(#SVGID_38_)" stroke-miterlimit="10" d="M111.407,230.188c0.916,0,1.658-1.109,1.658-2.47
		c0-1.364-0.742-2.468-1.658-2.468"/>
	<linearGradient id="SVGID_39_" gradientUnits="userSpaceOnUse" x1="106.8018" y1="230.6885" x2="106.8018" y2="224.751">
		<stop  offset="0.0038" style="stop-color:#383838"/>
		<stop  offset="0.1913" style="stop-color:#3F3F3F"/>
		<stop  offset="0.4531" style="stop-color:#515151"/>
		<stop  offset="0.522" style="stop-color:#575757"/>
		<stop  offset="0.6691" style="stop-color:#454545"/>
		<stop  offset="0.8452" style="stop-color:#383838"/>
		<stop  offset="1" style="stop-color:#333333"/>
	</linearGradient>
	<path fill="none" stroke="url(#SVGID_39_)" stroke-miterlimit="10" d="M105.721,230.188c0.921,0,1.661-1.109,1.661-2.47
		c0-1.364-0.74-2.468-1.661-2.468"/>
	<linearGradient id="SVGID_40_" gradientUnits="userSpaceOnUse" x1="101.1211" y1="230.6885" x2="101.1211" y2="224.751">
		<stop  offset="0.0038" style="stop-color:#383838"/>
		<stop  offset="0.1913" style="stop-color:#3F3F3F"/>
		<stop  offset="0.4531" style="stop-color:#515151"/>
		<stop  offset="0.522" style="stop-color:#575757"/>
		<stop  offset="0.6691" style="stop-color:#454545"/>
		<stop  offset="0.8452" style="stop-color:#383838"/>
		<stop  offset="1" style="stop-color:#333333"/>
	</linearGradient>
	<path fill="none" stroke="url(#SVGID_40_)" stroke-miterlimit="10" d="M100.041,230.188c0.916,0,1.66-1.109,1.66-2.47
		c0-1.364-0.744-2.468-1.66-2.468"/>
	<linearGradient id="SVGID_41_" gradientUnits="userSpaceOnUse" x1="95.4355" y1="230.6885" x2="95.4355" y2="224.751">
		<stop  offset="0.0038" style="stop-color:#383838"/>
		<stop  offset="0.1913" style="stop-color:#3F3F3F"/>
		<stop  offset="0.4531" style="stop-color:#515151"/>
		<stop  offset="0.522" style="stop-color:#575757"/>
		<stop  offset="0.6691" style="stop-color:#454545"/>
		<stop  offset="0.8452" style="stop-color:#383838"/>
		<stop  offset="1" style="stop-color:#333333"/>
	</linearGradient>
	<path fill="none" stroke="url(#SVGID_41_)" stroke-miterlimit="10" d="M94.356,230.188c0.916,0,1.658-1.109,1.658-2.47
		c0-1.364-0.742-2.468-1.658-2.468"/>
	<linearGradient id="SVGID_42_" gradientUnits="userSpaceOnUse" x1="89.752" y1="230.6885" x2="89.752" y2="224.751">
		<stop  offset="0.0038" style="stop-color:#383838"/>
		<stop  offset="0.1913" style="stop-color:#3F3F3F"/>
		<stop  offset="0.4531" style="stop-color:#515151"/>
		<stop  offset="0.522" style="stop-color:#575757"/>
		<stop  offset="0.6691" style="stop-color:#454545"/>
		<stop  offset="0.8452" style="stop-color:#383838"/>
		<stop  offset="1" style="stop-color:#333333"/>
	</linearGradient>
	<path fill="none" stroke="url(#SVGID_42_)" stroke-miterlimit="10" d="M88.673,230.188c0.917,0,1.658-1.109,1.658-2.47
		c0-1.364-0.741-2.468-1.658-2.468"/>
	<linearGradient id="SVGID_43_" gradientUnits="userSpaceOnUse" x1="84.0703" y1="230.6885" x2="84.0703" y2="224.751">
		<stop  offset="0.0038" style="stop-color:#383838"/>
		<stop  offset="0.1913" style="stop-color:#3F3F3F"/>
		<stop  offset="0.4531" style="stop-color:#515151"/>
		<stop  offset="0.522" style="stop-color:#575757"/>
		<stop  offset="0.6691" style="stop-color:#454545"/>
		<stop  offset="0.8452" style="stop-color:#383838"/>
		<stop  offset="1" style="stop-color:#333333"/>
	</linearGradient>
	<path fill="none" stroke="url(#SVGID_43_)" stroke-miterlimit="10" d="M82.99,230.188c0.915,0,1.66-1.109,1.66-2.47
		c0-1.364-0.745-2.468-1.66-2.468"/>
	<linearGradient id="SVGID_44_" gradientUnits="userSpaceOnUse" x1="78.3857" y1="230.6885" x2="78.3857" y2="224.751">
		<stop  offset="0.0038" style="stop-color:#383838"/>
		<stop  offset="0.1913" style="stop-color:#3F3F3F"/>
		<stop  offset="0.4531" style="stop-color:#515151"/>
		<stop  offset="0.522" style="stop-color:#575757"/>
		<stop  offset="0.6691" style="stop-color:#454545"/>
		<stop  offset="0.8452" style="stop-color:#383838"/>
		<stop  offset="1" style="stop-color:#333333"/>
	</linearGradient>
	<path fill="none" stroke="url(#SVGID_44_)" stroke-miterlimit="10" d="M77.307,230.188c0.915,0,1.658-1.109,1.658-2.47
		c0-1.364-0.743-2.468-1.658-2.468"/>
	<linearGradient id="SVGID_45_" gradientUnits="userSpaceOnUse" x1="72.7012" y1="230.6885" x2="72.7012" y2="224.751">
		<stop  offset="0.0038" style="stop-color:#383838"/>
		<stop  offset="0.1913" style="stop-color:#3F3F3F"/>
		<stop  offset="0.4531" style="stop-color:#515151"/>
		<stop  offset="0.522" style="stop-color:#575757"/>
		<stop  offset="0.6691" style="stop-color:#454545"/>
		<stop  offset="0.8452" style="stop-color:#383838"/>
		<stop  offset="1" style="stop-color:#333333"/>
	</linearGradient>
	<path fill="none" stroke="url(#SVGID_45_)" stroke-miterlimit="10" d="M71.622,230.188c0.915,0,1.658-1.109,1.658-2.47
		c0-1.364-0.743-2.468-1.658-2.468"/>
	<linearGradient id="SVGID_46_" gradientUnits="userSpaceOnUse" x1="67.0156" y1="230.6885" x2="67.0156" y2="224.751">
		<stop  offset="0.0038" style="stop-color:#383838"/>
		<stop  offset="0.1913" style="stop-color:#3F3F3F"/>
		<stop  offset="0.4531" style="stop-color:#515151"/>
		<stop  offset="0.522" style="stop-color:#575757"/>
		<stop  offset="0.6691" style="stop-color:#454545"/>
		<stop  offset="0.8452" style="stop-color:#383838"/>
		<stop  offset="1" style="stop-color:#333333"/>
	</linearGradient>
	<path fill="none" stroke="url(#SVGID_46_)" stroke-miterlimit="10" d="M65.936,230.188c0.919,0,1.66-1.109,1.66-2.47
		c0-1.364-0.741-2.468-1.66-2.468"/>
	<linearGradient id="SVGID_47_" gradientUnits="userSpaceOnUse" x1="61.3354" y1="230.6885" x2="61.3354" y2="224.751">
		<stop  offset="0.0038" style="stop-color:#383838"/>
		<stop  offset="0.1913" style="stop-color:#3F3F3F"/>
		<stop  offset="0.4531" style="stop-color:#515151"/>
		<stop  offset="0.522" style="stop-color:#575757"/>
		<stop  offset="0.6691" style="stop-color:#454545"/>
		<stop  offset="0.8452" style="stop-color:#383838"/>
		<stop  offset="1" style="stop-color:#333333"/>
	</linearGradient>
	<path fill="none" stroke="url(#SVGID_47_)" stroke-miterlimit="10" d="M60.255,230.188c0.916,0,1.66-1.109,1.66-2.47
		c0-1.364-0.744-2.468-1.66-2.468"/>
	<linearGradient id="SVGID_48_" gradientUnits="userSpaceOnUse" x1="55.6504" y1="230.6885" x2="55.6504" y2="224.751">
		<stop  offset="0.0038" style="stop-color:#383838"/>
		<stop  offset="0.1913" style="stop-color:#3F3F3F"/>
		<stop  offset="0.4531" style="stop-color:#515151"/>
		<stop  offset="0.522" style="stop-color:#575757"/>
		<stop  offset="0.6691" style="stop-color:#454545"/>
		<stop  offset="0.8452" style="stop-color:#383838"/>
		<stop  offset="1" style="stop-color:#333333"/>
	</linearGradient>
	<path fill="none" stroke="url(#SVGID_48_)" stroke-miterlimit="10" d="M54.571,230.188c0.916,0,1.658-1.109,1.658-2.47
		c0-1.364-0.743-2.468-1.658-2.468"/>
	
		<linearGradient id="SVGID_49_" gradientUnits="userSpaceOnUse" x1="-335.3379" y1="545.998" x2="-335.3379" y2="516.4189" gradientTransform="matrix(0 1 1 0 -507.6309 507.6309)">
		<stop  offset="0.0038" style="stop-color:#231815"/>
		<stop  offset="0.19" style="stop-color:#9E9E9F"/>
		<stop  offset="0.3499" style="stop-color:#E8E9E9"/>
		<stop  offset="0.68" style="stop-color:#9E9E9F"/>
		<stop  offset="1" style="stop-color:#484545"/>
	</linearGradient>
	<linearGradient id="SVGID_50_" gradientUnits="userSpaceOnUse" x1="23.5776" y1="177.2686" x2="23.5776" y2="167.3164">
		<stop  offset="0.0038" style="stop-color:#383838"/>
		<stop  offset="0.1913" style="stop-color:#3F3F3F"/>
		<stop  offset="0.4531" style="stop-color:#515151"/>
		<stop  offset="0.522" style="stop-color:#575757"/>
		<stop  offset="0.6691" style="stop-color:#454545"/>
		<stop  offset="0.8452" style="stop-color:#383838"/>
		<stop  offset="1" style="stop-color:#333333"/>
	</linearGradient>
	<path fill="url(#SVGID_49_)" stroke="url(#SVGID_50_)" stroke-miterlimit="10" d="M38.367,171.136c0-1.831-1.733-3.319-3.875-3.319
		H12.666c-2.14,0-3.877,1.488-3.877,3.319v2.311c0,1.834,1.738,3.322,3.877,3.322h21.827c2.141,0,3.875-1.488,3.875-3.322V171.136z"
		/>
	
		<linearGradient id="SVGID_51_" gradientUnits="userSpaceOnUse" x1="-344.4272" y1="545.2236" x2="-344.4272" y2="517.2021" gradientTransform="matrix(0 1 1 0 -507.6309 507.6309)">
		<stop  offset="0.0038" style="stop-color:#231815"/>
		<stop  offset="0.19" style="stop-color:#9E9E9F"/>
		<stop  offset="0.3499" style="stop-color:#E8E9E9"/>
		<stop  offset="0.68" style="stop-color:#9E9E9F"/>
		<stop  offset="1" style="stop-color:#484545"/>
	</linearGradient>
	<linearGradient id="SVGID_52_" gradientUnits="userSpaceOnUse" x1="23.5806" y1="169.2695" x2="23.5806" y2="156.7637">
		<stop  offset="0.0038" style="stop-color:#383838"/>
		<stop  offset="0.1913" style="stop-color:#3F3F3F"/>
		<stop  offset="0.4531" style="stop-color:#515151"/>
		<stop  offset="0.522" style="stop-color:#575757"/>
		<stop  offset="0.6691" style="stop-color:#454545"/>
		<stop  offset="0.8452" style="stop-color:#383838"/>
		<stop  offset="1" style="stop-color:#333333"/>
	</linearGradient>
	<polyline fill="url(#SVGID_51_)" stroke="url(#SVGID_52_)" stroke-miterlimit="10" points="9.571,169.143 12.535,157.264 
		34.464,157.264 37.592,169.143 	"/>
	
		<linearGradient id="SVGID_53_" gradientUnits="userSpaceOnUse" x1="-327.4512" y1="547.8584" x2="-327.4512" y2="514.0342" gradientTransform="matrix(0 1 1 0 -507.6309 507.6309)">
		<stop  offset="0.0038" style="stop-color:#231815"/>
		<stop  offset="0.19" style="stop-color:#9E9E9F"/>
		<stop  offset="0.3499" style="stop-color:#E8E9E9"/>
		<stop  offset="0.68" style="stop-color:#9E9E9F"/>
		<stop  offset="1" style="stop-color:#484545"/>
	</linearGradient>
	<linearGradient id="SVGID_54_" gradientUnits="userSpaceOnUse" x1="23.3154" y1="186.3037" x2="23.3154" y2="174.0547">
		<stop  offset="0.0038" style="stop-color:#383838"/>
		<stop  offset="0.1913" style="stop-color:#3F3F3F"/>
		<stop  offset="0.4531" style="stop-color:#515151"/>
		<stop  offset="0.522" style="stop-color:#575757"/>
		<stop  offset="0.6691" style="stop-color:#454545"/>
		<stop  offset="0.8452" style="stop-color:#383838"/>
		<stop  offset="1" style="stop-color:#333333"/>
	</linearGradient>
	<path fill-rule="evenodd" clip-rule="evenodd" fill="url(#SVGID_53_)" stroke="url(#SVGID_54_)" stroke-miterlimit="10" d="
		M40.228,177.874c0-1.835-1.79-3.319-3.991-3.319H10.393c-2.206,0-3.99,1.484-3.99,3.319v4.611c0,1.834,1.784,3.318,3.99,3.318
		h25.844c2.202,0,3.991-1.484,3.991-3.318V177.874z"/>
	
		<linearGradient id="SVGID_55_" gradientUnits="userSpaceOnUse" x1="-314.4951" y1="554.5869" x2="-314.4951" y2="508.1309" gradientTransform="matrix(0 1 1 0 -507.6309 507.6309)">
		<stop  offset="0.0038" style="stop-color:#231815"/>
		<stop  offset="0.19" style="stop-color:#9E9E9F"/>
		<stop  offset="0.3499" style="stop-color:#E8E9E9"/>
		<stop  offset="0.68" style="stop-color:#9E9E9F"/>
		<stop  offset="1" style="stop-color:#484545"/>
	</linearGradient>
	<linearGradient id="SVGID_56_" gradientUnits="userSpaceOnUse" x1="23.728" y1="204.2852" x2="23.728" y2="181.9854">
		<stop  offset="0.0038" style="stop-color:#383838"/>
		<stop  offset="0.1913" style="stop-color:#3F3F3F"/>
		<stop  offset="0.4531" style="stop-color:#515151"/>
		<stop  offset="0.522" style="stop-color:#575757"/>
		<stop  offset="0.6691" style="stop-color:#454545"/>
		<stop  offset="0.8452" style="stop-color:#383838"/>
		<stop  offset="1" style="stop-color:#333333"/>
	</linearGradient>
	<path fill-rule="evenodd" clip-rule="evenodd" fill="url(#SVGID_55_)" stroke="url(#SVGID_56_)" stroke-miterlimit="10" d="
		M46.957,196.422c0,4.067-3.467,7.363-7.746,7.363H8.247c-4.28,0-7.747-3.296-7.747-7.363v-6.572c0-4.067,3.466-7.364,7.747-7.364
		H39.21c4.279,0,7.746,3.297,7.746,7.364V196.422z"/>
	<linearGradient id="SVGID_57_" gradientUnits="userSpaceOnUse" x1="95.6689" y1="182.4326" x2="95.6689" y2="166.7646">
		<stop  offset="0.0038" style="stop-color:#383838"/>
		<stop  offset="0.1913" style="stop-color:#3F3F3F"/>
		<stop  offset="0.4531" style="stop-color:#515151"/>
		<stop  offset="0.522" style="stop-color:#575757"/>
		<stop  offset="0.6691" style="stop-color:#454545"/>
		<stop  offset="0.8452" style="stop-color:#383838"/>
		<stop  offset="1" style="stop-color:#333333"/>
	</linearGradient>
	
		<rect x="66.829" y="167.265" fill-rule="evenodd" clip-rule="evenodd" fill="#919191" stroke="url(#SVGID_57_)" stroke-miterlimit="10" width="57.681" height="14.668"/>
	
		<linearGradient id="SVGID_58_" gradientUnits="userSpaceOnUse" x1="134.1787" y1="124.2295" x2="58.9209" y2="124.2295" gradientTransform="matrix(1 0 0 1 -1 0.9995)">
		<stop  offset="0.0038" style="stop-color:#231815"/>
		<stop  offset="0.19" style="stop-color:#9E9E9F"/>
		<stop  offset="0.4091" style="stop-color:#919191"/>
		<stop  offset="0.68" style="stop-color:#9E9E9F"/>
		<stop  offset="1" style="stop-color:#484545"/>
	</linearGradient>
	<linearGradient id="SVGID_59_" gradientUnits="userSpaceOnUse" x1="95.5498" y1="170.0273" x2="95.5498" y2="80.9287">
		<stop  offset="0.0038" style="stop-color:#383838"/>
		<stop  offset="0.1913" style="stop-color:#3F3F3F"/>
		<stop  offset="0.4531" style="stop-color:#515151"/>
		<stop  offset="0.522" style="stop-color:#575757"/>
		<stop  offset="0.6691" style="stop-color:#454545"/>
		<stop  offset="0.8452" style="stop-color:#383838"/>
		<stop  offset="1" style="stop-color:#333333"/>
	</linearGradient>
	<path fill-rule="evenodd" clip-rule="evenodd" fill="url(#SVGID_58_)" stroke="url(#SVGID_59_)" stroke-miterlimit="10" d="
		M57.932,80.931v72.826c0,0-0.879,15.771,13.507,15.771c14.387,0,48.69,0,48.69,0s13.05,0.278,13.05-15.771
		c0-16.045-0.274-72.826-0.274-72.826"/>
	<linearGradient id="SVGID_60_" gradientUnits="userSpaceOnUse" x1="56.9175" y1="29.6816" x2="134.1787" y2="29.6816">
		<stop  offset="0.0038" style="stop-color:#231815"/>
		<stop  offset="0.19" style="stop-color:#9E9E9F"/>
		<stop  offset="0.3499" style="stop-color:#E8E9E9"/>
		<stop  offset="0.68" style="stop-color:#9E9E9F"/>
		<stop  offset="1" style="stop-color:#484545"/>
	</linearGradient>
	<path fill-rule="evenodd" clip-rule="evenodd" fill="none" stroke="url(#SVGID_60_)" stroke-width="2" stroke-miterlimit="10" d="
		M57.921,59.352v-44.61c0,0-0.682-13.693,17.301-13.693c17.981,0,40.528,0,40.528,0s17.429-1.8,17.429,16.599
		s-0.274,41.705-0.274,41.705"/>
	
		<linearGradient id="SVGID_61_" gradientUnits="userSpaceOnUse" x1="82.5234" y1="168.1289" x2="82.5234" y2="78.1699" gradientTransform="matrix(1 0 0 1 -1 0.9995)">
		<stop  offset="0.0287" style="stop-color:#5C5C5C"/>
		<stop  offset="0.4736" style="stop-color:#E8E9E9"/>
		<stop  offset="0.7445" style="stop-color:#9E9E9F"/>
		<stop  offset="0.9946" style="stop-color:#484545"/>
	</linearGradient>
	<path fill-rule="evenodd" clip-rule="evenodd" fill="none" stroke="url(#SVGID_61_)" stroke-width="2" stroke-miterlimit="10" d="
		M85.488,124.147c0,24.288-1.773,43.98-3.964,43.98c-2.192,0-3.966-19.692-3.966-43.98c0-24.287,1.774-43.979,3.966-43.979
		C83.715,80.169,85.488,99.861,85.488,124.147z"/>
	
		<linearGradient id="SVGID_62_" gradientUnits="userSpaceOnUse" x1="68.2412" y1="166.7676" x2="68.2412" y2="78.1699" gradientTransform="matrix(1 0 0 1 -1 0.9995)">
		<stop  offset="0.0287" style="stop-color:#5C5C5C"/>
		<stop  offset="0.4736" style="stop-color:#E8E9E9"/>
		<stop  offset="0.7445" style="stop-color:#9E9E9F"/>
		<stop  offset="0.9946" style="stop-color:#484545"/>
	</linearGradient>
	<path fill-rule="evenodd" clip-rule="evenodd" fill="none" stroke="url(#SVGID_62_)" stroke-width="2" stroke-miterlimit="10" d="
		M71.207,123.468c0,23.913-1.778,43.298-3.969,43.298c-2.187,0-3.963-19.386-3.963-43.298c0-23.914,1.776-43.299,3.963-43.299
		C69.429,80.169,71.207,99.554,71.207,123.468z"/>
	
		<linearGradient id="SVGID_63_" gradientUnits="userSpaceOnUse" x1="96.624" y1="168.1289" x2="96.624" y2="78.1699" gradientTransform="matrix(1 0 0 1 -1 0.9995)">
		<stop  offset="0.0287" style="stop-color:#5C5C5C"/>
		<stop  offset="0.4736" style="stop-color:#E8E9E9"/>
		<stop  offset="0.7445" style="stop-color:#9E9E9F"/>
		<stop  offset="0.9946" style="stop-color:#484545"/>
	</linearGradient>
	<path fill-rule="evenodd" clip-rule="evenodd" fill="none" stroke="url(#SVGID_63_)" stroke-width="2" stroke-miterlimit="10" d="
		M99.589,124.147c0,24.288-1.774,43.98-3.965,43.98c-2.191,0-3.965-19.692-3.965-43.98c0-24.287,1.773-43.979,3.965-43.979
		C97.814,80.169,99.589,99.861,99.589,124.147z"/>
	
		<linearGradient id="SVGID_64_" gradientUnits="userSpaceOnUse" x1="112.0088" y1="168.1289" x2="112.0088" y2="78.1699" gradientTransform="matrix(1 0 0 1 -1 0.9995)">
		<stop  offset="0.0287" style="stop-color:#5C5C5C"/>
		<stop  offset="0.4736" style="stop-color:#E8E9E9"/>
		<stop  offset="0.7445" style="stop-color:#9E9E9F"/>
		<stop  offset="0.9946" style="stop-color:#484545"/>
	</linearGradient>
	<path fill-rule="evenodd" clip-rule="evenodd" fill="none" stroke="url(#SVGID_64_)" stroke-width="2" stroke-miterlimit="10" d="
		M114.976,124.147c0,24.288-1.776,43.98-3.968,43.98c-2.188,0-3.966-19.692-3.966-43.98c0-24.287,1.778-43.979,3.966-43.979
		C113.199,80.169,114.976,99.861,114.976,124.147z"/>
	
		<linearGradient id="SVGID_65_" gradientUnits="userSpaceOnUse" x1="125.5107" y1="166.7676" x2="125.5107" y2="78.1699" gradientTransform="matrix(1 0 0 1 -1 0.9995)">
		<stop  offset="0.0287" style="stop-color:#5C5C5C"/>
		<stop  offset="0.4736" style="stop-color:#E8E9E9"/>
		<stop  offset="0.7445" style="stop-color:#9E9E9F"/>
		<stop  offset="0.9946" style="stop-color:#484545"/>
	</linearGradient>
	
		<ellipse fill-rule="evenodd" clip-rule="evenodd" fill="none" stroke="url(#SVGID_65_)" stroke-width="2" stroke-miterlimit="10" cx="124.511" cy="123.468" rx="3.965" ry="43.298"/>
	
		<linearGradient id="SVGID_66_" gradientUnits="userSpaceOnUse" x1="148.4268" y1="192.8984" x2="42.4253" y2="192.8984" gradientTransform="matrix(1 0 0 1 -1 0.9995)">
		<stop  offset="0.0038" style="stop-color:#2E2E2E"/>
		<stop  offset="0.19" style="stop-color:#9E9E9F"/>
		<stop  offset="0.3499" style="stop-color:#E8E9E9"/>
		<stop  offset="0.68" style="stop-color:#9E9E9F"/>
		<stop  offset="1" style="stop-color:#484545"/>
	</linearGradient>
	<linearGradient id="SVGID_67_" gradientUnits="userSpaceOnUse" x1="94.4258" y1="208.623" x2="94.4258" y2="179.1729">
		<stop  offset="0.0038" style="stop-color:#383838"/>
		<stop  offset="0.1913" style="stop-color:#3F3F3F"/>
		<stop  offset="0.4531" style="stop-color:#515151"/>
		<stop  offset="0.522" style="stop-color:#575757"/>
		<stop  offset="0.6691" style="stop-color:#454545"/>
		<stop  offset="0.8452" style="stop-color:#383838"/>
		<stop  offset="1" style="stop-color:#333333"/>
	</linearGradient>
	<path fill-rule="evenodd" clip-rule="evenodd" fill="url(#SVGID_66_)" stroke="url(#SVGID_67_)" stroke-miterlimit="10" d="
		M41.426,186.311c0-3.666,2.837-6.638,6.335-6.638h93.329c3.499,0,6.337,2.972,6.337,6.638v15.171c0,3.666-2.838,6.642-6.337,6.642
		H47.761c-3.498,0-6.335-2.976-6.335-6.642V186.311z"/>
	<linearGradient id="SVGID_68_" gradientUnits="userSpaceOnUse" x1="95.3701" y1="31.2935" x2="95.3701" y2="18.9043">
		<stop  offset="0.0038" style="stop-color:#231815"/>
		<stop  offset="0.19" style="stop-color:#9E9E9F"/>
		<stop  offset="0.3499" style="stop-color:#E8E9E9"/>
		<stop  offset="0.68" style="stop-color:#9E9E9F"/>
		<stop  offset="1" style="stop-color:#484545"/>
	</linearGradient>
	<path fill="none" stroke="url(#SVGID_68_)" stroke-width="2" stroke-miterlimit="10" d="M90.622,31.293
		c0-4.457,2.127-11.389,4.749-11.389c2.62,0,4.748,6.933,4.748,11.389"/>
	
		<linearGradient id="SVGID_69_" gradientUnits="userSpaceOnUse" x1="-352.2798" y1="549.1484" x2="-352.2798" y2="513.3877" gradientTransform="matrix(0 1 1 0 -507.6309 507.6309)">
		<stop  offset="0.0038" style="stop-color:#231815"/>
		<stop  offset="0.19" style="stop-color:#9E9E9F"/>
		<stop  offset="0.3499" style="stop-color:#E8E9E9"/>
		<stop  offset="0.68" style="stop-color:#9E9E9F"/>
		<stop  offset="1" style="stop-color:#484545"/>
	</linearGradient>
	<linearGradient id="SVGID_70_" gradientUnits="userSpaceOnUse" x1="23.6372" y1="159.9775" x2="23.6372" y2="150.7236">
		<stop  offset="0.0038" style="stop-color:#383838"/>
		<stop  offset="0.1913" style="stop-color:#3F3F3F"/>
		<stop  offset="0.4531" style="stop-color:#515151"/>
		<stop  offset="0.522" style="stop-color:#575757"/>
		<stop  offset="0.6691" style="stop-color:#454545"/>
		<stop  offset="0.8452" style="stop-color:#383838"/>
		<stop  offset="1" style="stop-color:#333333"/>
	</linearGradient>
	<path fill="url(#SVGID_69_)" stroke="url(#SVGID_70_)" stroke-miterlimit="10" d="M41.518,154.544c0-1.835-1.548-3.32-3.457-3.32
		H9.213c-1.911,0-3.457,1.485-3.457,3.32v1.614c0,1.834,1.546,3.319,3.457,3.319h28.847c1.909,0,3.457-1.485,3.457-3.319V154.544z"
		/>
	
		<linearGradient id="SVGID_71_" gradientUnits="userSpaceOnUse" x1="58.9155" y1="44.7271" x2="134.1787" y2="44.7271" gradientTransform="matrix(1 0 0 1 -1 0.9995)">
		<stop  offset="0.0038" style="stop-color:#231815"/>
		<stop  offset="0.19" style="stop-color:#9E9E9F"/>
		<stop  offset="0.3499" style="stop-color:#E8E9E9"/>
		<stop  offset="0.68" style="stop-color:#9E9E9F"/>
		<stop  offset="1" style="stop-color:#484545"/>
	</linearGradient>
	<path fill="url(#SVGID_71_)" d="M57.916,60.342V41.024c0,0,7.345-10.235,13.617-10.189c6.269,0.045,48.506,0,48.506,0
		s7.56-0.183,13.14,11.066v18.718"/>
	<g>
		
			<linearGradient id="SVGID_72_" gradientUnits="userSpaceOnUse" x1="51.6001" y1="69.1416" x2="141.6504" y2="69.1416" gradientTransform="matrix(1 0 0 1 -1 0.9995)">
			<stop  offset="0.0038" style="stop-color:#231815"/>
			<stop  offset="0.19" style="stop-color:#9E9E9F"/>
			<stop  offset="0.3499" style="stop-color:#E8E9E9"/>
			<stop  offset="0.68" style="stop-color:#9E9E9F"/>
			<stop  offset="1" style="stop-color:#484545"/>
		</linearGradient>
		<path fill-rule="evenodd" clip-rule="evenodd" fill="url(#SVGID_72_)" d="M140.65,73.184c0,4.279-3.47,7.747-7.746,7.747H58.346
			c-4.279,0-7.746-3.468-7.746-7.747v-6.085c0-4.279,3.466-7.747,7.746-7.747h74.559c4.276,0,7.746,3.468,7.746,7.747V73.184z"/>
		<g>
			<linearGradient id="SVGID_73_" gradientUnits="userSpaceOnUse" x1="95.625" y1="80.9307" x2="95.625" y2="59.3521">
				<stop  offset="0.0038" style="stop-color:#383838"/>
				<stop  offset="0.1913" style="stop-color:#3F3F3F"/>
				<stop  offset="0.4531" style="stop-color:#515151"/>
				<stop  offset="0.522" style="stop-color:#575757"/>
				<stop  offset="0.6691" style="stop-color:#454545"/>
				<stop  offset="0.8452" style="stop-color:#383838"/>
				<stop  offset="1" style="stop-color:#333333"/>
			</linearGradient>
			<path fill="url(#SVGID_73_)" d="M132.904,60.352c3.72,0,6.746,3.026,6.746,6.747v6.085c0,3.72-3.026,6.747-6.746,6.747H58.346
				c-3.72,0-6.746-3.026-6.746-6.747v-6.085c0-3.72,3.026-6.747,6.746-6.747H132.904 M132.904,59.352H58.346
				c-4.279,0-7.746,3.468-7.746,7.747v6.085c0,4.279,3.466,7.747,7.746,7.747h74.559c4.276,0,7.746-3.468,7.746-7.747v-6.085
				C140.65,62.82,137.181,59.352,132.904,59.352L132.904,59.352z"/>
		</g>
	</g>
</g>
</svg>
